<svg width="150" height="30" viewBox="0 0 150 30" fill="none" xmlns="http://www.w3.org/2000/svg">
<path d="M26.5773 24.0459C24.5179 22.2046 21.8928 20.8151 18.9347 20.0742L13.9875 7.69629L8.96208 20.0977C6.04633 20.8431 3.4575 22.2191 1.42107 24.0371L11.6593 0H16.3732L26.5773 24.0459Z" fill="white"/>
<path d="M13.8721 21.5763C19.7124 21.5763 24.875 24.0138 27.999 27.7433L23.8643 30.0002C21.6543 27.6474 18.1551 26.0099 13.8721 26.0099C9.76422 26.01 6.37723 27.5161 4.15723 29.715L0 27.4455C3.14566 23.8841 8.18827 21.5764 13.8721 21.5763Z" fill="white"/>
<path d="M31.999 30.0002V10.8613H36.3593L36.7837 13.4466C37.4011 12.5205 38.2114 11.7874 39.2147 11.2472C40.2436 10.6813 41.427 10.3983 42.7646 10.3983C45.7229 10.3983 47.8194 11.543 49.0542 13.8325C49.7488 12.7778 50.6748 11.9417 51.8324 11.3244C53.0157 10.707 54.3019 10.3983 55.6911 10.3983C58.1863 10.3983 60.1028 11.1443 61.4404 12.6363C62.7781 14.1283 63.4469 16.3149 63.4469 19.196V30.0002H58.5079V19.659C58.5079 18.0127 58.1863 16.7522 57.5432 15.8775C56.9258 15.0029 55.9612 14.5656 54.6492 14.5656C53.3116 14.5656 52.2311 15.0544 51.408 16.0319C50.6105 17.0094 50.2118 18.3728 50.2118 20.122V30.0002H45.2727V19.659C45.2727 18.0127 44.9512 16.7522 44.3081 15.8775C43.665 15.0029 42.6746 14.5656 41.3369 14.5656C40.025 14.5656 38.9574 15.0544 38.1343 16.0319C37.3368 17.0094 36.9381 18.3728 36.9381 20.122V30.0002H31.999Z" fill="white"/>
<path d="M77.3636 30.0002C75.4343 30.0002 73.7236 29.5886 72.2316 28.7654C70.7396 27.9422 69.5692 26.7846 68.7203 25.2926C67.8714 23.8006 67.4469 22.0771 67.4469 20.122C67.4469 18.1413 67.8585 16.3792 68.6817 14.8357C69.5306 13.2923 70.6882 12.0961 72.1544 11.2472C73.6465 10.3726 75.3957 9.93524 77.4022 9.93524C79.2801 9.93524 80.9393 10.3468 82.3798 11.17C83.8204 11.9932 84.9394 13.125 85.7369 14.5656C86.56 15.9804 86.9716 17.5625 86.9716 19.3117C86.9716 19.5947 86.9588 19.8905 86.933 20.1992C86.933 20.5079 86.9202 20.8295 86.8944 21.1639H72.3474C72.4503 22.6559 72.9648 23.8263 73.8908 24.6752C74.8426 25.5241 75.9874 25.9486 77.325 25.9486C78.3283 25.9486 79.1643 25.7299 79.8331 25.2926C80.5277 24.8296 81.0422 24.2379 81.3766 23.5176H86.3928C86.0327 24.7267 85.4282 25.8328 84.5793 26.8361C83.7561 27.8136 82.7271 28.5853 81.4924 29.1513C80.2833 29.7172 78.9071 30.0002 77.3636 30.0002ZM77.4022 13.9482C76.1932 13.9482 75.1256 14.2955 74.1995 14.9901C73.2735 15.6589 72.6818 16.6879 72.4246 18.077H81.9554C81.8782 16.8165 81.4152 15.8132 80.5663 15.0672C79.7174 14.3212 78.6627 13.9482 77.4022 13.9482Z" fill="white"/>
<path d="M90.9716 30.0002V10.8613H95.3705L95.8335 14.4499C96.5281 13.2151 97.467 12.2376 98.6503 11.5173C99.8593 10.7713 101.274 10.3983 102.895 10.3983V15.6074H101.506C100.425 15.6074 99.4606 15.7747 98.6117 16.1091C97.7628 16.4435 97.094 17.0223 96.6052 17.8455C96.1422 18.6686 95.9107 19.8134 95.9107 21.2796V30.0002H90.9716Z" fill="white"/>
<path d="M116.889 30.0002C114.934 30.0002 113.21 29.5757 111.718 28.7268C110.226 27.8779 109.043 26.6946 108.168 25.1769C107.319 23.6591 106.895 21.9227 106.895 19.9677C106.895 18.0127 107.319 16.2763 108.168 14.7585C109.043 13.2408 110.226 12.0575 111.718 11.2086C113.21 10.3597 114.934 9.93524 116.889 9.93524C119.332 9.93524 121.39 10.5783 123.062 11.8646C124.735 13.125 125.802 14.8743 126.265 17.1123H121.056C120.799 16.1862 120.284 15.466 119.513 14.9515C118.767 14.4113 117.879 14.1412 116.85 14.1412C115.487 14.1412 114.329 14.6556 113.377 15.6846C112.426 16.7136 111.95 18.1413 111.95 19.9677C111.95 21.7941 112.426 23.2218 113.377 24.2508C114.329 25.2798 115.487 25.7942 116.85 25.7942C117.879 25.7942 118.767 25.537 119.513 25.0225C120.284 24.508 120.799 23.7749 121.056 22.8231H126.265C125.802 24.9839 124.735 26.7203 123.062 28.0322C121.39 29.3442 119.332 30.0002 116.889 30.0002Z" fill="white"/>
<path d="M140.182 30.0002C138.253 30.0002 136.542 29.5886 135.05 28.7654C133.558 27.9422 132.387 26.7846 131.539 25.2926C130.69 23.8006 130.265 22.0771 130.265 20.122C130.265 18.1413 130.677 16.3792 131.5 14.8357C132.349 13.2923 133.506 12.0961 134.973 11.2472C136.465 10.3726 138.214 9.93524 140.22 9.93524C142.098 9.93524 143.758 10.3468 145.198 11.17C146.639 11.9932 147.758 13.125 148.555 14.5656C149.378 15.9804 149.79 17.5625 149.79 19.3117C149.79 19.5947 149.777 19.8905 149.751 20.1992C149.751 20.5079 149.738 20.8295 149.713 21.1639H135.166C135.269 22.6559 135.783 23.8263 136.709 24.6752C137.661 25.5241 138.806 25.9486 140.143 25.9486C141.147 25.9486 141.983 25.7299 142.651 25.2926C143.346 24.8296 143.86 24.2379 144.195 23.5176H149.211C148.851 24.7267 148.246 25.8328 147.398 26.8361C146.574 27.8136 145.545 28.5853 144.311 29.1513C143.102 29.7172 141.725 30.0002 140.182 30.0002ZM140.22 13.9482C139.011 13.9482 137.944 14.2955 137.018 14.9901C136.092 15.6589 135.5 16.6879 135.243 18.077H144.774C144.696 16.8165 144.233 15.8132 143.385 15.0672C142.536 14.3212 141.481 13.9482 140.22 13.9482Z" fill="white"/>
</svg>
