<svg width="255" height="52" viewBox="0 0 255 52" fill="none" xmlns="http://www.w3.org/2000/svg">
<path d="M45.2448 41.6793C41.7389 38.4877 37.27 36.0794 32.2342 34.7951L23.8121 13.3402L15.2569 34.8358C10.2932 36.1279 5.886 38.5129 2.4192 41.6641L19.8487 0H27.8735L45.2448 41.6793Z" fill="#DC4646"/>
<path d="M23.6156 37.3988C33.5582 37.3988 42.3468 41.6237 47.6651 48.0882L40.6262 52C36.8639 47.9219 30.9069 45.0836 23.6156 45.0836C16.6225 45.0838 10.8565 47.6943 7.0772 51.5057L0 47.5719C5.35512 41.3989 13.9396 37.3989 23.6156 37.3988Z" fill="#DC4646"/>
<path d="M54.4747 52V18.8262H61.8975L62.6201 23.3073C63.6711 21.7021 65.0506 20.4314 66.7585 19.495C68.5102 18.5141 70.5246 18.0236 72.8018 18.0236C77.838 18.0236 81.4071 20.0078 83.5091 23.9761C84.6915 22.148 86.2681 20.6989 88.2387 19.6288C90.2532 18.5586 92.4428 18.0236 94.8076 18.0236C99.0555 18.0236 102.318 19.3167 104.595 21.9028C106.872 24.4889 108.011 28.2789 108.011 33.2728V52H99.6029V34.0754C99.6029 31.2218 99.0555 29.0369 97.9607 27.5209C96.9097 26.0049 95.2674 25.2469 93.034 25.2469C90.7568 25.2469 88.9175 26.0941 87.5161 27.7885C86.1586 29.4828 85.4798 31.846 85.4798 34.878V52H77.0716V34.0754C77.0716 31.2218 76.5242 29.0369 75.4294 27.5209C74.3346 26.0049 72.6486 25.2469 70.3714 25.2469C68.1379 25.2469 66.3205 26.0941 64.9192 27.7885C63.5616 29.4828 62.8828 31.846 62.8828 34.878V52H54.4747Z" fill="#DC4646"/>
<path d="M131.703 52C128.418 52 125.506 51.2866 122.966 49.8598C120.426 48.4329 118.434 46.4264 116.988 43.8403C115.543 41.2542 114.821 38.2668 114.821 34.878C114.821 31.4447 115.521 28.3904 116.923 25.7151C118.368 23.0398 120.338 20.9664 122.835 19.495C125.375 17.979 128.353 17.221 131.768 17.221C134.965 17.221 137.79 17.9344 140.242 19.3612C142.695 20.7881 144.6 22.75 145.957 25.2469C147.358 27.6993 148.059 30.4415 148.059 33.4735C148.059 33.964 148.037 34.4767 147.993 35.0118C147.993 35.5469 147.972 36.1042 147.928 36.6839H123.163C123.338 39.27 124.214 41.2988 125.791 42.7702C127.411 44.2416 129.36 44.9773 131.637 44.9773C133.345 44.9773 134.768 44.5983 135.907 43.8403C137.089 43.0377 137.965 42.0122 138.534 40.7637H147.074C146.461 42.8594 145.432 44.7767 143.986 46.5156C142.585 48.21 140.833 49.5476 138.731 50.5286C136.673 51.5095 134.33 52 131.703 52ZM131.768 24.1768C129.71 24.1768 127.893 24.7787 126.316 25.9826C124.74 27.1419 123.732 28.9255 123.294 31.3332H139.52C139.388 29.1484 138.6 27.4095 137.155 26.1164C135.71 24.8233 133.914 24.1768 131.768 24.1768Z" fill="#DC4646"/>
<path d="M154.869 52V18.8262H162.357L163.146 25.0463C164.328 22.906 165.926 21.2117 167.941 19.9632C169.999 18.6701 172.408 18.0236 175.167 18.0236V27.0528H172.802C170.962 27.0528 169.32 27.3426 167.875 27.9222C166.43 28.5019 165.291 29.5051 164.459 30.9319C163.671 32.3588 163.277 34.343 163.277 36.8845V52H154.869Z" fill="#DC4646"/>
<path d="M198.99 52C195.661 52 192.727 51.2643 190.187 49.7929C187.647 48.3215 185.633 46.2704 184.144 43.6397C182.699 41.0089 181.976 37.9992 181.976 34.6105C181.976 31.2218 182.699 28.2121 184.144 25.5813C185.633 22.9506 187.647 20.8995 190.187 19.4281C192.727 17.9567 195.661 17.221 198.99 17.221C203.15 17.221 206.653 18.3357 209.5 20.5651C212.346 22.75 214.164 25.782 214.952 29.6612H206.084C205.646 28.056 204.77 26.8075 203.456 25.9157C202.186 24.9794 200.676 24.5112 198.924 24.5112C196.603 24.5112 194.632 25.403 193.012 27.1865C191.392 28.9701 190.581 31.4447 190.581 34.6105C190.581 37.7763 191.392 40.2509 193.012 42.0345C194.632 43.818 196.603 44.7098 198.924 44.7098C200.676 44.7098 202.186 44.2639 203.456 43.3721C204.77 42.4804 205.646 41.2096 206.084 39.5598H214.952C214.164 43.3052 212.346 46.315 209.5 48.589C206.653 50.863 203.15 52 198.99 52Z" fill="#DC4646"/>
<path d="M238.644 52C235.359 52 232.447 51.2866 229.907 49.8598C227.367 48.4329 225.374 46.4264 223.929 43.8403C222.484 41.2542 221.761 38.2668 221.761 34.878C221.761 31.4447 222.462 28.3904 223.863 25.7151C225.309 23.0398 227.279 20.9664 229.775 19.495C232.315 17.979 235.293 17.221 238.709 17.221C241.906 17.221 244.731 17.9344 247.183 19.3612C249.635 20.7881 251.54 22.75 252.898 25.2469C254.299 27.6993 255 30.4415 255 33.4735C255 33.964 254.978 34.4767 254.934 35.0118C254.934 35.5469 254.912 36.1042 254.869 36.6839H230.104C230.279 39.27 231.155 41.2988 232.731 42.7702C234.352 44.2416 236.301 44.9773 238.578 44.9773C240.286 44.9773 241.709 44.5983 242.848 43.8403C244.03 43.0377 244.906 42.0122 245.475 40.7637H254.015C253.402 42.8594 252.372 44.7767 250.927 46.5156C249.526 48.21 247.774 49.5476 245.672 50.5286C243.614 51.5095 241.271 52 238.644 52ZM238.709 24.1768C236.651 24.1768 234.834 24.7787 233.257 25.9826C231.68 27.1419 230.673 28.9255 230.235 31.3332H246.46C246.329 29.1484 245.541 27.4095 244.096 26.1164C242.65 24.8233 240.855 24.1768 238.709 24.1768Z" fill="#DC4646"/>
</svg>
