<svg width="150" height="32" viewBox="0 0 150 32" fill="none" xmlns="http://www.w3.org/2000/svg">
<g clip-path="url(#clip0_265_166)">
<rect width="150" height="32" fill="#696E73"/>
<path d="M0 24.9005L8.16789 2.9377C8.56518 1.93515 9.13775 1.20073 9.8856 0.734425C10.6334 0.244808 11.4865 0 12.4446 0C13.4262 0 14.2909 0.233151 15.0387 0.699453C15.8099 1.16575 16.3825 1.90018 16.7564 2.90273L24.9594 24.9005H20.3671L18.4741 19.4798H6.34501L4.38191 24.9005H0ZM7.607 15.7727H17.2122L13.286 4.33661C13.1925 4.10346 13.0756 3.9286 12.9354 3.81202C12.8186 3.69545 12.6667 3.63716 12.4797 3.63716C12.2927 3.63716 12.1408 3.7071 12.024 3.84699C11.9071 3.96357 11.8136 4.12678 11.7435 4.33661L7.607 15.7727Z" fill="#696E73"/>
<path d="M27.4082 24.9002V14.6183C27.4082 13.0795 27.7587 11.7155 28.4599 10.5265C29.161 9.31411 30.1542 8.36985 31.4396 7.69371C32.7249 6.99426 34.2323 6.64453 35.9617 6.64453C37.6911 6.64453 39.1868 6.99426 40.4488 7.69371C41.7341 8.36985 42.7274 9.31411 43.4285 10.5265C44.1296 11.7155 44.4801 13.0795 44.4801 14.6183V24.9002H40.4838V14.6533C40.4838 13.744 40.2735 12.9512 39.8528 12.2751C39.4322 11.5757 38.8713 11.0394 38.1702 10.6664C37.4924 10.27 36.7446 10.0718 35.9266 10.0718C35.132 10.0718 34.3842 10.27 33.6831 10.6664C33.0054 11.0394 32.4562 11.5757 32.0355 12.2751C31.6382 12.9512 31.4396 13.744 31.4396 14.6533V24.9002H27.4082Z" fill="#696E73"/>
<path d="M55.9344 25.3202C54.9996 25.3202 54.1583 25.0638 53.4104 24.5508C52.686 24.0379 52.1601 23.3501 51.833 22.4874L46.3643 7.06445H50.7462L55.4086 20.9137C55.4787 21.0769 55.5605 21.1934 55.654 21.2634C55.7475 21.3333 55.8526 21.3683 55.9695 21.3683C56.0863 21.3683 56.1915 21.3333 56.285 21.2634C56.4018 21.1934 56.4836 21.0769 56.5304 20.9137L61.2278 7.06445H65.5396L60.0359 22.4874C59.7321 23.3501 59.2063 24.0379 58.4584 24.5508C57.7106 25.0638 56.8692 25.3202 55.9344 25.3202Z" fill="#696E73"/>
<path d="M76.3231 25.3199C74.4769 25.3199 72.8409 24.9119 71.4154 24.0959C69.9898 23.2565 68.8563 22.1374 68.015 20.7385C67.197 19.3163 66.7881 17.7308 66.7881 15.9822C66.7881 14.2336 67.197 12.6598 68.015 11.2609C68.8563 9.8387 69.9898 8.71957 71.4154 7.90354C72.8409 7.0642 74.4769 6.64453 76.3231 6.64453C78.146 6.64453 79.7702 7.0642 81.1958 7.90354C82.6214 8.71957 83.7431 9.8387 84.5611 11.2609C85.4024 12.6598 85.8231 14.2336 85.8231 15.9822C85.8231 17.7308 85.4024 19.3163 84.5611 20.7385C83.7431 22.1374 82.6214 23.2565 81.1958 24.0959C79.7702 24.9119 78.146 25.3199 76.3231 25.3199ZM76.3231 21.8926C77.4215 21.8926 78.3797 21.6361 79.1976 21.1232C80.0156 20.587 80.6466 19.8758 81.0906 18.9899C81.5347 18.0806 81.7567 17.078 81.7567 15.9822C81.7567 14.8864 81.5347 13.8955 81.0906 13.0095C80.6466 12.1002 80.0156 11.3891 79.1976 10.8762C78.3797 10.34 77.4215 10.0718 76.3231 10.0718C75.2013 10.0718 74.2315 10.34 73.4135 10.8762C72.6189 11.3891 71.9879 12.1002 71.5205 13.0095C71.0765 13.8955 70.8545 14.8864 70.8545 15.9822C70.8545 17.078 71.0765 18.0806 71.5205 18.9899C71.9879 19.8758 72.6189 20.587 73.4135 21.1232C74.2315 21.6361 75.2013 21.8926 76.3231 21.8926Z" fill="#696E73"/>
<path d="M98.199 25.3202C96.4696 25.3202 94.9622 24.9822 93.6768 24.306C92.3915 23.6066 91.3982 22.6506 90.6971 21.4383C89.996 20.2259 89.6455 18.8619 89.6455 17.3464V7.06445H93.6768V17.3115C93.6768 18.2208 93.8755 19.0251 94.2728 19.7246C94.6934 20.4007 95.2426 20.937 95.9203 21.3333C96.6215 21.7064 97.381 21.8929 98.199 21.8929C99.0169 21.8929 99.7647 21.7064 100.442 21.3333C101.144 20.937 101.693 20.4007 102.09 19.7246C102.511 19.0251 102.721 18.2208 102.721 17.3115V7.06445H106.752V17.3464C106.752 18.8619 106.39 20.2259 105.666 21.4383C104.965 22.6506 103.971 23.6066 102.686 24.306C101.424 24.9822 99.9283 25.3202 98.199 25.3202Z" fill="#696E73"/>
<path d="M114.289 31.9997V28.5724H123.263C123.87 28.5724 124.338 28.3859 124.665 28.0128C125.015 27.6398 125.191 27.1735 125.191 26.6139V21.9975H125.156C124.642 22.627 124.092 23.1749 123.508 23.6412C122.924 24.0842 122.258 24.4339 121.51 24.6904C120.785 24.9236 119.979 25.0401 119.091 25.0401C117.455 25.0401 115.995 24.6554 114.709 23.886C113.424 23.1166 112.407 22.0441 111.659 20.6686C110.935 19.2696 110.573 17.6726 110.573 15.8773C110.573 14.1287 110.935 12.5665 111.659 11.191C112.407 9.79207 113.471 8.6846 114.849 7.86857C116.228 7.05254 117.911 6.64453 119.897 6.64453C121.79 6.64453 123.426 7.04089 124.805 7.8336C126.207 8.62631 127.294 9.74544 128.065 11.191C128.836 12.6132 129.222 14.2802 129.222 16.1921V26.7888C129.222 28.3975 128.755 29.6682 127.82 30.6008C126.885 31.5334 125.611 31.9997 123.999 31.9997H114.289ZM119.862 21.6128C120.937 21.6128 121.86 21.368 122.632 20.8784C123.426 20.3655 124.034 19.6893 124.455 18.85C124.899 17.9873 125.121 17.0314 125.121 15.9822C125.121 14.8631 124.91 13.8605 124.49 12.9746C124.069 12.0886 123.461 11.3891 122.667 10.8762C121.896 10.34 120.961 10.0718 119.862 10.0718C118.787 10.0718 117.852 10.34 117.058 10.8762C116.287 11.3891 115.691 12.0886 115.27 12.9746C114.849 13.8372 114.639 14.8165 114.639 15.9123C114.639 16.9615 114.849 17.9174 115.27 18.78C115.691 19.6427 116.287 20.3305 117.058 20.8434C117.852 21.3564 118.787 21.6128 119.862 21.6128Z" fill="#696E73"/>
<path d="M142.954 24.9002C140.944 24.9002 139.18 24.5272 137.661 23.7811C136.165 23.0117 134.996 21.9625 134.155 20.6336C133.314 19.2813 132.893 17.7308 132.893 15.9822C132.893 14.1403 133.267 12.5199 134.015 11.121C134.763 9.72212 135.791 8.62631 137.1 7.8336C138.408 7.04089 139.916 6.64453 141.622 6.64453C143.538 6.64453 145.116 7.05254 146.354 7.86857C147.593 8.6846 148.504 9.78041 149.089 11.156C149.696 12.5316 150 14.0704 150 15.7724C150 16.0055 149.988 16.2737 149.965 16.5768C149.942 16.8798 149.907 17.113 149.86 17.2762H137.17C137.31 18.2088 137.649 18.9899 138.186 19.6194C138.724 20.2256 139.402 20.6919 140.22 21.0183C141.038 21.3214 141.949 21.4729 142.954 21.4729H147.756V24.9002H142.954ZM137.135 14.5483H145.969C145.945 14.1053 145.875 13.6624 145.758 13.2194C145.665 12.7764 145.501 12.3567 145.268 11.9604C145.057 11.564 144.777 11.2259 144.426 10.9461C144.099 10.6431 143.702 10.4099 143.234 10.2467C142.767 10.0602 142.229 9.96693 141.622 9.96693C140.921 9.96693 140.301 10.1068 139.764 10.3866C139.226 10.6431 138.771 10.9928 138.397 11.4358C138.023 11.8554 137.731 12.3451 137.52 12.9046C137.333 13.4409 137.205 13.9888 137.135 14.5483Z" fill="#696E73"/>
</g>
<defs>
<clipPath id="clip0_265_166">
<rect width="150" height="32" fill="white"/>
</clipPath>
</defs>
</svg>
