<svg width="128" height="36" viewBox="0 0 128 36" fill="none" xmlns="http://www.w3.org/2000/svg">
<g clip-path="url(#clip0_281_2085)">
<rect width="128" height="36" fill="#696E73"/>
<path d="M14.234 29.6642C13.2426 31.123 12.1541 32.2861 10.9634 33.1665C9.77282 34.0405 8.60164 34.4839 7.45475 34.4839C5.85592 34.4839 4.6653 33.6614 3.87803 32.0098C3.09076 30.3583 2.69712 28.3147 2.69712 25.8727C2.69712 22.6017 3.29973 19.0352 4.50007 15.1665C5.70041 11.2979 7.19233 8.03336 8.97097 5.37288C10.7496 2.7124 12.4116 1.38216 13.9619 1.38216C14.5256 1.38216 14.9387 1.56209 15.2108 1.91554C15.483 2.27541 15.6142 2.76381 15.6142 3.38716C15.6142 4.54389 15.2205 6.02193 14.4333 7.80201C13.646 9.58852 12.8344 11.1051 12.0034 12.3518C12.2513 13.0394 12.6012 13.38 13.0482 13.38C13.6314 13.38 14.2292 12.8466 14.8366 11.7735C15.4441 10.7003 15.9495 9.40858 16.3528 7.89198C16.7562 6.37538 16.9603 5.03871 16.9603 3.87555C16.9603 2.56459 16.6833 1.60065 16.1341 0.977299C15.585 0.35395 14.822 0.0390625 13.855 0.0390625C11.7653 0.0390625 9.63675 1.31147 7.47905 3.85627C5.32135 6.40108 3.53299 9.62707 2.11396 13.5343C0.709514 17.4479 0 21.3101 0 25.1144C0 27.0487 0.228405 28.8417 0.690075 30.4932C1.15174 32.1448 1.8807 33.475 2.88179 34.4839C3.88289 35.4929 5.13669 36.0005 6.64319 36.0005C8.78145 36.0005 10.7545 35.0109 12.5623 33.0316C14.3749 31.0523 15.8863 28.4882 17.1012 25.3393L16.6298 24.8959C16.0224 26.6182 15.2254 28.2119 14.234 29.6642Z" fill="#696E73"/>
<path d="M35.1172 30.0892C34.1258 31.3231 33.3046 31.94 32.6534 31.94C32.2694 31.94 31.9827 31.7408 31.7932 31.3359C31.6037 30.9375 31.5065 30.4812 31.5065 29.9736C31.5065 29.408 31.6182 28.7911 31.8418 28.1228C32.0653 27.4545 32.3715 26.6897 32.7506 25.8222C32.7943 25.7322 32.9255 25.4302 33.1393 24.9096C33.3532 24.3891 33.4601 24.01 33.4601 23.7722C33.4601 23.4766 33.3094 23.2324 33.0033 23.0332C32.702 22.8404 32.4007 22.7119 32.1091 22.654C30.7143 25.3595 29.412 27.6601 28.197 29.543C26.9821 31.4323 25.9227 32.377 25.0237 32.377C24.4162 32.377 24.1149 31.7986 24.1149 30.6355C24.1149 29.1767 24.4794 27.4416 25.2132 25.4173C25.9421 23.393 26.8558 21.6579 27.9443 20.1992C29.0329 18.7404 30.0729 18.0142 31.0642 18.0142C31.628 18.0142 32.041 18.2456 32.3132 18.7083C32.5853 19.171 32.7165 19.7686 32.7165 20.5141C32.7165 21.0217 32.6582 21.5423 32.5464 22.0757C33.0616 22.0757 33.4698 21.9279 33.7614 21.6322C34.0529 21.3366 34.1987 20.8418 34.1987 20.1606C34.1987 19.1774 33.9072 18.3741 33.324 17.7508C32.7408 17.1274 32.007 16.8125 31.1323 16.8125C29.7375 16.8125 28.3088 17.5708 26.846 19.0874C25.3833 20.604 24.1732 22.4484 23.2207 24.6205C22.2634 26.7925 21.7871 28.7526 21.7871 30.5069C21.7871 31.6958 22.0155 32.6083 22.4772 33.251C22.9389 33.8872 23.5415 34.2085 24.2801 34.2085C25.0674 34.2085 25.8595 33.7908 26.6565 32.9618C27.4535 32.1264 28.3623 30.8218 29.3731 29.0353C29.305 29.5109 29.271 29.9414 29.271 30.327C29.271 31.1881 29.48 31.9271 29.8931 32.5376C30.311 33.1481 30.9087 33.4502 31.696 33.4502C32.4833 33.4502 33.3046 33.1096 34.1599 32.422C35.0152 31.7408 35.8122 30.7768 36.5557 29.543C37.2992 28.3091 37.9067 26.9018 38.3781 25.3274L38.0427 24.8839C37.0854 27.1267 36.1086 28.8554 35.1172 30.0892Z" fill="#696E73"/>
<path d="M55.1586 27.9499C54.5074 29.0038 53.793 29.8906 53.0155 30.6039C52.2379 31.3173 51.5139 31.6771 50.8384 31.6771C50.1629 31.6771 49.8275 31.2337 49.8275 30.3405C49.8275 29.7171 50.0754 28.6889 50.5711 27.2623C50.887 26.2212 51.1202 25.3794 51.2806 24.7432C51.4361 24.107 51.5187 23.4579 51.5187 22.8024C51.5187 21.7935 51.3195 20.9645 50.9307 20.3283C50.5371 19.6857 49.9928 19.0431 49.293 18.3876C48.8653 18.002 48.5543 17.6807 48.3648 17.4301C48.1753 17.1794 48.0781 16.9031 48.0781 16.6075C48.1024 16.4597 48.1655 16.1769 48.2822 15.7592C48.3939 15.3415 48.4523 15.078 48.4523 14.9559C48.4523 14.2426 48.2967 13.8828 47.9809 13.8828C47.8448 13.8828 47.6601 14.0177 47.422 14.2812C47.1839 14.5511 46.9846 14.9238 46.8145 15.3994C46.6445 15.8749 46.5618 16.3826 46.5618 16.916C46.5618 17.3337 46.6736 17.6871 46.8972 17.9892C46.1536 20.8746 45.2449 23.7021 44.166 26.4654L44.4673 27.2237C44.8512 26.3626 45.3226 25.1352 45.8863 23.5415C46.4501 21.9542 46.9749 20.3219 47.4706 18.6575C47.5824 18.7475 47.7962 18.9338 48.1121 19.2166C48.428 19.4993 48.7147 19.8592 48.9722 20.2898C49.2298 20.7203 49.361 21.3115 49.361 22.0506C49.361 22.5582 49.2881 23.098 49.1423 23.6764C48.9965 24.2548 48.7779 25.0388 48.4863 26.0156C47.8351 27.9178 47.5095 29.3765 47.5095 30.3854C47.5095 31.2466 47.7282 31.947 48.1655 32.4804C48.6029 33.0138 49.2055 33.2837 49.9685 33.2837C51.3195 33.2837 52.6559 32.4933 53.9826 30.9188C55.3093 29.3444 56.3201 27.5258 57.0199 25.4758L56.5825 25.0324C56.2812 25.9192 55.8098 26.896 55.1586 27.9499Z" fill="#696E73"/>
<path d="M73.9795 27.4597C73.2845 27.9802 72.609 28.2373 71.9578 28.2373C71.5059 28.2373 71.0831 28.0895 70.6749 27.7939C71.3504 26.4572 71.8947 25.082 72.3126 23.6682C72.7305 22.2544 72.9346 20.982 72.9346 19.8574C72.9346 18.7842 72.7597 17.9488 72.4098 17.3383C72.0599 16.7278 71.4573 16.4258 70.6068 16.4258C69.596 16.4258 68.7893 16.9784 68.1964 18.0773C67.5987 19.1762 67.3023 20.5 67.3023 22.0488C67.3023 23.2376 67.4772 24.3815 67.8271 25.4868C68.177 26.5857 68.663 27.479 69.2947 28.1666C68.663 29.2398 68.0215 30.1009 67.3703 30.7564C66.7191 31.4119 66.1554 31.7396 65.684 31.7396C64.8724 31.7396 64.4691 30.8913 64.4691 29.1948C64.4691 28.4815 64.61 27.5497 64.8919 26.4058C65.1737 25.2619 65.5042 24.1823 65.8881 23.1734C66.272 22.1644 66.5976 21.509 66.8649 21.2134C66.5927 21.0656 66.3595 20.9884 66.1554 20.9884C65.5479 20.9884 64.9405 21.4319 64.333 22.3251C63.7255 23.2184 63.2298 24.3301 62.8508 25.6732C62.4669 27.0099 62.2773 28.2887 62.2773 29.5097C62.2773 30.7307 62.4912 31.7139 62.9188 32.4529C63.3465 33.1984 64.022 33.5711 64.9453 33.5711C65.7569 33.5711 66.617 33.1405 67.5258 32.2794C68.4346 31.4183 69.2947 30.2873 70.1063 28.8863C70.5777 29.1819 71.1171 29.3297 71.7246 29.3297C72.5556 29.3297 73.3671 29.0149 74.1544 28.3915C74.9417 27.7682 75.5491 26.8042 75.9768 25.4933L75.5734 25.0498C75.2041 26.1295 74.6793 26.9392 73.9795 27.4597ZM69.8973 26.9906C69.5134 26.3929 69.2267 25.6732 69.0372 24.8249C68.8476 23.9767 68.7504 23.0898 68.7504 22.1709C68.7504 21.3355 68.8574 20.5707 69.0712 19.8703C69.285 19.1698 69.5523 18.6236 69.8828 18.2187C70.2084 17.8203 70.5291 17.6146 70.845 17.6146C71.1366 17.6146 71.3795 17.8203 71.5691 18.238C71.7586 18.6557 71.8558 19.279 71.8558 20.1145C71.8558 21.1234 71.676 22.2351 71.3164 23.4369C70.9567 24.645 70.4854 25.8274 69.8973 26.9906Z" fill="#696E73"/>
<path d="M92.2645 0C91.5016 0 90.2575 1.84434 88.5372 5.53303C86.8168 9.22171 85.2569 13.3602 83.867 17.955C82.4723 22.5498 81.7773 26.1871 81.7773 28.8604C81.7773 30.2613 81.996 31.3731 82.4334 32.2085C82.8708 33.0439 83.5511 33.4552 84.4745 33.4552C86.7682 33.4552 88.8822 30.7176 90.8164 25.2489L90.3109 24.8954C89.6354 26.8554 88.8676 28.5391 87.9977 29.9336C87.1327 31.3345 86.2823 32.0286 85.4513 32.0286C84.4599 32.0286 83.9691 30.8847 83.9691 28.5905C83.9691 27.3117 84.1149 25.8079 84.4064 24.0857C85.9567 22.3892 87.4194 20.1785 88.7899 17.4409C90.1603 14.7033 91.2683 12.0043 92.1139 9.34381C92.9595 6.68333 93.3774 4.66548 93.3774 3.29668C93.3774 2.55123 93.2705 1.81864 93.0567 1.08604C92.8428 0.366298 92.5756 0 92.2645 0ZM91.2148 9.25384C90.4713 11.5287 89.5091 13.9065 88.3331 16.3934C87.1522 18.874 85.9421 20.9368 84.7077 22.5691C85.2909 19.8893 86.1025 17.081 87.1376 14.1378C88.1727 11.1946 89.1786 8.70118 90.1554 6.66405C91.1322 4.62692 91.7786 3.60514 92.0944 3.60514C92.25 3.60514 92.3326 3.84291 92.3326 4.31846C92.3326 5.34024 91.9584 6.97894 91.2148 9.25384Z" fill="#696E73"/>
<path d="M101.863 12.4685C102.121 12.7191 102.451 12.8476 102.86 12.8476C103.399 12.8476 103.9 12.5906 104.362 12.07C104.823 11.5495 105.052 11.0097 105.052 10.4442C105.052 9.52519 104.682 9.0625 103.939 9.0625C103.375 9.0625 102.826 9.30027 102.286 9.77581C101.747 10.2514 101.475 10.7848 101.475 11.3824C101.475 11.8515 101.601 12.2178 101.863 12.4685Z" fill="#696E73"/>
<path d="M99.9551 31.7212C99.3719 31.7212 98.9491 31.5349 98.6915 31.1622C98.4339 30.7894 98.3027 30.0825 98.3027 29.0415C98.3027 27.8848 98.5214 26.6573 98.9588 25.3592C99.3962 24.0675 99.9892 22.6024 100.728 20.9637C101.447 19.3892 101.807 18.3931 101.807 17.9754C101.807 17.6798 101.734 17.4421 101.588 17.2621C101.442 17.0822 101.267 16.9922 101.063 16.9922C100.344 16.9922 99.6052 17.7634 98.8519 19.3121C98.0986 20.8608 97.4668 22.6602 96.9613 24.7102C96.4559 26.7602 96.2031 28.3667 96.2031 29.5299C96.2031 30.6288 96.4267 31.5285 96.8787 32.2289C97.3307 32.9294 97.9673 33.2764 98.8033 33.2764C100.154 33.2764 101.442 32.5759 102.667 31.1814C103.892 29.7805 104.82 27.8333 105.452 25.3399L105.151 24.8965C103.445 29.4463 101.71 31.7212 99.9551 31.7212Z" fill="#696E73"/>
<path d="M125.274 29.8435C124.453 31.1802 123.66 31.8485 122.898 31.8485C122.222 31.8485 121.887 31.283 121.887 30.152C121.887 29.6764 121.945 29.2009 122.057 28.7254C122.169 28.2498 122.329 27.6843 122.528 27.0288C122.776 26.2577 122.961 25.5701 123.087 24.9788C123.209 24.3812 123.272 23.7578 123.272 23.1024C123.272 22.0035 123.063 21.0588 122.65 20.2684C122.232 19.4779 121.61 19.0859 120.779 19.0859C119.607 19.0859 118.417 19.8442 117.202 21.3608C115.987 22.8774 114.84 24.7346 113.761 26.9388C114.077 25.6921 114.335 24.5097 114.539 23.3915C114.743 22.2734 114.84 21.4958 114.84 21.0524C114.84 20.2812 114.539 19.8956 113.931 19.8956C113.64 19.8956 113.348 19.992 113.052 20.1848C112.76 20.3776 112.537 20.5961 112.376 20.8339C112.352 22.0549 112.162 23.443 111.803 25.0045C111.443 26.5661 110.982 28.3012 110.418 30.2034C110.126 31.1288 109.98 31.6622 109.98 31.81C110.16 32.1377 110.408 32.3819 110.724 32.549C111.04 32.7096 111.385 32.7932 111.769 32.7932C112.692 30.7432 113.518 28.9888 114.247 27.5301C114.976 26.0713 115.812 24.7475 116.745 23.5586C117.678 22.3698 118.572 21.7721 119.428 21.7721C120.327 21.7721 120.779 22.4983 120.779 23.9571C120.779 24.4326 120.73 24.966 120.628 25.5636C120.526 26.1613 120.409 26.7204 120.273 27.2602C120.162 27.7678 120.055 28.2819 119.953 28.796C119.85 29.3166 119.802 29.7728 119.802 30.1584C119.802 31.0195 120.006 31.7136 120.409 32.2341C120.813 32.7546 121.401 33.0117 122.164 33.0117C124.433 33.0117 126.382 30.499 128 25.4737L127.631 24.8953C126.878 26.8553 126.095 28.5069 125.274 29.8435Z" fill="#696E73"/>
</g>
<defs>
<clipPath id="clip0_281_2085">
<rect width="128" height="36" fill="white"/>
</clipPath>
</defs>
</svg>
