<svg width="109" height="44" viewBox="0 0 109 44" fill="none" xmlns="http://www.w3.org/2000/svg">
<g clip-path="url(#clip0_281_2094)">
<rect width="109" height="44" fill="#696E73"/>
<path d="M4.26256 33.9718C2.8117 32.9432 1.73679 31.6102 1.04314 29.9675C0.349477 28.3249 0 26.551 0 24.646C0 20.8621 0.937233 17.0573 2.82229 13.2262C4.70205 9.39505 7.10603 6.2462 10.0395 3.76386C12.9677 1.28677 15.9171 0.0429688 18.877 0.0429688C20.2697 0.0429688 21.3869 0.36835 22.2288 1.00862C23.0708 1.65413 23.4944 2.66701 23.4944 4.04726C23.4944 5.22283 23.219 6.57159 22.6736 8.09878C22.1282 9.62597 21.4293 10.9223 20.5874 11.9929C19.7454 13.0635 18.8929 13.5988 18.0351 13.5988C17.2938 13.5988 16.6902 13.1422 16.2136 12.2343C17.3362 11.001 18.427 9.53675 19.4754 7.83112C20.5238 6.13075 21.0533 4.7505 21.0533 3.69564C21.0533 2.55155 20.3862 1.97951 19.0571 1.97951C16.9867 1.97951 14.7892 3.22856 12.4647 5.7214C10.1401 8.21423 8.20212 11.2791 6.65065 14.9213C5.09919 18.5582 4.3208 21.9327 4.3208 25.0449C4.3208 27.3907 4.85561 29.3745 5.91993 30.9857C6.98424 32.5968 8.59925 33.405 10.7597 33.405C12.3005 33.405 13.8679 32.9747 15.467 32.1088C17.0661 31.2428 18.5329 30.0935 19.8619 28.6555C21.1963 27.2176 22.2606 25.6641 23.0602 23.99L24.2145 24.7405C22.5254 27.9103 20.4338 30.4976 17.9345 32.5076C15.4352 34.5176 12.6871 35.5253 9.70063 35.5253C7.51905 35.5148 5.71342 35.0005 4.26256 33.9718Z" fill="#696E73"/>
<path d="M22.6401 31.9496C22.3436 31.0102 22.1953 29.8242 22.1953 28.3862C22.1953 25.7464 23.0319 22.162 24.7052 17.6276C26.3784 13.0933 28.2953 9.068 30.4557 5.54654C32.6161 2.02507 34.3793 0.261719 35.7402 0.261719C36.3332 0.261719 36.7992 0.5871 37.1381 1.23261C37.477 1.87813 37.6464 2.59711 37.6464 3.38958C37.6464 4.73833 37.1487 6.54367 36.1585 8.80035C35.1683 11.057 33.8657 13.2402 32.2507 15.3342C30.6357 17.4334 28.973 18.9816 27.2574 19.9788C26.2514 22.6185 25.7483 25.1114 25.7483 27.4625L25.7907 28.3862C25.8489 28.297 25.9813 27.9768 26.1931 27.4205C26.7862 25.8933 27.4057 24.5183 28.057 23.285C28.7083 22.0518 29.6032 20.9024 30.7416 19.8318C31.8801 18.7612 33.2038 18.2259 34.7129 18.2259C36.0738 18.2259 37.064 18.6615 37.6888 19.5222C38.3083 20.3881 38.6207 21.4062 38.6207 22.5818C38.6207 23.2588 38.5307 23.8886 38.356 24.4711C38.1759 25.0589 37.9112 25.8041 37.5564 26.7173C37.4982 26.8328 37.387 27.1057 37.2228 27.5307C37.0587 27.9558 36.9422 28.339 36.868 28.6748C36.7939 29.0107 36.7568 29.3151 36.7568 29.5775C36.7568 30.5169 37.154 30.984 37.9535 30.984C38.6048 30.984 39.3726 30.6586 40.2622 30.0131C41.1518 29.3676 42.0255 28.5016 42.8833 27.4153C43.7411 26.3289 44.4824 25.1586 45.1019 23.8938L45.8115 24.6443C44.7154 27.0479 43.3916 29.0002 41.8401 30.4959C40.2887 31.9916 38.6207 32.7421 36.8469 32.7421C35.7508 32.7421 34.8983 32.4587 34.2946 31.8867C33.6857 31.3146 33.3839 30.5746 33.3839 29.6615C33.3839 29.0737 33.5904 28.0188 34.0034 26.4916C34.4482 25.0537 34.6706 23.983 34.6706 23.2798C34.6706 22.0465 34.1358 21.4325 33.0715 21.4325C32.0071 21.4325 31.1123 21.9835 30.3868 23.0804C29.6614 24.1825 28.8407 25.8041 27.9246 27.9453C27.1833 29.7664 26.532 31.1204 25.9707 32.0179C25.4094 32.9153 24.7581 33.3614 24.0168 33.3614C23.3973 33.3561 22.9366 32.889 22.6401 31.9496ZM31.7 12.9358C32.8226 11.204 33.7439 9.52458 34.4535 7.89768C35.163 6.27077 35.5178 5.10045 35.5178 4.39721C35.163 4.54415 34.5276 5.25264 33.6116 6.53318C32.6955 7.80846 31.7318 9.40912 30.7257 11.3299C29.7197 13.2507 28.8724 15.1925 28.1947 17.1605C29.4072 16.0742 30.5722 14.6677 31.7 12.9358Z" fill="#696E73"/>
<path d="M44.7091 32.1236C43.6713 31.1265 43.1523 29.8512 43.1523 28.2925C43.1523 26.5922 43.7295 24.7501 44.8838 22.7716C46.0382 20.793 47.5155 19.1346 49.3211 17.7964C51.1268 16.4634 52.9006 15.7969 54.648 15.7969C55.5641 15.7969 56.3371 16.0225 56.9567 16.4791C57.5762 16.9357 57.8886 17.6914 57.8886 18.7463C57.8886 20.1528 57.3379 21.4805 56.2471 22.7296C55.151 23.9786 53.7373 24.9967 52.0058 25.7892C50.2743 26.5817 48.5057 27.0802 46.7001 27.2849C46.6418 27.5788 46.61 27.9147 46.61 28.2978C46.61 29.0588 46.8218 29.825 47.256 30.586C47.685 31.3469 48.6116 31.73 50.0307 31.73C51.8363 31.73 53.679 31.0058 55.5588 29.5521C57.4385 28.0984 58.9529 26.2878 60.1073 24.1151L60.9968 24.8183C59.8107 27.4581 58.1163 29.5888 55.9135 31.2C53.7055 32.8111 51.4233 33.6193 49.0511 33.6193C47.1925 33.6193 45.7417 33.1208 44.7091 32.1236ZM50.7667 24.3775C52.0852 23.6427 53.2024 22.7401 54.1185 21.6695C55.0346 20.5989 55.4952 19.5492 55.4952 18.5206C55.4952 18.2005 55.437 17.9801 55.3152 17.8594C55.1987 17.7439 55.0028 17.6809 54.738 17.6809C53.8802 17.6809 52.9377 18.085 51.921 18.8932C50.8991 19.7014 49.9618 20.7196 49.0987 21.9529C48.2409 23.1862 47.6055 24.4195 47.1872 25.6475C48.2621 25.5373 49.4535 25.1122 50.7667 24.3775Z" fill="#696E73"/>
<path d="M64.6006 31.9708C63.9175 31.3988 63.5787 30.6273 63.5787 29.6617C63.5787 29.1054 63.6899 28.4966 63.9122 27.8353C64.1346 27.1741 64.4682 26.3764 64.913 25.437C65.2943 24.6183 65.5908 23.9203 65.8026 23.3482C66.0091 22.7762 66.115 22.2724 66.115 21.8315C66.115 20.7189 65.3737 19.7795 63.8964 19.0133C63.3033 20.4828 62.6149 21.9627 61.8313 23.4584C61.0476 24.9541 60.3434 26.2137 59.7238 27.2423L59.0566 25.967C60.4175 23.5634 61.6195 20.9079 62.652 18.0004C62.3555 17.7065 62.2072 17.3129 62.2072 16.8144C62.2072 16.0534 62.4455 15.3344 62.9168 14.6574C63.388 13.9804 63.8487 13.6445 64.2935 13.6445C64.59 13.6445 64.8336 13.823 65.0242 14.1746C65.2148 14.5262 65.3102 14.8201 65.3102 15.0563C65.3102 15.1717 65.2466 15.4289 65.1089 15.8277C64.9766 16.2213 64.8813 16.51 64.823 16.6832C64.8548 16.8878 64.9713 17.0873 65.1778 17.2762C65.3843 17.4704 65.7708 17.738 66.3321 18.0896C67.37 18.7666 68.1748 19.4174 68.752 20.0472C69.3291 20.6769 69.6204 21.5219 69.6204 22.5768C69.6204 23.2223 69.5092 23.8678 69.2868 24.5133C69.0644 25.1588 68.7308 25.9355 68.286 26.8434C67.6347 28.1345 67.3064 29.0581 67.3064 29.6144C67.3064 30.2914 67.6771 30.6273 68.4184 30.6273C69.308 30.6273 70.277 30.2757 71.3254 29.5724C72.3738 28.8692 73.3375 28.0085 74.2112 26.9956C75.0849 25.9828 75.7309 25.0381 76.1439 24.1564L77.2083 24.9489C76.6152 26.2662 75.7892 27.5309 74.7196 28.7328C73.6552 29.9346 72.4638 30.9212 71.1454 31.6822C69.8269 32.4431 68.5349 32.8263 67.2588 32.8263C66.1733 32.8263 65.2837 32.5429 64.6006 31.9708Z" fill="#696E73"/>
<path d="M75.1709 43.2819C74.5779 42.7991 74.2812 42.0853 74.2812 41.1459C74.2812 40.0018 74.7208 38.9627 75.5892 38.0233C76.4629 37.0839 77.4743 36.2915 78.6286 35.6459C79.783 35.0004 81.2762 34.25 83.1136 33.3998C83.6166 32.1402 84.3262 29.8521 85.2422 26.5353C84.1779 28.031 83.1348 29.2065 82.1128 30.0567C81.0909 30.9069 80.0054 31.332 78.851 31.332C77.8714 31.332 76.9976 31.0381 76.2299 30.4503C75.4621 29.8626 75.0756 28.9389 75.0756 27.6794C75.0756 26.6822 75.3139 25.4122 75.7852 23.8745C76.2564 22.3316 76.823 20.9828 77.4743 19.823C78.1256 18.6632 78.6869 18.0859 79.1634 18.0859C79.46 18.0859 79.9048 18.2381 80.4978 18.5477C81.0909 18.8573 81.4455 19.188 81.562 19.5396C81.0007 20.3006 80.3866 21.5811 79.7194 23.3654C79.0522 25.155 78.7187 26.5615 78.7187 27.5901C78.7187 28.6765 79.1476 29.217 80.0054 29.217C80.8949 29.217 81.8533 28.7027 82.8912 27.6741C83.929 26.6455 84.9192 25.3859 85.867 23.8902C85.9253 23.6856 86.0153 23.2027 86.1318 22.4365C86.2483 21.6755 86.5183 21.0038 86.9314 20.4318C87.3444 19.8597 87.9374 19.5763 88.7052 19.5763C88.8217 19.5763 89.2983 19.634 90.1243 19.7548C90.0925 20.4895 89.7484 22.0849 89.0812 24.5515C88.414 27.0181 87.6356 29.4217 86.7513 31.7676C88.2022 31.1798 89.5683 30.2876 90.8603 29.0806C92.147 27.8788 93.1637 26.2939 93.8997 24.3258L94.6569 24.9399C94.0374 26.9656 92.9625 28.666 91.4375 30.0462C89.9125 31.4265 88.1598 32.5548 86.1742 33.4365C84.7815 36.6956 83.3677 39.2671 81.9328 41.1617C80.4978 43.0562 78.9516 44.0009 77.2943 44.0009C76.4735 44.0061 75.764 43.7647 75.1709 43.2819ZM79.3011 40.5109C80.3072 39.2619 81.2974 37.5405 82.277 35.3416C80.5613 36.1917 79.0893 37.1311 77.8608 38.1598C76.6324 39.1884 76.0181 40.1855 76.0181 41.1512C76.0181 41.4766 76.087 41.76 76.2194 42.0066C76.3517 42.2585 76.5688 42.3792 76.8654 42.3792C77.4796 42.3792 78.295 41.7547 79.3011 40.5109Z" fill="#696E73"/>
<path d="M93.9091 31.7299C93.3161 30.8797 93.0195 29.7514 93.0195 28.3396C93.0195 25.6421 93.9462 22.0314 95.7942 17.5128C97.6422 12.9942 99.7231 8.94798 102.032 5.36879C104.34 1.7896 106.04 0 107.136 0C107.639 0 108.068 0.388358 108.423 1.16507C108.778 1.94179 108.968 2.729 109 3.52146C109 4.87022 108.455 6.8435 107.359 9.4413C106.263 12.0391 104.791 14.6736 102.943 17.3397C101.089 20.0109 99.1142 22.1679 97.012 23.8105C96.6837 25.6316 96.5249 27.0066 96.5249 27.946C96.5249 28.9747 96.6943 29.7356 97.0332 30.2342C97.3721 30.7328 97.8381 30.9847 98.4311 30.9847C99.469 30.9847 100.57 30.3024 101.741 28.9379C102.911 27.5734 103.954 25.9255 104.87 23.989L105.934 24.561C104.632 27.2323 103.197 29.3053 101.629 30.7852C100.062 32.2652 98.4311 33.0104 96.7473 33.0104C95.4447 33.0052 94.4969 32.5801 93.9091 31.7299ZM102.323 15.0935C103.726 12.8053 104.854 10.6326 105.696 8.58061C106.538 6.52861 106.962 5.00142 106.962 4.00429C106.575 4.00429 105.802 4.90171 104.632 6.6913C103.461 8.4809 102.233 10.7061 100.946 13.3564C99.6596 16.0119 98.6165 18.5887 97.8169 21.0815C99.4107 19.3759 100.915 17.3816 102.323 15.0935Z" fill="#696E73"/>
</g>
<defs>
<clipPath id="clip0_281_2094">
<rect width="109" height="44" fill="white"/>
</clipPath>
</defs>
</svg>
