<svg width="97" height="32" viewBox="0 0 97 32" fill="none" xmlns="http://www.w3.org/2000/svg">
<g clip-path="url(#clip0_265_174)">
<rect width="97" height="32" fill="#696E73"/>
<path d="M9.9209 11.0862H19.2295V2.19336H9.9209V11.0862Z" fill="#696E73"/>
<path d="M0.616211 19.9768H9.92481V11.084H0.616211V19.9768Z" fill="#696E73"/>
<path d="M26.2979 18.384L28.8905 0.868164H42.1472L41.0246 4.95351H33.7816L33.3272 7.91538H40.0357L39.4745 11.822H32.7659L31.777 18.384H26.2979Z" fill="#696E73"/>
<path d="M42.7373 18.384L44.6349 5.33648H49.9001L47.9758 18.384H42.7373ZM44.8754 3.65128L45.41 0H50.6752L50.1407 3.65128H44.8754Z" fill="#696E73"/>
<path d="M50.6191 18.3839L52.5434 5.33639H56.5258L56.7663 7.22586C56.9089 7.03862 57.1583 6.77477 57.5147 6.43432C57.8889 6.09388 58.4056 5.78748 59.0649 5.51512C59.7241 5.22574 60.5705 5.08105 61.604 5.08105C62.8869 5.08105 63.849 5.39597 64.4905 6.02579C65.132 6.65561 65.4527 7.43865 65.4527 8.37487C65.4527 8.54509 65.4349 8.7834 65.3992 9.0898C65.3636 9.37918 65.3101 9.77069 65.2389 10.2643C65.1854 10.758 65.0963 11.3708 64.9716 12.1027C64.8647 12.8347 64.731 13.7198 64.5707 14.7582C64.4281 15.7966 64.25 17.0051 64.0361 18.3839H58.7441C58.958 16.9711 59.1361 15.788 59.2787 14.8348C59.4212 13.8645 59.5371 13.0815 59.6261 12.4857C59.7152 11.8729 59.7776 11.3963 59.8132 11.0559C59.8667 10.6984 59.9023 10.4345 59.9201 10.2643C59.938 10.0771 59.9469 9.92389 59.9469 9.80473C59.9469 9.46429 59.84 9.19193 59.6261 8.98766C59.4301 8.7834 59.1361 8.68126 58.7441 8.68126C58.4412 8.68126 58.174 8.74935 57.9423 8.88553C57.7107 9.02171 57.5236 9.20895 57.3811 9.44727C57.2563 9.66855 57.1672 9.92389 57.1138 10.2133L55.9111 18.3839H50.6191Z" fill="#696E73"/>
<path d="M71.2701 18.6394C69.8624 18.6394 68.7666 18.2138 67.9826 17.3627C67.1986 16.5116 66.8066 15.2094 66.8066 13.4561C66.8066 12.4177 66.9224 11.4049 67.1541 10.4176C67.4035 9.41331 67.7777 8.51113 68.2766 7.71108C68.7933 6.91104 69.4437 6.2727 70.2277 5.79608C71.0295 5.31946 71.9917 5.08114 73.1142 5.08114C74.0586 5.08114 74.7891 5.24286 75.3059 5.56628C75.8226 5.87268 76.1879 6.24717 76.4017 6.68975L77.3906 0H82.6826C82.4153 1.71925 82.1748 3.24274 81.9609 4.57048C81.7471 5.89821 81.56 7.06424 81.3997 8.06855C81.2571 9.07287 81.1235 9.93249 80.9988 10.6474C80.8919 11.3624 80.8028 11.9667 80.7315 12.4603C80.6602 12.9539 80.6068 13.3625 80.5711 13.6859C80.5355 13.9923 80.5088 14.2391 80.4909 14.4264C80.4731 14.6136 80.4642 14.7668 80.4642 14.886C80.4642 15.0732 80.5177 15.2349 80.6246 15.3711C80.7315 15.5073 80.9097 15.5754 81.1591 15.5754C81.3373 15.5754 81.5066 15.5413 81.6669 15.4732C81.8451 15.4051 82.0055 15.3285 82.148 15.2434L81.7204 18.0521C81.3462 18.2394 80.9008 18.384 80.384 18.4862C79.8851 18.5883 79.4219 18.6394 78.9942 18.6394C78.4597 18.6394 77.943 18.5883 77.444 18.4862C76.9451 18.4011 76.5086 18.2223 76.1344 17.95C75.7602 17.6606 75.5019 17.2265 75.3593 16.6478C74.896 17.2095 74.3348 17.6861 73.6755 18.0776C73.0162 18.4521 72.2144 18.6394 71.2701 18.6394ZM73.4617 15.5498C73.8537 15.5498 74.1744 15.4732 74.4239 15.32C74.6911 15.1498 74.905 14.9285 75.0653 14.6562C75.2257 14.3838 75.3326 14.0859 75.386 13.7625C75.582 12.3667 75.7246 11.3794 75.8137 10.8006C75.9028 10.2048 75.9473 9.85589 75.9473 9.75376C75.9473 9.26011 75.7959 8.89413 75.4929 8.65582C75.19 8.40049 74.8337 8.27282 74.4239 8.27282C74.1031 8.27282 73.8091 8.34091 73.5419 8.47709C73.2746 8.61326 73.0519 8.81753 72.8737 9.08989C72.7133 9.34522 72.6064 9.65162 72.553 10.0091C72.3748 11.1496 72.2411 12.0688 72.1521 12.7667C72.0808 13.4646 72.0451 13.9072 72.0451 14.0944C72.0451 14.537 72.1788 14.8945 72.446 15.1668C72.7133 15.4222 73.0519 15.5498 73.4617 15.5498Z" fill="#696E73"/>
<path d="M83.6367 18.3839L85.561 5.33639H89.5167L89.8107 7.22586C89.8641 7.12373 89.9978 6.96201 90.2116 6.74073C90.4254 6.50241 90.7016 6.25559 91.0401 6.00026C91.3787 5.74492 91.7796 5.53214 92.2429 5.36192C92.7061 5.17468 93.205 5.08105 93.7396 5.08105C94.8087 5.08105 95.6194 5.33639 96.1718 5.84706C96.7241 6.35772 97.0003 7.04713 97.0003 7.91526C97.0003 8.39188 96.9558 8.86851 96.8667 9.34513C96.7776 9.80473 96.6707 10.2303 96.5459 10.6218H92.2161C92.2518 10.4686 92.2696 10.3239 92.2696 10.1877C92.2874 10.0345 92.2963 9.90687 92.2963 9.80473C92.2963 9.53238 92.2518 9.3196 92.1627 9.1664C92.0914 9.0132 91.9845 8.90255 91.8419 8.83446C91.6994 8.76637 91.539 8.73233 91.3609 8.73233C91.1827 8.73233 91.0134 8.76637 90.853 8.83446C90.6927 8.90255 90.559 8.99618 90.4521 9.11533C90.3452 9.21746 90.2561 9.34513 90.1849 9.49833C90.1136 9.65153 90.0601 9.82176 90.0245 10.009L88.795 18.3839H83.6367Z" fill="#696E73"/>
<path d="M0 30.9498V27.1182H0.999765L2.23924 30.0953H2.25093L3.49625 27.1182H4.50187V30.9498H3.88213V27.7997H3.8529L2.54911 30.9498H1.8826L0.584658 27.7997H0.555425V30.9498H0Z" fill="#696E73"/>
<path d="M6.23425 31.0059C6.07444 31.0059 5.92048 30.9817 5.77237 30.9333C5.62815 30.8849 5.50927 30.803 5.41573 30.6875C5.32608 30.5684 5.28125 30.4083 5.28125 30.2072C5.28125 30.0024 5.32803 29.8385 5.42157 29.7157C5.51902 29.5891 5.65544 29.4922 5.83083 29.4252C6.01013 29.3582 6.22255 29.3135 6.46811 29.2912C6.71756 29.2688 6.9904 29.2577 7.28663 29.2577V28.9672C7.28663 28.7661 7.23401 28.6265 7.12877 28.5483C7.02743 28.4664 6.86568 28.4254 6.64351 28.4254C6.45642 28.4254 6.29466 28.4645 6.15824 28.5427C6.02182 28.6172 5.95361 28.7363 5.95361 28.9002V28.9672H5.38649C5.3826 28.9486 5.38065 28.93 5.38065 28.9114C5.38065 28.889 5.38065 28.8667 5.38065 28.8443C5.38065 28.6805 5.43327 28.539 5.5385 28.4198C5.64764 28.297 5.7938 28.2039 5.977 28.1406C6.16409 28.0735 6.37651 28.04 6.61427 28.04H6.69613C7.0898 28.04 7.38213 28.1145 7.57311 28.2634C7.768 28.4124 7.86544 28.6265 7.86544 28.9058V30.4194C7.86544 30.4864 7.88103 30.5349 7.91222 30.5646C7.9434 30.5944 7.98043 30.6093 8.0233 30.6093C8.06618 30.6093 8.111 30.6019 8.15777 30.587C8.20844 30.5721 8.25327 30.5535 8.29224 30.5311V30.8886C8.24157 30.9258 8.17921 30.9538 8.10515 30.9724C8.0311 30.9947 7.9434 31.0059 7.84206 31.0059C7.71733 31.0059 7.61599 30.9836 7.53803 30.9389C7.46398 30.8905 7.40941 30.8272 7.37433 30.749C7.33925 30.6708 7.31781 30.5833 7.31002 30.4865C7.19698 30.654 7.04887 30.7825 6.86568 30.8718C6.68638 30.9612 6.47591 31.0059 6.23425 31.0059ZM6.46811 30.6093C6.60453 30.6093 6.7351 30.5814 6.85983 30.5255C6.98456 30.466 7.0859 30.3766 7.16385 30.2574C7.24571 30.1383 7.28663 29.9893 7.28663 29.8106V29.5984C6.9943 29.5984 6.7429 29.6133 6.53242 29.6431C6.32195 29.6691 6.16019 29.7212 6.04716 29.7994C5.93802 29.8776 5.88345 29.9987 5.88345 30.1625C5.88345 30.3189 5.93217 30.4325 6.02962 30.5032C6.12706 30.574 6.27322 30.6093 6.46811 30.6093Z" fill="#696E73"/>
<path d="M8.96191 30.9502V26.9287H9.54657V29.66L10.9264 28.0961H11.6163L10.4236 29.4142L11.6865 30.9502H10.979L10.026 29.7996L9.54657 30.2632V30.9502H8.96191Z" fill="#696E73"/>
<path d="M12.2696 30.9502V28.0961H12.8542V30.9502H12.2696ZM12.252 27.3979V26.9287H12.8718V27.3979H12.252Z" fill="#696E73"/>
<path d="M13.8271 30.95V28.0959H14.248L14.3299 28.5148C14.439 28.3584 14.5793 28.2411 14.7508 28.1629C14.9262 28.081 15.1153 28.04 15.318 28.04C15.5245 28.04 15.7058 28.0773 15.8617 28.1517C16.0215 28.2262 16.1462 28.3379 16.2359 28.4869C16.3255 28.6321 16.3703 28.8145 16.3703 29.0342V30.95H15.7857V29.1292C15.7857 28.8946 15.7292 28.727 15.6161 28.6265C15.5031 28.5222 15.3433 28.4701 15.1367 28.4701C15.0042 28.4701 14.8814 28.5018 14.7684 28.5651C14.6592 28.6284 14.5716 28.714 14.5053 28.822C14.4429 28.9263 14.4117 29.0473 14.4117 29.185V30.95H13.8271Z" fill="#696E73"/>
<path d="M17.807 32.0001C17.6706 32.0001 17.5459 31.9685 17.4328 31.9051C17.3237 31.8418 17.236 31.7562 17.1697 31.6482C17.1035 31.544 17.0703 31.4304 17.0703 31.3075C17.0703 31.1735 17.1093 31.0469 17.1873 30.9277C17.2652 30.8085 17.3724 30.721 17.5088 30.6652C17.4231 30.6131 17.3549 30.546 17.3042 30.4641C17.2574 30.3822 17.234 30.2947 17.234 30.2016C17.234 30.0638 17.2789 29.9484 17.3685 29.8553C17.4582 29.7585 17.5751 29.6859 17.7193 29.6375C17.5985 29.5593 17.501 29.468 17.427 29.3638C17.3529 29.2558 17.3159 29.1292 17.3159 28.984C17.3159 28.8239 17.3588 28.673 17.4445 28.5315C17.5342 28.3863 17.6686 28.269 17.8479 28.1797C18.0272 28.0866 18.2513 28.04 18.5203 28.04C18.645 28.04 18.7581 28.0475 18.8594 28.0624C18.9646 28.0773 19.0582 28.1015 19.14 28.135C19.2881 28.0754 19.4031 27.9972 19.485 27.9004C19.5668 27.8036 19.6136 27.6975 19.6253 27.582H20.1047C20.1047 27.7012 20.0794 27.811 20.0287 27.9116C19.9819 28.0121 19.9137 28.0959 19.8241 28.1629C19.7344 28.2299 19.6272 28.2765 19.5025 28.3025L19.4967 28.3193C19.5863 28.3938 19.6565 28.4813 19.7071 28.5818C19.7617 28.6824 19.789 28.7941 19.789 28.9169C19.789 29.0808 19.7442 29.2335 19.6545 29.3749C19.5649 29.5127 19.4343 29.6244 19.2628 29.7101C19.0952 29.792 18.8867 29.833 18.6372 29.833H18.1812C18.0604 29.833 17.9629 29.8609 17.8889 29.9167C17.8148 29.9726 17.7778 30.0471 17.7778 30.1402C17.7778 30.2295 17.8129 30.3021 17.883 30.358C17.9571 30.4138 18.0565 30.4418 18.1812 30.4418H19.3096C19.5551 30.4418 19.7481 30.5144 19.8884 30.6596C20.0326 30.8011 20.1047 30.9761 20.1047 31.1846C20.1047 31.3336 20.0657 31.4695 19.9878 31.5924C19.9137 31.719 19.8085 31.8176 19.6721 31.8884C19.5395 31.9629 19.3836 32.0001 19.2043 32.0001H17.807ZM17.9941 31.6203H19.1166C19.2336 31.6203 19.3349 31.5812 19.4207 31.503C19.5103 31.4248 19.5551 31.3299 19.5551 31.2181C19.5551 31.1251 19.5181 31.0431 19.4441 30.9724C19.3739 30.9016 19.2881 30.8663 19.1868 30.8663H17.9941C17.8811 30.8663 17.7856 30.9035 17.7076 30.978C17.6297 31.0524 17.5907 31.1418 17.5907 31.2461C17.5907 31.3466 17.6297 31.4341 17.7076 31.5086C17.7856 31.5831 17.8811 31.6203 17.9941 31.6203ZM18.5495 29.4867C18.7639 29.4867 18.9315 29.4327 19.0523 29.3247C19.1732 29.2167 19.2336 29.0882 19.2336 28.9393C19.2336 28.7903 19.1732 28.6619 19.0523 28.5539C18.9315 28.4422 18.7639 28.3863 18.5495 28.3863C18.3351 28.3863 18.1675 28.4422 18.0467 28.5539C17.9298 28.6619 17.8713 28.7903 17.8713 28.9393C17.8713 29.0882 17.9298 29.2167 18.0467 29.3247C18.1675 29.4327 18.3351 29.4867 18.5495 29.4867Z" fill="#696E73"/>
<path d="M22.0439 30.9502V28.0961H22.6286V30.9502H22.0439ZM22.0264 27.3979V26.9287H22.6461V27.3979H22.0264Z" fill="#696E73"/>
<path d="M23.6016 30.95V28.0959H24.0226L24.1044 28.5148C24.2136 28.3584 24.3539 28.2411 24.5254 28.1629C24.7008 28.081 24.8898 28.04 25.0925 28.04C25.2991 28.04 25.4803 28.0773 25.6362 28.1517C25.7961 28.2262 25.9208 28.3379 26.0104 28.4869C26.1001 28.6321 26.1449 28.8145 26.1449 29.0342V30.95H25.5602V29.1292C25.5602 28.8946 25.5037 28.727 25.3907 28.6265C25.2777 28.5222 25.1178 28.4701 24.9113 28.4701C24.7787 28.4701 24.656 28.5018 24.5429 28.5651C24.4338 28.6284 24.3461 28.714 24.2798 28.822C24.2175 28.9263 24.1863 29.0473 24.1863 29.185V30.95H23.6016Z" fill="#696E73"/>
<path d="M27.9333 31.0059C27.789 31.0059 27.6585 30.9836 27.5415 30.9389C27.4285 30.8942 27.3389 30.8234 27.2726 30.7266C27.2102 30.6261 27.1791 30.4939 27.1791 30.3301V28.5315H26.8516V28.0959H27.1966L27.4012 27.1855H27.7637V28.0959H28.4595V28.5315H27.7637V30.2295C27.7637 30.3934 27.7988 30.4976 27.869 30.5423C27.9391 30.587 28.0151 30.6093 28.097 30.6093C28.1398 30.6093 28.1983 30.6 28.2724 30.5814C28.3503 30.5628 28.4127 30.5442 28.4595 30.5255V30.8998C28.4166 30.9221 28.364 30.9407 28.3016 30.9556C28.2431 30.9742 28.1808 30.9873 28.1145 30.9947C28.0521 31.0022 27.9917 31.0059 27.9333 31.0059Z" fill="#696E73"/>
<path d="M30.4296 31.0059C30.1646 31.0059 29.9307 30.9519 29.7281 30.8439C29.5293 30.7322 29.3734 30.5702 29.2603 30.358C29.1473 30.142 29.0908 29.8832 29.0908 29.5816V29.4643C29.0908 29.159 29.1492 28.9002 29.2662 28.6879C29.387 28.4757 29.5507 28.3156 29.7573 28.2076C29.9639 28.0959 30.1997 28.04 30.4647 28.04H30.529C30.7707 28.04 30.9851 28.0884 31.1722 28.1853C31.3592 28.2821 31.5035 28.4198 31.6048 28.5986C31.71 28.7773 31.7627 28.9896 31.7627 29.2353V29.5928H29.6988C29.6988 29.805 29.7281 29.9875 29.7865 30.1402C29.8489 30.2928 29.9366 30.4101 30.0496 30.492C30.1665 30.5702 30.3088 30.6093 30.4764 30.6093C30.6167 30.6093 30.7415 30.5833 30.8506 30.5311C30.9597 30.479 31.0474 30.3989 31.1137 30.291C31.1799 30.183 31.2131 30.0489 31.2131 29.8888H31.7627C31.7627 30.116 31.7061 30.3133 31.5931 30.4809C31.4801 30.6484 31.3261 30.7788 31.1312 30.8718C30.9402 30.9612 30.7239 31.0059 30.4823 31.0059H30.4296ZM29.7047 29.2577H31.1897C31.1897 28.9784 31.1254 28.7717 30.9968 28.6377C30.872 28.5036 30.6966 28.4366 30.4706 28.4366C30.264 28.4366 30.0866 28.5055 29.9385 28.6433C29.7943 28.781 29.7164 28.9858 29.7047 29.2577Z" fill="#696E73"/>
<path d="M32.5654 30.95V28.0959H32.9981L33.0799 28.5148C33.0838 28.5073 33.1014 28.4794 33.1325 28.431C33.1637 28.3826 33.2105 28.3286 33.2729 28.269C33.3391 28.2057 33.4229 28.1517 33.5243 28.1071C33.6295 28.0624 33.7581 28.04 33.9101 28.04C34.1167 28.04 34.2863 28.081 34.4188 28.1629C34.5552 28.2411 34.6546 28.3491 34.717 28.4869C34.7832 28.6246 34.8164 28.781 34.8164 28.956C34.8164 28.9933 34.8144 29.0324 34.8105 29.0733C34.8066 29.1106 34.8047 29.1404 34.8047 29.1627H34.3019V29.0566C34.3019 28.9747 34.2843 28.889 34.2492 28.7997C34.2181 28.7066 34.1615 28.6302 34.0797 28.5706C33.9978 28.5073 33.8829 28.4757 33.7347 28.4757C33.6256 28.4757 33.5321 28.498 33.4541 28.5427C33.3801 28.5874 33.3196 28.6433 33.2729 28.7103C33.23 28.7773 33.1988 28.8481 33.1793 28.9225C33.1598 28.997 33.1501 29.0659 33.1501 29.1292V30.95H32.5654Z" fill="#696E73"/>
<path d="M35.4375 30.95V28.0959H35.8585L35.9403 28.5148C36.0495 28.3584 36.1898 28.2411 36.3613 28.1629C36.5367 28.081 36.7257 28.04 36.9284 28.04C37.135 28.04 37.3162 28.0773 37.4721 28.1517C37.632 28.2262 37.7567 28.3379 37.8463 28.4869C37.936 28.6321 37.9808 28.8145 37.9808 29.0342V30.95H37.3961V29.1292C37.3961 28.8946 37.3396 28.727 37.2266 28.6265C37.1136 28.5222 36.9537 28.4701 36.7472 28.4701C36.6146 28.4701 36.4919 28.5018 36.3788 28.5651C36.2697 28.6284 36.182 28.714 36.1157 28.822C36.0534 28.9263 36.0222 29.0473 36.0222 29.185V30.95H35.4375Z" fill="#696E73"/>
<path d="M40.1192 31.0059C39.8541 31.0059 39.6202 30.9519 39.4176 30.8439C39.2188 30.7322 39.0629 30.5702 38.9498 30.358C38.8368 30.142 38.7803 29.8832 38.7803 29.5816V29.4643C38.7803 29.159 38.8387 28.9002 38.9557 28.6879C39.0765 28.4757 39.2402 28.3156 39.4468 28.2076C39.6534 28.0959 39.8892 28.04 40.1542 28.04H40.2185C40.4602 28.04 40.6746 28.0884 40.8617 28.1853C41.0488 28.2821 41.193 28.4198 41.2943 28.5986C41.3995 28.7773 41.4522 28.9896 41.4522 29.2353V29.5928H39.3883C39.3883 29.805 39.4176 29.9875 39.476 30.1402C39.5384 30.2928 39.6261 30.4101 39.7391 30.492C39.8561 30.5702 39.9983 30.6093 40.1659 30.6093C40.3062 30.6093 40.431 30.5833 40.5401 30.5311C40.6492 30.479 40.7369 30.3989 40.8032 30.291C40.8695 30.183 40.9026 30.0489 40.9026 29.8888H41.4522C41.4522 30.116 41.3956 30.3133 41.2826 30.4809C41.1696 30.6484 41.0156 30.7788 40.8207 30.8718C40.6298 30.9612 40.4134 31.0059 40.1718 31.0059H40.1192ZM39.3942 29.2577H40.8792C40.8792 28.9784 40.8149 28.7717 40.6863 28.6377C40.5615 28.5036 40.3861 28.4366 40.1601 28.4366C39.9535 28.4366 39.7761 28.5055 39.628 28.6433C39.4838 28.781 39.4059 28.9858 39.3942 29.2577Z" fill="#696E73"/>
<path d="M43.1255 31.0059C42.9813 31.0059 42.8507 30.9836 42.7338 30.9389C42.6207 30.8942 42.5311 30.8234 42.4648 30.7266C42.4025 30.6261 42.3713 30.4939 42.3713 30.3301V28.5315H42.0439V28.0959H42.3888L42.5934 27.1855H42.9559V28.0959H43.6517V28.5315H42.9559V30.2295C42.9559 30.3934 42.991 30.4976 43.0612 30.5423C43.1313 30.587 43.2073 30.6093 43.2892 30.6093C43.3321 30.6093 43.3905 30.6 43.4646 30.5814C43.5425 30.5628 43.6049 30.5442 43.6517 30.5255V30.8998C43.6088 30.9221 43.5562 30.9407 43.4938 30.9556C43.4353 30.9742 43.373 30.9873 43.3067 30.9947C43.2444 31.0022 43.1839 31.0059 43.1255 31.0059Z" fill="#696E73"/>
<path d="M46.9473 31.0059C46.6822 31.0059 46.4484 30.9519 46.2457 30.8439C46.0469 30.7322 45.891 30.5702 45.778 30.358C45.6649 30.142 45.6084 29.8832 45.6084 29.5816V29.4643C45.6084 29.159 45.6669 28.9002 45.7838 28.6879C45.9046 28.4757 46.0683 28.3156 46.2749 28.2076C46.4815 28.0959 46.7173 28.04 46.9823 28.04H47.0467C47.2883 28.04 47.5027 28.0884 47.6898 28.1853C47.8769 28.2821 48.0211 28.4198 48.1224 28.5986C48.2277 28.7773 48.2803 28.9896 48.2803 29.2353V29.5928H46.2164C46.2164 29.805 46.2457 29.9875 46.3041 30.1402C46.3665 30.2928 46.4542 30.4101 46.5672 30.492C46.6842 30.5702 46.8264 30.6093 46.994 30.6093C47.1344 30.6093 47.2591 30.5833 47.3682 30.5311C47.4774 30.479 47.5651 30.3989 47.6313 30.291C47.6976 30.183 47.7307 30.0489 47.7307 29.8888H48.2803C48.2803 30.116 48.2238 30.3133 48.1107 30.4809C47.9977 30.6484 47.8437 30.7788 47.6489 30.8718C47.4579 30.9612 47.2415 31.0059 46.9999 31.0059H46.9473ZM46.2223 29.2577H47.7073C47.7073 28.9784 47.643 28.7717 47.5144 28.6377C47.3897 28.5036 47.2143 28.4366 46.9882 28.4366C46.7816 28.4366 46.6043 28.5055 46.4562 28.6433C46.3119 28.781 46.234 28.9858 46.2223 29.2577Z" fill="#696E73"/>
<path d="M49.8495 31.0059C49.6897 31.0059 49.5357 30.9817 49.3876 30.9333C49.2434 30.8849 49.1245 30.803 49.0309 30.6875C48.9413 30.5684 48.8965 30.4083 48.8965 30.2072C48.8965 30.0024 48.9432 29.8385 49.0368 29.7157C49.1342 29.5891 49.2707 29.4922 49.446 29.4252C49.6253 29.3582 49.8378 29.3135 50.0833 29.2912C50.3328 29.2688 50.6056 29.2577 50.9018 29.2577V28.9672C50.9018 28.7661 50.8492 28.6265 50.744 28.5483C50.6426 28.4664 50.4809 28.4254 50.2587 28.4254C50.0716 28.4254 49.9099 28.4645 49.7735 28.5427C49.637 28.6172 49.5688 28.7363 49.5688 28.9002V28.9672H49.0017C48.9978 28.9486 48.9959 28.93 48.9959 28.9114C48.9959 28.889 48.9959 28.8667 48.9959 28.8443C48.9959 28.6805 49.0485 28.539 49.1537 28.4198C49.2629 28.297 49.409 28.2039 49.5922 28.1406C49.7793 28.0735 49.9917 28.04 50.2295 28.04H50.3113C50.705 28.04 50.9973 28.1145 51.1883 28.2634C51.3832 28.4124 51.4807 28.6265 51.4807 28.9058V30.4194C51.4807 30.4864 51.4962 30.5349 51.5274 30.5646C51.5586 30.5944 51.5956 30.6093 51.6385 30.6093C51.6814 30.6093 51.7262 30.6019 51.773 30.587C51.8237 30.5721 51.8685 30.5535 51.9075 30.5311V30.8886C51.8568 30.9258 51.7944 30.9538 51.7204 30.9724C51.6463 30.9947 51.5586 31.0059 51.4573 31.0059C51.3325 31.0059 51.2312 30.9836 51.1533 30.9389C51.0792 30.8905 51.0246 30.8272 50.9895 30.749C50.9545 30.6708 50.933 30.5833 50.9252 30.4865C50.8122 30.654 50.6641 30.7825 50.4809 30.8718C50.3016 30.9612 50.0911 31.0059 49.8495 31.0059ZM50.0833 30.6093C50.2197 30.6093 50.3503 30.5814 50.475 30.5255C50.5998 30.466 50.7011 30.3766 50.7791 30.2574C50.8609 30.1383 50.9018 29.9893 50.9018 29.8106V29.5984C50.6095 29.5984 50.3581 29.6133 50.1476 29.6431C49.9372 29.6691 49.7754 29.7212 49.6624 29.7994C49.5532 29.8776 49.4987 29.9987 49.4987 30.1625C49.4987 30.3189 49.5474 30.4325 49.6448 30.5032C49.7423 30.574 49.8884 30.6093 50.0833 30.6093Z" fill="#696E73"/>
<path d="M53.6126 31.0059C53.406 31.0059 53.2267 30.9817 53.0747 30.9333C52.9227 30.8849 52.796 30.8216 52.6946 30.7434C52.5933 30.6615 52.5173 30.5721 52.4666 30.4753C52.416 30.3747 52.3906 30.2761 52.3906 30.1793C52.3906 30.1569 52.3906 30.1383 52.3906 30.1234C52.3906 30.1048 52.3926 30.0824 52.3965 30.0564H52.911C52.9071 30.0675 52.9051 30.0787 52.9051 30.0899C52.9051 30.0973 52.9051 30.1066 52.9051 30.1178C52.9051 30.2258 52.9402 30.317 53.0104 30.3915C53.0844 30.4622 53.1819 30.5162 53.3027 30.5535C53.4274 30.5907 53.5677 30.6093 53.7236 30.6093C53.8562 30.6093 53.977 30.5926 54.0861 30.5591C54.1992 30.5255 54.2869 30.4771 54.3492 30.4138C54.4155 30.3468 54.4486 30.2686 54.4486 30.1793C54.4486 30.075 54.4135 29.9949 54.3434 29.9391C54.2732 29.8795 54.1797 29.8348 54.0627 29.805C53.9458 29.7715 53.8172 29.7436 53.6769 29.7212C53.5404 29.6952 53.4001 29.6673 53.2559 29.6375C53.1156 29.604 52.987 29.5593 52.87 29.5034C52.7531 29.4476 52.6596 29.3712 52.5894 29.2744C52.5192 29.1739 52.4842 29.0417 52.4842 28.8778C52.4842 28.7512 52.5134 28.6358 52.5719 28.5315C52.6303 28.4273 52.7141 28.3398 52.8233 28.269C52.9324 28.1946 53.061 28.1387 53.2091 28.1015C53.3612 28.0605 53.5268 28.04 53.7061 28.04H53.7821C53.9536 28.04 54.1095 28.0624 54.2498 28.1071C54.3901 28.148 54.511 28.2057 54.6123 28.2802C54.7137 28.351 54.7897 28.4329 54.8403 28.526C54.8949 28.6153 54.9222 28.7103 54.9222 28.8108C54.9222 28.8294 54.9202 28.8499 54.9163 28.8723C54.9163 28.8909 54.9163 28.9039 54.9163 28.9114H54.4018V28.8499C54.4018 28.8127 54.3921 28.7717 54.3726 28.727C54.357 28.6786 54.3219 28.6339 54.2674 28.593C54.2167 28.5483 54.1446 28.5111 54.051 28.4813C53.9614 28.4515 53.8445 28.4366 53.7003 28.4366C53.5638 28.4366 53.4508 28.4496 53.3611 28.4757C53.2715 28.5018 53.2013 28.5353 53.1507 28.5762C53.1039 28.6172 53.0708 28.66 53.0513 28.7047C53.0318 28.7494 53.022 28.7903 53.022 28.8276C53.022 28.9169 53.0571 28.9896 53.1273 29.0454C53.1974 29.0975 53.291 29.1385 53.4079 29.1683C53.5249 29.1981 53.6535 29.2241 53.7938 29.2465C53.938 29.2688 54.0803 29.2968 54.2206 29.3303C54.3609 29.3601 54.4895 29.4047 54.6065 29.4643C54.7234 29.5202 54.8169 29.5984 54.8871 29.6989C54.9573 29.7994 54.9923 29.9298 54.9923 30.0899C54.9923 30.2574 54.9592 30.4008 54.893 30.52C54.8267 30.6354 54.7351 30.7285 54.6182 30.7992C54.5012 30.87 54.3668 30.9221 54.2147 30.9556C54.0627 30.9891 53.901 31.0059 53.7295 31.0059H53.6126Z" fill="#696E73"/>
<path d="M56.0269 31.9887C55.9412 31.9887 55.8632 31.9813 55.7931 31.9664C55.7229 31.9552 55.6547 31.9366 55.5884 31.9105V31.4749C55.6313 31.4898 55.6859 31.5047 55.7522 31.5196C55.8184 31.5344 55.8827 31.5419 55.9451 31.5419C56.0464 31.5419 56.1302 31.5214 56.1965 31.4805C56.2628 31.4432 56.3232 31.3781 56.3777 31.285C56.4362 31.1919 56.4947 31.0653 56.5531 30.9052L55.3838 28.0957H56.0094L56.8396 30.207H56.8689L57.6815 28.0957H58.2603L57.1378 30.8325C57.052 31.0448 56.9604 31.2384 56.863 31.4134C56.7695 31.5884 56.6564 31.7281 56.5239 31.8323C56.3914 31.9366 56.2257 31.9887 56.0269 31.9887Z" fill="#696E73"/>
<path d="M60.3 30.95V28.5315H59.9609V28.0959H60.3V27.5764C60.3 27.3344 60.3701 27.1594 60.5105 27.0514C60.6547 26.9397 60.8359 26.8838 61.0542 26.8838C61.1088 26.8838 61.1672 26.8894 61.2296 26.9006C61.2958 26.9081 61.3602 26.9192 61.4225 26.9341C61.4849 26.949 61.5375 26.9658 61.5804 26.9844V27.3586C61.5336 27.34 61.4712 27.3232 61.3933 27.3083C61.3192 27.2897 61.2608 27.2804 61.2179 27.2804C61.1672 27.2804 61.1146 27.2897 61.06 27.3083C61.0094 27.3232 60.9665 27.3549 60.9314 27.4033C60.9002 27.4517 60.8846 27.5299 60.8846 27.6379V28.0959H61.5804V28.5315H60.8846V30.95H60.3Z" fill="#696E73"/>
<path d="M63.4882 31.0059C63.231 31.0059 62.9991 30.9482 62.7925 30.8327C62.5898 30.7173 62.43 30.5516 62.3131 30.3356C62.1962 30.1197 62.1377 29.8646 62.1377 29.5704V29.4755C62.1377 29.1739 62.1962 28.9169 62.3131 28.7047C62.43 28.4887 62.5898 28.3249 62.7925 28.2132C62.9991 28.0977 63.231 28.04 63.4882 28.04H63.5643C63.8254 28.04 64.0573 28.0977 64.26 28.2132C64.4627 28.3286 64.6225 28.4943 64.7394 28.7103C64.8563 28.9225 64.9148 29.1776 64.9148 29.4755V29.5704C64.9148 29.8646 64.8563 30.1197 64.7394 30.3356C64.6225 30.5516 64.4607 30.7173 64.2541 30.8327C64.0515 30.9482 63.8215 31.0059 63.5643 31.0059H63.4882ZM63.5233 30.6093C63.6714 30.6093 63.804 30.5758 63.9209 30.5088C64.0378 30.4418 64.1314 30.3412 64.2015 30.2072C64.2717 30.0731 64.3068 29.9074 64.3068 29.7101V29.3359C64.3068 29.1348 64.2717 28.9691 64.2015 28.8387C64.1314 28.7047 64.0378 28.6042 63.9209 28.5371C63.804 28.4701 63.6714 28.4366 63.5233 28.4366C63.3791 28.4366 63.2485 28.4701 63.1316 28.5371C63.0147 28.6042 62.9211 28.7047 62.851 28.8387C62.7808 28.9691 62.7457 29.1348 62.7457 29.3359V29.7101C62.7457 29.9074 62.7808 30.0731 62.851 30.2072C62.9211 30.3412 63.0147 30.4418 63.1316 30.5088C63.2485 30.5758 63.3791 30.6093 63.5233 30.6093Z" fill="#696E73"/>
<path d="M65.71 30.95V28.0959H66.1426L66.2245 28.5148C66.2284 28.5073 66.2459 28.4794 66.2771 28.431C66.3083 28.3826 66.355 28.3286 66.4174 28.269C66.4837 28.2057 66.5675 28.1517 66.6688 28.1071C66.7741 28.0624 66.9027 28.04 67.0547 28.04C67.2613 28.04 67.4308 28.081 67.5633 28.1629C67.6998 28.2411 67.7991 28.3491 67.8615 28.4869C67.9278 28.6246 67.9609 28.781 67.9609 28.956C67.9609 28.9933 67.959 29.0324 67.9551 29.0733C67.9512 29.1106 67.9492 29.1404 67.9492 29.1627H67.4464V29.0566C67.4464 28.9747 67.4289 28.889 67.3938 28.7997C67.3626 28.7066 67.3061 28.6302 67.2242 28.5706C67.1424 28.5073 67.0274 28.4757 66.8793 28.4757C66.7702 28.4757 66.6766 28.498 66.5987 28.5427C66.5246 28.5874 66.4642 28.6433 66.4174 28.7103C66.3745 28.7773 66.3433 28.8481 66.3239 28.9225C66.3044 28.997 66.2946 29.0659 66.2946 29.1292V30.95H65.71Z" fill="#696E73"/>
<path d="M71.3387 31.0061C70.8905 31.0061 70.5533 30.8348 70.3272 30.4922L70.1226 30.9502H69.9062V26.9287H70.4909V28.4591C70.5728 28.3437 70.6897 28.245 70.8417 28.1631C70.9977 28.0812 71.1789 28.0402 71.3855 28.0402C71.5999 28.0402 71.7947 28.0886 71.9701 28.1855C72.1494 28.2823 72.2917 28.4312 72.3969 28.6323C72.5022 28.8334 72.5548 29.0884 72.5548 29.3975V29.5092C72.5548 29.8555 72.4983 30.1404 72.3852 30.3638C72.2761 30.5835 72.1299 30.7454 71.9468 30.8497C71.7636 30.954 71.5609 31.0061 71.3387 31.0061ZM71.2276 30.6095C71.364 30.6095 71.4848 30.5779 71.59 30.5146C71.6991 30.4513 71.785 30.3489 71.8474 30.2074C71.9136 30.0659 71.9468 29.8797 71.9468 29.6488V29.3361C71.9468 29.135 71.9155 28.9693 71.8531 28.8389C71.7907 28.7049 71.707 28.6062 71.6018 28.5429C71.4966 28.4759 71.3757 28.4424 71.2393 28.4424C71.1068 28.4424 70.9821 28.4759 70.8651 28.5429C70.7521 28.6062 70.6605 28.7049 70.5903 28.8389C70.5202 28.9693 70.4851 29.1368 70.4851 29.3416V29.6544C70.4851 29.889 70.5181 30.0771 70.5844 30.2185C70.6546 30.3563 70.7443 30.4569 70.8534 30.5202C70.9665 30.5797 71.0912 30.6095 71.2276 30.6095Z" fill="#696E73"/>
<path d="M74.3308 31.0057C74.0229 31.0057 73.7773 30.9256 73.5941 30.7655C73.4109 30.6017 73.3193 30.3503 73.3193 30.0115V28.0957H73.904V29.8774C73.904 30.1269 73.9566 30.3057 74.0618 30.4136C74.1671 30.5179 74.321 30.57 74.5237 30.57C74.6601 30.57 74.7849 30.5402 74.8979 30.4807C75.0148 30.4174 75.1084 30.3317 75.1785 30.2237C75.2487 30.1157 75.2838 29.9947 75.2838 29.8607V28.0957H75.8684V30.4192C75.8684 30.4862 75.884 30.5347 75.9152 30.5644C75.9503 30.5942 75.9893 30.6091 76.0321 30.6091C76.075 30.6091 76.1198 30.6017 76.1666 30.5868C76.2134 30.5719 76.2563 30.5533 76.2952 30.5309V30.8884C76.2446 30.9256 76.1822 30.9536 76.1081 30.9722C76.0341 30.9945 75.9483 31.0057 75.8509 31.0057C75.7262 31.0057 75.6268 30.9834 75.5527 30.9387C75.4787 30.894 75.4241 30.8363 75.389 30.7655C75.3539 30.691 75.3286 30.6129 75.313 30.5309C75.2156 30.6799 75.0772 30.7972 74.8979 30.8828C74.7186 30.9647 74.5296 31.0057 74.3308 31.0057Z" fill="#696E73"/>
<path d="M78.015 31.0059C77.8084 31.0059 77.6291 30.9817 77.4771 30.9333C77.3251 30.8849 77.1984 30.8216 77.0971 30.7434C76.9957 30.6615 76.9197 30.5721 76.869 30.4753C76.8184 30.3747 76.793 30.2761 76.793 30.1793C76.793 30.1569 76.793 30.1383 76.793 30.1234C76.793 30.1048 76.795 30.0824 76.7989 30.0564H77.3134C77.3095 30.0675 77.3075 30.0787 77.3075 30.0899C77.3075 30.0973 77.3075 30.1066 77.3075 30.1178C77.3075 30.2258 77.3426 30.317 77.4128 30.3915C77.4868 30.4622 77.5843 30.5162 77.7051 30.5535C77.8298 30.5907 77.9702 30.6093 78.1261 30.6093C78.2586 30.6093 78.3794 30.5926 78.4885 30.5591C78.6016 30.5255 78.6893 30.4771 78.7516 30.4138C78.8179 30.3468 78.851 30.2686 78.851 30.1793C78.851 30.075 78.816 29.9949 78.7458 29.9391C78.6756 29.8795 78.5821 29.8348 78.4652 29.805C78.3482 29.7715 78.2196 29.7436 78.0793 29.7212C77.9429 29.6952 77.8025 29.6673 77.6583 29.6375C77.518 29.604 77.3894 29.5593 77.2725 29.5034C77.1555 29.4476 77.062 29.3712 76.9918 29.2744C76.9217 29.1739 76.8866 29.0417 76.8866 28.8778C76.8866 28.7512 76.9158 28.6358 76.9743 28.5315C77.0327 28.4273 77.1165 28.3398 77.2257 28.269C77.3348 28.1946 77.4634 28.1387 77.6116 28.1015C77.7636 28.0605 77.9292 28.04 78.1085 28.04H78.1845C78.356 28.04 78.5119 28.0624 78.6522 28.1071C78.7926 28.148 78.9134 28.2057 79.0147 28.2802C79.1161 28.351 79.1921 28.4329 79.2428 28.526C79.2973 28.6153 79.3246 28.7103 79.3246 28.8108C79.3246 28.8294 79.3227 28.8499 79.3188 28.8723C79.3188 28.8909 79.3188 28.9039 79.3188 28.9114H78.8043V28.8499C78.8043 28.8127 78.7945 28.7717 78.775 28.727C78.7594 28.6786 78.7244 28.6339 78.6698 28.593C78.6191 28.5483 78.547 28.5111 78.4535 28.4813C78.3638 28.4515 78.2469 28.4366 78.1027 28.4366C77.9662 28.4366 77.8532 28.4496 77.7636 28.4757C77.6739 28.5018 77.6038 28.5353 77.5531 28.5762C77.5063 28.6172 77.4732 28.66 77.4537 28.7047C77.4342 28.7494 77.4245 28.7903 77.4245 28.8276C77.4245 28.9169 77.4595 28.9896 77.5297 29.0454C77.5999 29.0975 77.6934 29.1385 77.8103 29.1683C77.9273 29.1981 78.0559 29.2241 78.1962 29.2465C78.3404 29.2688 78.4827 29.2968 78.623 29.3303C78.7633 29.3601 78.892 29.4047 79.0089 29.4643C79.1258 29.5202 79.2194 29.5984 79.2895 29.6989C79.3597 29.7994 79.3948 29.9298 79.3948 30.0899C79.3948 30.2574 79.3616 30.4008 79.2954 30.52C79.2291 30.6354 79.1375 30.7285 79.0206 30.7992C78.9036 30.87 78.7692 30.9221 78.6172 30.9556C78.4652 30.9891 78.3034 31.0059 78.1319 31.0059H78.015Z" fill="#696E73"/>
<path d="M80.1962 30.9502V28.0961H80.7809V30.9502H80.1962ZM80.1787 27.3979V26.9287H80.7984V27.3979H80.1787Z" fill="#696E73"/>
<path d="M81.7529 30.95V28.0959H82.1739L82.2557 28.5148C82.3649 28.3584 82.5052 28.2411 82.6767 28.1629C82.8521 28.081 83.0411 28.04 83.2438 28.04C83.4504 28.04 83.6316 28.0773 83.7875 28.1517C83.9473 28.2262 84.0721 28.3379 84.1617 28.4869C84.2514 28.6321 84.2962 28.8145 84.2962 29.0342V30.95H83.7115V29.1292C83.7115 28.8946 83.655 28.727 83.542 28.6265C83.4289 28.5222 83.2691 28.4701 83.0625 28.4701C82.93 28.4701 82.8072 28.5018 82.6942 28.5651C82.5851 28.6284 82.4974 28.714 82.4311 28.822C82.3687 28.9263 82.3376 29.0473 82.3376 29.185V30.95H81.7529Z" fill="#696E73"/>
<path d="M86.4345 31.0059C86.1695 31.0059 85.9356 30.9519 85.7329 30.8439C85.5341 30.7322 85.3782 30.5702 85.2652 30.358C85.1522 30.142 85.0957 29.8832 85.0957 29.5816V29.4643C85.0957 29.159 85.1541 28.9002 85.271 28.6879C85.3919 28.4757 85.5556 28.3156 85.7622 28.2076C85.9687 28.0959 86.2046 28.04 86.4696 28.04H86.5339C86.7756 28.04 86.9899 28.0884 87.177 28.1853C87.3641 28.2821 87.5083 28.4198 87.6097 28.5986C87.7149 28.7773 87.7675 28.9896 87.7675 29.2353V29.5928H85.7037C85.7037 29.805 85.7329 29.9875 85.7914 30.1402C85.8538 30.2928 85.9415 30.4101 86.0545 30.492C86.1714 30.5702 86.3137 30.6093 86.4813 30.6093C86.6216 30.6093 86.7463 30.5833 86.8555 30.5311C86.9646 30.479 87.0523 30.3989 87.1186 30.291C87.1848 30.183 87.218 30.0489 87.218 29.8888H87.7675C87.7675 30.116 87.711 30.3133 87.598 30.4809C87.485 30.6484 87.331 30.7788 87.1361 30.8718C86.9451 30.9612 86.7288 31.0059 86.4871 31.0059H86.4345ZM85.7095 29.2577H87.1946C87.1946 28.9784 87.1303 28.7717 87.0016 28.6377C86.8769 28.5036 86.7015 28.4366 86.4754 28.4366C86.2689 28.4366 86.0915 28.5055 85.9434 28.6433C85.7992 28.781 85.7212 28.9858 85.7095 29.2577Z" fill="#696E73"/>
<path d="M89.6058 31.0059C89.3992 31.0059 89.2199 30.9817 89.0679 30.9333C88.9159 30.8849 88.7892 30.8216 88.6878 30.7434C88.5865 30.6615 88.5105 30.5721 88.4598 30.4753C88.4092 30.3747 88.3838 30.2761 88.3838 30.1793C88.3838 30.1569 88.3838 30.1383 88.3838 30.1234C88.3838 30.1048 88.3858 30.0824 88.3897 30.0564H88.9042C88.9003 30.0675 88.8983 30.0787 88.8983 30.0899C88.8983 30.0973 88.8983 30.1066 88.8983 30.1178C88.8983 30.2258 88.9334 30.317 89.0036 30.3915C89.0776 30.4622 89.1751 30.5162 89.2959 30.5535C89.4206 30.5907 89.5609 30.6093 89.7168 30.6093C89.8494 30.6093 89.9702 30.5926 90.0793 30.5591C90.1924 30.5255 90.2801 30.4771 90.3424 30.4138C90.4087 30.3468 90.4418 30.2686 90.4418 30.1793C90.4418 30.075 90.4067 29.9949 90.3366 29.9391C90.2664 29.8795 90.1729 29.8348 90.0559 29.805C89.939 29.7715 89.8104 29.7436 89.6701 29.7212C89.5336 29.6952 89.3933 29.6673 89.2491 29.6375C89.1088 29.604 88.9802 29.5593 88.8632 29.5034C88.7463 29.4476 88.6528 29.3712 88.5826 29.2744C88.5124 29.1739 88.4774 29.0417 88.4774 28.8778C88.4774 28.7512 88.5066 28.6358 88.5651 28.5315C88.6235 28.4273 88.7073 28.3398 88.8165 28.269C88.9256 28.1946 89.0542 28.1387 89.2023 28.1015C89.3544 28.0605 89.52 28.04 89.6993 28.04H89.7753C89.9468 28.04 90.1027 28.0624 90.243 28.1071C90.3834 28.148 90.5042 28.2057 90.6055 28.2802C90.7069 28.351 90.7829 28.4329 90.8335 28.526C90.8881 28.6153 90.9154 28.7103 90.9154 28.8108C90.9154 28.8294 90.9134 28.8499 90.9096 28.8723C90.9096 28.8909 90.9096 28.9039 90.9096 28.9114H90.395V28.8499C90.395 28.8127 90.3853 28.7717 90.3658 28.727C90.3502 28.6786 90.3151 28.6339 90.2606 28.593C90.2099 28.5483 90.1378 28.5111 90.0443 28.4813C89.9546 28.4515 89.8377 28.4366 89.6935 28.4366C89.557 28.4366 89.444 28.4496 89.3544 28.4757C89.2647 28.5018 89.1945 28.5353 89.1439 28.5762C89.0971 28.6172 89.064 28.66 89.0445 28.7047C89.025 28.7494 89.0153 28.7903 89.0153 28.8276C89.0153 28.9169 89.0503 28.9896 89.1205 29.0454C89.1906 29.0975 89.2842 29.1385 89.4011 29.1683C89.5181 29.1981 89.6467 29.2241 89.787 29.2465C89.9312 29.2688 90.0735 29.2968 90.2138 29.3303C90.3541 29.3601 90.4827 29.4047 90.5997 29.4643C90.7166 29.5202 90.8102 29.5984 90.8803 29.6989C90.9505 29.7994 90.9855 29.9298 90.9855 30.0899C90.9855 30.2574 90.9524 30.4008 90.8862 30.52C90.8199 30.6354 90.7283 30.7285 90.6114 30.7992C90.4944 30.87 90.36 30.9221 90.208 30.9556C90.0559 30.9891 89.8942 31.0059 89.7227 31.0059H89.6058Z" fill="#696E73"/>
<path d="M92.7747 31.0059C92.5681 31.0059 92.3888 30.9817 92.2368 30.9333C92.0848 30.8849 91.9581 30.8216 91.8567 30.7434C91.7554 30.6615 91.6794 30.5721 91.6287 30.4753C91.5781 30.3747 91.5527 30.2761 91.5527 30.1793C91.5527 30.1569 91.5527 30.1383 91.5527 30.1234C91.5527 30.1048 91.5547 30.0824 91.5586 30.0564H92.0731C92.0692 30.0675 92.0672 30.0787 92.0672 30.0899C92.0672 30.0973 92.0672 30.1066 92.0672 30.1178C92.0672 30.2258 92.1023 30.317 92.1725 30.3915C92.2465 30.4622 92.344 30.5162 92.4648 30.5535C92.5895 30.5907 92.7298 30.6093 92.8857 30.6093C93.0183 30.6093 93.1391 30.5926 93.2482 30.5591C93.3613 30.5255 93.449 30.4771 93.5113 30.4138C93.5776 30.3468 93.6107 30.2686 93.6107 30.1793C93.6107 30.075 93.5756 29.9949 93.5055 29.9391C93.4353 29.8795 93.3418 29.8348 93.2248 29.805C93.1079 29.7715 92.9793 29.7436 92.839 29.7212C92.7026 29.6952 92.5622 29.6673 92.418 29.6375C92.2777 29.604 92.1491 29.5593 92.0321 29.5034C91.9152 29.4476 91.8217 29.3712 91.7515 29.2744C91.6813 29.1739 91.6463 29.0417 91.6463 28.8778C91.6463 28.7512 91.6755 28.6358 91.734 28.5315C91.7924 28.4273 91.8762 28.3398 91.9854 28.269C92.0945 28.1946 92.2231 28.1387 92.3712 28.1015C92.5233 28.0605 92.6889 28.04 92.8682 28.04H92.9442C93.1157 28.04 93.2716 28.0624 93.4119 28.1071C93.5523 28.148 93.6731 28.2057 93.7744 28.2802C93.8758 28.351 93.9518 28.4329 94.0024 28.526C94.057 28.6153 94.0843 28.7103 94.0843 28.8108C94.0843 28.8294 94.0823 28.8499 94.0784 28.8723C94.0784 28.8909 94.0784 28.9039 94.0784 28.9114H93.5639V28.8499C93.5639 28.8127 93.5542 28.7717 93.5347 28.727C93.5191 28.6786 93.484 28.6339 93.4295 28.593C93.3788 28.5483 93.3067 28.5111 93.2131 28.4813C93.1235 28.4515 93.0066 28.4366 92.8624 28.4366C92.7259 28.4366 92.6129 28.4496 92.5232 28.4757C92.4336 28.5018 92.3634 28.5353 92.3128 28.5762C92.266 28.6172 92.2329 28.66 92.2134 28.7047C92.1939 28.7494 92.1842 28.7903 92.1842 28.8276C92.1842 28.9169 92.2192 28.9896 92.2894 29.0454C92.3595 29.0975 92.4531 29.1385 92.57 29.1683C92.687 29.1981 92.8156 29.2241 92.9559 29.2465C93.1001 29.2688 93.2424 29.2968 93.3827 29.3303C93.523 29.3601 93.6516 29.4047 93.7686 29.4643C93.8855 29.5202 93.9791 29.5984 94.0492 29.6989C94.1194 29.7994 94.1544 29.9298 94.1544 30.0899C94.1544 30.2574 94.1213 30.4008 94.0551 30.52C93.9888 30.6354 93.8972 30.7285 93.7803 30.7992C93.6633 30.87 93.5289 30.9221 93.3769 30.9556C93.2248 30.9891 93.0631 31.0059 92.8916 31.0059H92.7747Z" fill="#696E73"/>
</g>
<defs>
<clipPath id="clip0_265_174">
<rect width="97" height="32" fill="white"/>
</clipPath>
</defs>
</svg>
