<svg width="117" height="32" viewBox="0 0 117 32" fill="none" xmlns="http://www.w3.org/2000/svg">
<g clip-path="url(#clip0_265_211)">
<rect width="117" height="32" fill="#696E73"/>
<path d="M0 31.0122V26.3418H0.690041V31.0122H0Z" fill="#696E73"/>
<path d="M3.09555 31.0122V26.9223H1.43945V26.3418H5.43479V26.9223H3.77869V31.0122H3.09555Z" fill="#696E73"/>
<path d="M6.01595 27.8839L6.36097 26.5296L6.45068 26.9165C6.31727 26.9165 6.20456 26.8765 6.11256 26.7964C6.02515 26.7164 5.98145 26.6096 5.98145 26.4762C5.98145 26.3383 6.02515 26.2293 6.11256 26.1493C6.20456 26.0647 6.31497 26.0225 6.44378 26.0225C6.57718 26.0225 6.68529 26.067 6.7681 26.1559C6.8509 26.2404 6.8923 26.3472 6.8923 26.4762C6.8923 26.5162 6.89 26.5585 6.8854 26.6029C6.8808 26.643 6.8693 26.6897 6.8509 26.7431C6.8371 26.7964 6.8141 26.8654 6.7819 26.9499L6.45068 27.8839H6.01595Z" fill="#696E73"/>
<path d="M9.41279 31.0661C9.04477 31.0661 8.69284 31.0128 8.35702 30.906C8.0212 30.7948 7.75669 30.6525 7.56348 30.479L7.81879 29.9586C8.0028 30.1143 8.23742 30.2433 8.52263 30.3456C8.80785 30.4479 9.10457 30.499 9.41279 30.499C9.6934 30.499 9.92112 30.4679 10.0959 30.4056C10.2707 30.3433 10.3995 30.2588 10.4823 30.1521C10.5651 30.0409 10.6065 29.9163 10.6065 29.7785C10.6065 29.6183 10.5513 29.4893 10.4409 29.3915C10.3351 29.2936 10.1948 29.2158 10.02 29.158C9.84981 29.0957 9.6612 29.0423 9.45419 28.9979C9.24718 28.9534 9.03787 28.9022 8.82625 28.8444C8.61924 28.7821 8.42833 28.7043 8.25352 28.6109C8.08331 28.5175 7.9453 28.3929 7.83949 28.2373C7.73369 28.0771 7.68078 27.8725 7.68078 27.6234C7.68078 27.3833 7.74519 27.1631 7.874 26.9629C8.0074 26.7583 8.20982 26.596 8.48123 26.4759C8.75725 26.3513 9.10687 26.2891 9.53009 26.2891C9.81071 26.2891 10.089 26.3247 10.365 26.3958C10.641 26.467 10.8802 26.5693 11.0826 26.7027L10.8549 27.2365C10.6479 27.103 10.4294 27.0074 10.1994 26.9496C9.96942 26.8873 9.74631 26.8562 9.53009 26.8562C9.25868 26.8562 9.03556 26.8895 8.86075 26.9563C8.68594 27.023 8.55714 27.1119 8.47433 27.2231C8.39613 27.3343 8.35702 27.4589 8.35702 27.5968C8.35702 27.7613 8.40993 27.8925 8.51573 27.9904C8.62614 28.0883 8.76645 28.1661 8.93666 28.2239C9.11147 28.2817 9.30238 28.3351 9.50939 28.384C9.7164 28.4285 9.92342 28.4797 10.1304 28.5375C10.342 28.5953 10.5329 28.6709 10.7031 28.7643C10.8779 28.8577 11.0182 28.9823 11.124 29.138C11.2298 29.2936 11.2827 29.4938 11.2827 29.7384C11.2827 29.9742 11.216 30.1943 11.0826 30.3989C10.9492 30.5991 10.7422 30.7615 10.4616 30.886C10.1856 31.0061 9.83601 31.0661 9.41279 31.0661Z" fill="#696E73"/>
<path d="M15.1033 31.0122V26.9223H13.4473V26.3418H17.4426V26.9223H15.7865V31.0122H15.1033Z" fill="#696E73"/>
<path d="M21.6583 31.0122V26.3418H22.3484V31.0122H21.6583ZM18.1943 31.0122V26.3418H18.8844V31.0122H18.1943ZM18.8154 28.9305V28.3501H21.7205V28.9305H18.8154Z" fill="#696E73"/>
<path d="M23.7939 31.0122V26.3418H27.2027V26.9223H24.4839V30.4317H27.2993V31.0122H23.7939ZM24.4218 28.9239V28.3568H26.906V28.9239H24.4218Z" fill="#696E73"/>
<path d="M29.5391 31.0122L31.7265 26.3418H32.4097L34.604 31.0122H33.8795L31.9267 26.7155H32.2027L30.2499 31.0122H29.5391ZM30.4707 29.8446L30.657 29.3108H33.3757L33.5759 29.8446H30.4707Z" fill="#696E73"/>
<path d="M35.3242 31.0122V26.3418H37.208C37.8336 26.3418 38.3258 26.4864 38.6847 26.7755C39.0435 27.0602 39.2229 27.4583 39.2229 27.9698C39.2229 28.3078 39.1424 28.5992 38.9814 28.8438C38.8204 29.084 38.5904 29.2686 38.2913 29.3976C37.9923 29.5266 37.6312 29.591 37.208 29.591H35.7037L36.0142 29.2841V31.0122H35.3242ZM38.5536 31.0122L37.3253 29.3175H38.0636L39.3057 31.0122H38.5536ZM36.0142 29.3509L35.7037 29.0239H37.1873C37.6289 29.0239 37.9624 28.9328 38.1878 28.7504C38.4179 28.5636 38.5329 28.3034 38.5329 27.9698C38.5329 27.6362 38.4179 27.3782 38.1878 27.1958C37.9624 27.0135 37.6289 26.9223 37.1873 26.9223H35.7037L36.0142 26.5887V29.3509Z" fill="#696E73"/>
<path d="M41.2293 31.0122V26.9223H39.5732V26.3418H43.5686V26.9223H41.9125V31.0122H41.2293Z" fill="#696E73"/>
<path d="M43.7396 32.0002L44.0846 30.6525L44.1743 31.0394C44.0409 31.0394 43.9282 30.9994 43.8362 30.9194C43.7488 30.8393 43.7051 30.7303 43.7051 30.5924C43.7051 30.459 43.7488 30.35 43.8362 30.2655C43.9282 30.181 44.0386 30.1387 44.1674 30.1387C44.3008 30.1387 44.4089 30.1832 44.4918 30.2722C44.5746 30.3567 44.616 30.4634 44.616 30.5924C44.616 30.6369 44.6114 30.6814 44.6022 30.7259C44.5976 30.7659 44.5861 30.8148 44.5677 30.8727C44.5539 30.926 44.5309 30.9927 44.4987 31.0728L44.1743 32.0002H43.7396Z" fill="#696E73"/>
<path d="M47.5146 31.0122V26.3418H48.0805L51.2754 30.1782H50.9786V26.3418H51.6687V31.0122H51.1029L47.908 27.1758H48.2047V31.0122H47.5146Z" fill="#696E73"/>
<path d="M55.2945 31.0661C54.9265 31.0661 54.5838 31.0061 54.2664 30.886C53.9535 30.7659 53.6821 30.5991 53.4521 30.3856C53.2221 30.1677 53.0427 29.9141 52.9139 29.625C52.7851 29.3359 52.7207 29.0201 52.7207 28.6776C52.7207 28.3351 52.7851 28.0193 52.9139 27.7302C53.0427 27.4411 53.2221 27.1898 53.4521 26.9763C53.6821 26.7583 53.9535 26.5893 54.2664 26.4692C54.5792 26.3491 54.9219 26.2891 55.2945 26.2891C55.6625 26.2891 56.0007 26.3491 56.3089 26.4692C56.6217 26.5849 56.8931 26.7517 57.1231 26.9696C57.3577 27.1831 57.5371 27.4344 57.6614 27.7235C57.7902 28.0126 57.8546 28.3307 57.8546 28.6776C57.8546 29.0245 57.7902 29.3426 57.6614 29.6317C57.5371 29.9208 57.3577 30.1743 57.1231 30.3923C56.8931 30.6058 56.6217 30.7726 56.3089 30.8927C56.0007 31.0083 55.6625 31.0661 55.2945 31.0661ZM55.2945 30.4723C55.5613 30.4723 55.8074 30.4279 56.0329 30.3389C56.2629 30.2499 56.4607 30.1254 56.6263 29.9653C56.7965 29.8007 56.9276 29.6094 57.0196 29.3915C57.1162 29.1735 57.1645 28.9356 57.1645 28.6776C57.1645 28.4196 57.1162 28.1817 57.0196 27.9637C56.9276 27.7458 56.7965 27.5567 56.6263 27.3966C56.4607 27.232 56.2629 27.1053 56.0329 27.0163C55.8074 26.9273 55.5613 26.8829 55.2945 26.8829C55.0231 26.8829 54.7724 26.9273 54.5424 27.0163C54.317 27.1053 54.1191 27.232 53.9489 27.3966C53.7787 27.5567 53.6453 27.7458 53.5487 27.9637C53.4567 28.1817 53.4107 28.4196 53.4107 28.6776C53.4107 28.9356 53.4567 29.1735 53.5487 29.3915C53.6453 29.6094 53.7787 29.8007 53.9489 29.9653C54.1191 30.1254 54.317 30.2499 54.5424 30.3389C54.7724 30.4279 55.0231 30.4723 55.2945 30.4723Z" fill="#696E73"/>
<path d="M59.8016 31.0122V26.9223H58.1455V26.3418H62.1409V26.9223H60.4848V31.0122H59.8016Z" fill="#696E73"/>
<path d="M65.3667 31.0655C65.0815 31.0655 64.8146 31.0077 64.5662 30.8921C64.3178 30.7764 64.1154 30.6096 63.959 30.3917L64.3592 29.938C64.4926 30.1159 64.6421 30.2538 64.8078 30.3516C64.978 30.4451 65.1643 30.4918 65.3667 30.4918C65.9187 30.4918 66.1947 30.176 66.1947 29.5443V26.9223H64.4489V26.3418H66.8779V29.511C66.8779 30.0314 66.7491 30.4206 66.4914 30.6786C66.2384 30.9365 65.8635 31.0655 65.3667 31.0655Z" fill="#696E73"/>
<path d="M70.2847 31.0655C69.6498 31.0655 69.1507 30.8898 68.7873 30.5385C68.4239 30.1871 68.2422 29.6733 68.2422 28.9973V26.3418H68.9322V28.9706C68.9322 29.491 69.0495 29.8713 69.2841 30.1115C69.5233 30.3516 69.8592 30.4717 70.2916 30.4717C70.7286 30.4717 71.0644 30.3516 71.299 30.1115C71.5382 29.8713 71.6579 29.491 71.6579 28.9706V26.3418H72.3272V28.9973C72.3272 29.6733 72.1455 30.1871 71.7821 30.5385C71.4232 30.8898 70.9241 31.0655 70.2847 31.0655Z" fill="#696E73"/>
<path d="M75.1491 31.0661C74.7811 31.0661 74.4291 31.0128 74.0933 30.906C73.7575 30.7948 73.493 30.6525 73.2998 30.479L73.5551 29.9586C73.7391 30.1143 73.9737 30.2433 74.2589 30.3456C74.5441 30.4479 74.8409 30.499 75.1491 30.499C75.4297 30.499 75.6574 30.4679 75.8322 30.4056C76.007 30.3433 76.1358 30.2588 76.2186 30.1521C76.3014 30.0409 76.3428 29.9163 76.3428 29.7785C76.3428 29.6183 76.2876 29.4893 76.1772 29.3915C76.0714 29.2936 75.9311 29.2158 75.7563 29.158C75.5861 29.0957 75.3975 29.0423 75.1905 28.9979C74.9835 28.9534 74.7742 28.9022 74.5625 28.8444C74.3555 28.7821 74.1646 28.7043 73.9898 28.6109C73.8196 28.5175 73.6816 28.3929 73.5758 28.2373C73.47 28.0771 73.4171 27.8725 73.4171 27.6234C73.4171 27.3833 73.4815 27.1631 73.6103 26.9629C73.7437 26.7583 73.9461 26.596 74.2175 26.4759C74.4935 26.3513 74.8432 26.2891 75.2664 26.2891C75.547 26.2891 75.8253 26.3247 76.1013 26.3958C76.3773 26.467 76.6166 26.5693 76.819 26.7027L76.5913 27.2365C76.3842 27.103 76.1657 27.0074 75.9357 26.9496C75.7057 26.8873 75.4826 26.8562 75.2664 26.8562C74.995 26.8562 74.7718 26.8895 74.597 26.9563C74.4222 27.023 74.2934 27.1119 74.2106 27.2231C74.1324 27.3343 74.0933 27.4589 74.0933 27.5968C74.0933 27.7613 74.1462 27.8925 74.252 27.9904C74.3624 28.0883 74.5027 28.1661 74.6729 28.2239C74.8478 28.2817 75.0387 28.3351 75.2457 28.384C75.4527 28.4285 75.6597 28.4797 75.8667 28.5375C76.0783 28.5953 76.2692 28.6709 76.4395 28.7643C76.6143 28.8577 76.7546 28.9823 76.8604 29.138C76.9662 29.2936 77.0191 29.4938 77.0191 29.7384C77.0191 29.9742 76.9524 30.1943 76.819 30.3989C76.6856 30.5991 76.4786 30.7615 76.1979 30.886C75.9219 31.0061 75.5723 31.0661 75.1491 31.0661Z" fill="#696E73"/>
<path d="M78.9188 31.0122V26.9223H77.2627V26.3418H81.258V26.9223H79.6019V31.0122H78.9188Z" fill="#696E73"/>
<path d="M83.1318 31.0122L85.3193 26.3418H86.0024L88.1968 31.0122H87.4722L85.5194 26.7155H85.7954L83.8426 31.0122H83.1318ZM84.0634 29.8446L84.2497 29.3108H86.9685L87.1686 29.8446H84.0634Z" fill="#696E73"/>
<path d="M90.7695 31.0122V26.3418H92.8052C93.3204 26.3418 93.7735 26.4397 94.1645 26.6354C94.5602 26.8311 94.8661 27.1047 95.0823 27.456C95.3031 27.8074 95.4135 28.2144 95.4135 28.677C95.4135 29.1396 95.3031 29.5466 95.0823 29.898C94.8661 30.2493 94.5602 30.5229 94.1645 30.7186C93.7735 30.9143 93.3204 31.0122 92.8052 31.0122H90.7695ZM91.4596 30.4317H92.7638C93.164 30.4317 93.509 30.3583 93.7988 30.2115C94.0932 30.0648 94.3209 29.8601 94.482 29.5977C94.643 29.3308 94.7235 29.0239 94.7235 28.677C94.7235 28.3256 94.643 28.0187 94.482 27.7563C94.3209 27.4939 94.0932 27.2892 93.7988 27.1425C93.509 26.9957 93.164 26.9223 92.7638 26.9223H91.4596V30.4317Z" fill="#696E73"/>
<path d="M96.4707 31.0122V26.3418H99.8795V26.9223H97.1607V30.4317H99.9761V31.0122H96.4707ZM97.0986 28.9239V28.3568H99.5827V28.9239H97.0986Z" fill="#696E73"/>
<path d="M102.501 31.0661C102.133 31.0661 101.781 31.0128 101.446 30.906C101.11 30.7948 100.845 30.6525 100.652 30.479L100.907 29.9586C101.091 30.1143 101.326 30.2433 101.611 30.3456C101.896 30.4479 102.193 30.499 102.501 30.499C102.782 30.499 103.01 30.4679 103.185 30.4056C103.359 30.3433 103.488 30.2588 103.571 30.1521C103.654 30.0409 103.695 29.9163 103.695 29.7785C103.695 29.6183 103.64 29.4893 103.53 29.3915C103.424 29.2936 103.283 29.2158 103.109 29.158C102.938 29.0957 102.75 29.0423 102.543 28.9979C102.336 28.9534 102.126 28.9022 101.915 28.8444C101.708 28.7821 101.517 28.7043 101.342 28.6109C101.172 28.5175 101.034 28.3929 100.928 28.2373C100.822 28.0771 100.769 27.8725 100.769 27.6234C100.769 27.3833 100.834 27.1631 100.963 26.9629C101.096 26.7583 101.298 26.596 101.57 26.4759C101.846 26.3513 102.195 26.2891 102.619 26.2891C102.899 26.2891 103.178 26.3247 103.454 26.3958C103.73 26.467 103.969 26.5693 104.171 26.7027L103.944 27.2365C103.737 27.103 103.518 27.0074 103.288 26.9496C103.058 26.8873 102.835 26.8562 102.619 26.8562C102.347 26.8562 102.124 26.8895 101.949 26.9563C101.775 27.023 101.646 27.1119 101.563 27.2231C101.485 27.3343 101.446 27.4589 101.446 27.5968C101.446 27.7613 101.499 27.8925 101.604 27.9904C101.715 28.0883 101.855 28.1661 102.025 28.2239C102.2 28.2817 102.391 28.3351 102.598 28.384C102.805 28.4285 103.012 28.4797 103.219 28.5375C103.431 28.5953 103.622 28.6709 103.792 28.7643C103.967 28.8577 104.107 28.9823 104.213 29.138C104.318 29.2936 104.371 29.4938 104.371 29.7384C104.371 29.9742 104.305 30.1943 104.171 30.3989C104.038 30.5991 103.831 30.7615 103.55 30.886C103.274 31.0061 102.925 31.0661 102.501 31.0661Z" fill="#696E73"/>
<path d="M105.379 31.0122V26.3418H106.07V31.0122H105.379Z" fill="#696E73"/>
<path d="M109.696 31.0661C109.324 31.0661 108.981 31.0083 108.668 30.8927C108.355 30.7726 108.084 30.6058 107.854 30.3923C107.624 30.1743 107.444 29.9208 107.316 29.6317C107.187 29.3426 107.122 29.0245 107.122 28.6776C107.122 28.3307 107.187 28.0126 107.316 27.7235C107.444 27.4344 107.624 27.1831 107.854 26.9696C108.088 26.7517 108.362 26.5849 108.675 26.4692C108.988 26.3491 109.333 26.2891 109.71 26.2891C110.092 26.2891 110.441 26.3491 110.759 26.4692C111.076 26.5893 111.345 26.7694 111.566 27.0096L111.138 27.4233C110.941 27.2365 110.724 27.1008 110.49 27.0163C110.26 26.9273 110.009 26.8829 109.738 26.8829C109.462 26.8829 109.204 26.9273 108.965 27.0163C108.73 27.1053 108.525 27.2298 108.351 27.3899C108.18 27.5501 108.047 27.7413 107.95 27.9637C107.858 28.1817 107.812 28.4196 107.812 28.6776C107.812 28.9311 107.858 29.1691 107.95 29.3915C108.047 29.6094 108.18 29.8007 108.351 29.9653C108.525 30.1254 108.73 30.2499 108.965 30.3389C109.199 30.4279 109.455 30.4723 109.731 30.4723C109.988 30.4723 110.234 30.4345 110.469 30.3589C110.708 30.2789 110.929 30.1476 111.131 29.9653L111.525 30.4723C111.286 30.668 111.005 30.8171 110.683 30.9194C110.366 31.0172 110.037 31.0661 109.696 31.0661ZM111.525 30.4723L110.862 30.3856V28.6509H111.525V30.4723Z" fill="#696E73"/>
<path d="M112.846 31.0122V26.3418H113.412L116.607 30.1782H116.31V26.3418H117V31.0122H116.434L113.239 27.1758H113.536V31.0122H112.846Z" fill="#696E73"/>
<path d="M0.0341797 17.3801V0.292969H4.08984V17.3801H0.0341797Z" fill="#696E73"/>
<path d="M8.24902 17.3801V0.292969H11.6037L21.9432 12.5957H20.3159V0.292969H24.3215V17.3801H20.9919L10.6274 5.07737H12.2547V17.3801H8.24902Z" fill="#696E73"/>
<path d="M32.098 17.3801V3.51512H26.4902V0.292969H41.7615V3.51512H36.1536V17.3801H32.098Z" fill="#696E73"/>
<path d="M43.9434 17.3801V0.292969H51.9045C53.8072 0.292969 55.4845 0.650985 56.9366 1.36702C58.3886 2.06678 59.5235 3.05132 60.3413 4.32065C61.1591 5.58999 61.568 7.09528 61.568 8.83654C61.568 10.5615 61.1591 12.0668 60.3413 13.3524C59.5235 14.6217 58.3886 15.6144 56.9366 16.3304C55.4845 17.0302 53.8072 17.3801 51.9045 17.3801H43.9434ZM47.9991 14.1335H51.7042C52.8725 14.1335 53.8823 13.922 54.7335 13.4988C55.6014 13.0595 56.269 12.4411 56.7363 11.6437C57.2203 10.8463 57.4623 9.91059 57.4623 8.83654C57.4623 7.74622 57.2203 6.81049 56.7363 6.02937C56.269 5.23197 55.6014 4.62171 54.7335 4.1986C53.8823 3.75922 52.8725 3.53953 51.7042 3.53953H47.9991V14.1335Z" fill="#696E73"/>
<path d="M64.626 17.3801V0.292969H77.8695V3.4663H68.6566V14.2067H78.1949V17.3801H64.626ZM68.3562 10.2523V7.17665H76.793V10.2523H68.3562Z" fill="#696E73"/>
<path d="M89.8086 17.673C88.4567 17.673 87.1966 17.4614 86.0283 17.0383C84.8767 16.5989 83.8753 15.9805 83.0241 15.1831C82.1729 14.3857 81.5053 13.45 81.0213 12.376C80.554 11.3019 80.3203 10.1221 80.3203 8.83649C80.3203 7.55089 80.554 6.37106 81.0213 5.29701C81.5053 4.22296 82.1729 3.28724 83.0241 2.48984C83.892 1.69244 84.9017 1.08218 86.0533 0.659074C87.205 0.219691 88.465 0 89.8336 0C91.3524 0 92.721 0.260375 93.9393 0.781127C95.1744 1.2856 96.2092 2.03418 97.0437 3.02687L94.44 5.37024C93.8392 4.70303 93.1716 4.20669 92.4373 3.88122C91.7029 3.53948 90.9018 3.36861 90.0339 3.36861C89.2161 3.36861 88.465 3.4988 87.7808 3.75917C87.0965 4.01955 86.504 4.39383 86.0033 4.88204C85.5026 5.37024 85.1104 5.94795 84.8266 6.61516C84.5596 7.28238 84.4261 8.02282 84.4261 8.83649C84.4261 9.65017 84.5596 10.3906 84.8266 11.0578C85.1104 11.725 85.5026 12.3027 86.0033 12.7909C86.504 13.2791 87.0965 13.6534 87.7808 13.9138C88.465 14.1742 89.2161 14.3044 90.0339 14.3044C90.9018 14.3044 91.7029 14.1416 92.4373 13.8162C93.1716 13.4744 93.8392 12.9618 94.44 12.2783L97.0437 14.6217C96.2092 15.6144 95.1744 16.3711 93.9393 16.8919C92.721 17.4126 91.3441 17.673 89.8086 17.673Z" fill="#696E73"/>
<path d="M107.268 17.673C105.883 17.673 104.598 17.4533 103.413 17.0139C102.244 16.5745 101.226 15.9561 100.358 15.1587C99.5069 14.3613 98.8393 13.4256 98.3553 12.3516C97.888 11.2775 97.6543 10.1058 97.6543 8.83649C97.6543 7.56716 97.888 6.39547 98.3553 5.32142C98.8393 4.24738 99.5152 3.31165 100.383 2.51425C101.251 1.71685 102.269 1.09846 103.438 0.659074C104.606 0.219691 105.874 0 107.243 0C108.628 0 109.897 0.219691 111.048 0.659074C112.217 1.09846 113.226 1.71685 114.077 2.51425C114.945 3.31165 115.621 4.24738 116.105 5.32142C116.589 6.3792 116.831 7.55089 116.831 8.83649C116.831 10.1058 116.589 11.2856 116.105 12.376C115.621 13.45 114.945 14.3857 114.077 15.1831C113.226 15.9643 112.217 16.5745 111.048 17.0139C109.897 17.4533 108.636 17.673 107.268 17.673ZM107.243 14.3044C108.027 14.3044 108.745 14.1742 109.396 13.9138C110.063 13.6534 110.648 13.2791 111.148 12.7909C111.649 12.3027 112.033 11.725 112.3 11.0578C112.584 10.3906 112.726 9.65017 112.726 8.83649C112.726 8.02282 112.584 7.28238 112.3 6.61516C112.033 5.94795 111.649 5.37024 111.148 4.88204C110.664 4.39383 110.089 4.01955 109.421 3.75917C108.753 3.4988 108.027 3.36861 107.243 3.36861C106.458 3.36861 105.732 3.4988 105.065 3.75917C104.414 4.01955 103.838 4.39383 103.337 4.88204C102.837 5.37024 102.445 5.94795 102.161 6.61516C101.894 7.28238 101.76 8.02282 101.76 8.83649C101.76 9.63389 101.894 10.3743 102.161 11.0578C102.445 11.725 102.828 12.3027 103.312 12.7909C103.813 13.2791 104.397 13.6534 105.065 13.9138C105.732 14.1742 106.458 14.3044 107.243 14.3044Z" fill="#696E73"/>
</g>
<defs>
<clipPath id="clip0_265_211">
<rect width="117" height="32" fill="white"/>
</clipPath>
</defs>
</svg>
