<svg width="141" height="32" viewBox="0 0 141 32" fill="none" xmlns="http://www.w3.org/2000/svg">
<g clip-path="url(#clip0_265_244)">
<rect width="141" height="32" fill="#696E73"/>
<path d="M26.5328 0.332901C27.1051 0.110967 27.9091 0 28.9448 0C29.9805 0 30.9072 0.0693541 31.7248 0.208062C30.8799 6.58864 30.2122 12.3728 29.7216 17.5605C29.2583 22.7204 28.9993 25.4391 28.9448 25.7165C28.9176 25.9939 28.9039 26.2436 28.9039 26.4655C28.9312 27.1868 29.2719 27.5475 29.926 27.5475C31.5613 27.5475 33.8371 25.6333 36.7534 21.8049C37.2712 23.2752 37.571 24.2601 37.6528 24.7594C36.3446 26.8678 34.7638 28.6016 32.9104 29.961C31.0843 31.2926 29.3537 31.9584 27.7184 31.9584C26.0831 31.9584 24.952 31.5284 24.3251 30.6684C23.6982 29.8084 23.3848 28.8513 23.3848 27.7971C23.3848 27.5475 23.4121 27.062 23.4666 26.3407C23.5483 25.6194 24.0934 21.1253 25.1019 12.8583L18.3971 28.6294H14.9221L12.9189 13.1079L10.0571 26.0078C9.59377 28.0607 8.83063 29.5726 7.76768 30.5436C6.73199 31.5145 5.58728 32 4.33355 32C3.07982 32 2.05775 31.6255 1.26736 30.8765C0.422453 30.072 0 28.9345 0 27.4642C0 24.5236 2.23491 22.013 6.70474 19.9324C9.13043 8.08669 10.4387 1.52579 10.6295 0.249674C11.2836 0.0832247 12.1557 0 13.2459 0C14.3634 0 15.1265 0.0277413 15.5354 0.0832239H15.8215L18.3563 19.433L26.5328 0.540963V0.332901ZM2.90266 26.7568C2.90266 27.6446 3.24335 28.0884 3.92472 28.0884C4.38806 28.0884 4.76963 27.7139 5.06943 26.9649C5.451 26.0494 5.76444 24.8427 6.00973 23.3446C3.93835 24.5375 2.90266 25.6749 2.90266 26.7568Z" fill="#696E73"/>
<path d="M44.7075 11.6934C47.215 11.6934 49.3 12.5118 50.9625 14.1485C52.6524 15.7853 53.4973 17.7827 53.4973 20.1407C53.4973 23.7194 52.4616 26.5907 50.3902 28.7545C48.3461 30.8906 45.8659 31.9587 42.9496 31.9587C40.0333 31.9587 37.7166 31.1126 35.9995 29.4203C34.3097 27.7281 33.4648 25.6336 33.4648 23.1368C33.4648 19.6414 34.5141 16.8672 36.6128 14.8143C38.7387 12.7337 41.4369 11.6934 44.7075 11.6934ZM43.8899 15.064C42.6089 15.064 41.5323 15.813 40.6601 17.3111C39.788 18.8091 39.311 20.6956 39.2293 22.9704C39.2293 24.5794 39.5427 25.911 40.1696 26.9652C40.8237 28.0194 41.8049 28.5465 43.1131 28.5465C44.4213 28.5465 45.5115 27.8113 46.3837 26.341C47.2831 24.8707 47.7328 23.1923 47.7328 21.3059C47.7328 19.4195 47.4194 17.9214 46.7925 16.8117C46.1657 15.6466 45.1981 15.064 43.8899 15.064Z" fill="#696E73"/>
<path d="M70.8541 1.70649C71.0449 1.23488 71.4673 0.8465 72.1214 0.541343C72.8028 0.208442 73.6068 0.0419922 74.5335 0.0419922C75.4874 0.0419922 76.1961 0.1807 76.6594 0.458116C76.3868 2.62197 75.9508 6.02032 75.3512 10.6532C74.0974 20.335 73.4706 25.6753 73.4706 26.674C73.4706 27.645 73.8794 28.1304 74.697 28.1304C75.4057 28.1304 76.1415 27.6866 76.9047 26.7988C77.6678 25.8834 78.3628 24.3992 78.9897 22.3463C79.7528 23.0953 80.2843 23.9137 80.5841 24.8014C79.6029 28.1027 78.063 30.2388 75.9644 31.2098C75.0105 31.6814 74.111 31.9172 73.2661 31.9172C70.8404 31.9172 69.2188 31.0294 68.4011 29.254C66.9839 31.0572 65.1714 31.9588 62.9637 31.9588C60.7561 31.9588 58.8891 31.1959 57.3628 29.6701C55.8638 28.1443 55.1143 26.133 55.1143 23.6363C55.1143 20.0021 56.1636 17.1031 58.2623 14.9393C60.3609 12.7754 63.0183 11.6935 66.2343 11.6935C66.3161 11.6935 66.3979 11.6935 66.4796 11.6935C67.5971 11.6935 68.6464 11.86 69.6276 12.1929L70.8541 1.70649ZM66.8476 14.9393C65.1033 14.9393 63.7133 15.619 62.6776 16.9783C61.6691 18.3099 61.0695 20.3073 60.8787 22.9705C60.8515 23.2202 60.8379 23.456 60.8379 23.6779C60.8379 25.0372 61.1513 26.1192 61.7782 26.9237C62.4323 27.7282 63.2636 28.1304 64.272 28.1304C65.9891 28.1304 67.2837 26.8959 68.1558 24.4269L69.2188 15.4802C68.3194 15.1196 67.529 14.9393 66.8476 14.9393Z" fill="#696E73"/>
<path d="M95.827 31.9171C93.3196 31.9171 91.657 31.0293 90.8394 29.2539C89.4221 31.0571 87.596 31.9587 85.3611 31.9587C83.1534 31.9587 81.2865 31.1958 79.7602 29.67C78.2612 28.1442 77.5117 26.1329 77.5117 23.6362C77.5117 20.002 78.561 17.103 80.6596 14.9392C82.7582 12.7753 85.4156 11.6934 88.6317 11.6934C88.7135 11.6934 88.7952 11.6934 88.877 11.6934C90.2398 11.6934 91.4935 11.9292 92.6382 12.4008C93.3741 11.9292 94.2599 11.6934 95.2956 11.6934C96.3585 11.6934 97.1216 11.8321 97.585 12.1095C97.3397 14.1624 97.0808 16.1876 96.8082 18.185C96.5357 20.1546 96.3449 21.5556 96.2359 22.3878C95.9906 24.2742 95.8679 25.6336 95.8679 26.4658C95.8679 27.5755 96.304 28.1303 97.1762 28.1303C97.8575 28.1303 98.5798 27.6726 99.3429 26.7571C100.106 25.8139 100.774 24.3436 101.346 22.3462C102.136 23.0675 102.681 23.872 102.981 24.7597C102.191 27.3952 101.128 29.2539 99.7926 30.3358C98.4571 31.39 97.1353 31.9171 95.827 31.9171ZM89.2449 14.9392C87.5006 14.9392 86.1106 15.6189 85.0749 16.9782C84.0665 18.3098 83.4669 20.3072 83.2761 22.9704C83.2488 23.2201 83.2352 23.4559 83.2352 23.6778C83.2352 25.0371 83.5486 26.1191 84.1755 26.9236C84.8296 27.7281 85.6609 28.1303 86.6693 28.1303C88.3864 28.1303 89.681 26.8958 90.5532 24.4268L91.5344 15.4385C90.744 15.1056 89.9808 14.9392 89.2449 14.9392Z" fill="#696E73"/>
<path d="M115.403 24.2605C114.558 26.5076 113.332 28.3524 111.724 29.7949C110.143 31.2098 108.331 31.9172 106.287 31.9172C104.242 31.9172 102.703 31.2375 101.667 29.8782C100.658 28.4911 100.154 26.9098 100.154 25.1343C100.154 24.7737 100.168 24.4131 100.195 24.0524L101.585 12.1929C102.457 11.86 103.384 11.6935 104.365 11.6935C106.164 11.6935 107.063 12.3732 107.063 13.7325C107.063 13.788 106.832 15.6467 106.368 19.3086C105.932 22.9427 105.714 25.0511 105.714 25.6337C105.714 27.215 106.464 28.0056 107.963 28.0056C109.244 28.0056 110.32 27.2704 111.192 25.8001C112.719 23.1369 113.523 20.127 113.605 16.7702H113.237C112.092 16.7702 111.22 16.5067 110.62 15.9796C109.939 15.3693 109.598 14.6341 109.598 13.7741C109.598 12.9141 109.857 12.2206 110.375 11.6935C111.002 11.1387 111.751 10.8613 112.623 10.8613C114.695 10.8613 115.989 11.9571 116.507 14.1486C117.325 14.0377 117.911 13.9267 118.265 13.8157V16.1877L116.753 16.4373V17.1447C116.725 19.6415 116.276 22.0134 115.403 24.2605ZM111.928 13.7741C111.928 14.2457 112.324 14.4815 113.114 14.4815C113.196 14.4815 113.278 14.4815 113.359 14.4815C113.168 13.7325 112.882 13.358 112.501 13.358C112.119 13.358 111.928 13.4967 111.928 13.7741Z" fill="#696E73"/>
<path d="M126.201 22.3878C127.89 22.0272 129.144 21.3336 129.962 20.3072C130.807 19.2808 131.229 18.2959 131.229 17.3527C131.229 16.3817 130.97 15.7298 130.452 15.3969C129.962 15.0363 129.417 14.856 128.817 14.856C127.536 14.856 126.405 15.5911 125.424 17.0614C124.47 18.504 123.993 20.2378 123.993 22.263C123.993 24.2604 124.456 25.7584 125.383 26.7571C126.337 27.7281 127.509 28.2136 128.899 28.2136C130.943 28.2136 132.905 27.4923 134.786 26.0497C136.666 24.6071 138.193 22.7207 139.365 20.3904C139.964 20.973 140.509 21.6943 141 22.5543C140.101 24.6349 138.506 26.6739 136.217 28.6713C135.072 29.6423 133.709 30.4329 132.129 31.0432C130.575 31.6535 128.967 31.9587 127.304 31.9587C124.579 31.9587 122.426 31.1126 120.845 29.4203C119.155 27.5894 118.31 25.2452 118.31 22.3878C118.31 19.5304 119.36 17.0337 121.458 14.8976C123.584 12.7615 126.119 11.6934 129.062 11.6934C131.161 11.6934 132.864 12.165 134.173 13.1082C135.481 14.0237 136.149 15.2721 136.176 16.8534C136.176 18.9895 135.331 20.7233 133.641 22.0549C131.979 23.3865 129.689 24.3159 126.773 24.843L126.201 22.3878Z" fill="#696E73"/>
</g>
<defs>
<clipPath id="clip0_265_244">
<rect width="141" height="32" fill="white"/>
</clipPath>
</defs>
</svg>
