<svg width="156" height="33" viewBox="0 0 156 33" fill="none" xmlns="http://www.w3.org/2000/svg">
<g clip-path="url(#clip0_281_2101)">
<rect width="156" height="33" fill="#696E73"/>
<path d="M0 29.6985C5.56398 29.6985 10.0744 25.2661 10.0744 19.7985C10.0744 14.3308 5.56398 9.89844 0 9.89844V16.8284C1.66918 16.8284 3.02231 18.1581 3.02231 19.7985C3.02231 21.4387 1.66918 22.7685 0 22.7685V29.6985Z" fill="#696E73"/>
<path d="M33.5812 13.2001C31.8596 12.6642 30.0263 12.375 28.1242 12.375C18.1554 12.375 10.0742 20.3165 10.0742 30.1126C10.0742 31.0958 10.1556 32.0604 10.3122 33.0001H21.5272C21.1269 32.1181 20.9043 31.1409 20.9043 30.1126C20.9043 26.1941 24.1367 23.0175 28.1242 23.0175C30.3036 23.0175 32.2574 23.9664 33.5812 25.4667V13.2001Z" fill="#696E73"/>
<path d="M1.77148 0C2.60672 7.42494 9.01254 13.2001 16.7909 13.2001C24.5692 13.2001 30.9751 7.42494 31.8103 0H21.0032C20.3361 1.64359 18.7014 2.805 16.7909 2.805C14.8803 2.805 13.2458 1.64359 12.5785 0H1.77148Z" fill="#696E73"/>
<path d="M45.2695 6.70703H50.8949C52.4163 6.70703 53.5838 6.82437 54.3976 7.05905C55.2202 7.29373 55.8349 7.63272 56.2418 8.076C56.6575 8.51929 56.9361 9.05819 57.0776 9.69269C57.228 10.3186 57.3032 11.292 57.3032 12.6132V14.4515C57.3032 15.7988 57.1616 16.781 56.8786 17.3981C56.5956 18.0152 56.0737 18.4889 55.313 18.8192C54.5612 19.1495 53.575 19.3147 52.3544 19.3147H50.8551V27.8153H45.2695V6.70703ZM50.8551 10.3186V15.6901C51.0144 15.6988 51.1515 15.7032 51.2664 15.7032C51.7794 15.7032 52.1332 15.5815 52.3278 15.3381C52.5313 15.0861 52.633 14.5689 52.633 13.7866V12.0526C52.633 11.3312 52.518 10.8618 52.288 10.6445C52.0581 10.4272 51.5804 10.3186 50.8551 10.3186Z" fill="#696E73"/>
<path d="M67.8645 6.70703L71.0619 27.8153H65.3437L65.065 24.0213H63.0616L62.73 27.8153H56.9453L59.7846 6.70703H67.8645ZM64.9058 20.2795C64.6228 17.8892 64.3397 14.9383 64.0567 11.4268C63.4906 15.4598 63.1368 18.4107 62.9953 20.2795H64.9058Z" fill="#696E73"/>
<path d="M84.4891 6.70703V27.8153H79.5933L76.6878 18.2194V27.8153H72.0176V6.70703H76.6878L79.8189 16.2117V6.70703H84.4891Z" fill="#696E73"/>
<path d="M96.3899 6.70703L99.5874 27.8153H93.8691L93.5905 24.0213H91.5871L91.2554 27.8153H85.4707L88.31 6.70703H96.3899ZM93.4312 20.2795C93.1482 17.8892 92.8652 14.9383 92.5821 11.4268C92.016 15.4598 91.6622 18.4107 91.5207 20.2795H93.4312Z" fill="#696E73"/>
<path d="M100.543 6.70703H104.722C107.42 6.70703 109.242 6.82872 110.188 7.07209C111.144 7.31546 111.869 7.71529 112.364 8.27157C112.86 8.82785 113.169 9.44932 113.293 10.136C113.417 10.814 113.479 12.1525 113.479 14.1517V21.5441C113.479 23.439 113.386 24.708 113.2 25.3512C113.023 25.9857 112.709 26.4855 112.258 26.8505C111.807 27.2069 111.25 27.4589 110.586 27.6067C109.923 27.7458 108.924 27.8153 107.588 27.8153H100.543V6.70703ZM106.129 10.3186V24.2038C106.933 24.2038 107.429 24.0474 107.614 23.7345C107.8 23.4129 107.893 22.548 107.893 21.14V12.9392C107.893 11.9831 107.862 11.3703 107.8 11.1008C107.738 10.8314 107.597 10.6358 107.376 10.5141C107.155 10.3837 106.739 10.3186 106.129 10.3186Z" fill="#696E73"/>
<path d="M128.324 19.0648C128.324 21.1857 128.271 22.6894 128.165 23.5759C128.068 24.4538 127.749 25.2578 127.21 25.9879C126.679 26.718 125.958 27.2787 125.047 27.6698C124.136 28.0609 123.075 28.2565 121.863 28.2565C120.713 28.2565 119.678 28.074 118.758 27.7089C117.847 27.3352 117.113 26.7789 116.556 26.0401C115.999 25.3013 115.667 24.4973 115.561 23.6281C115.455 22.7589 115.402 21.2378 115.402 19.0648V15.4534C115.402 13.3325 115.45 11.8332 115.547 10.9553C115.654 10.0687 115.972 9.26041 116.503 8.5303C117.042 7.80018 117.768 7.23955 118.679 6.84842C119.59 6.45728 120.651 6.26172 121.863 6.26172C123.013 6.26172 124.043 6.44859 124.954 6.82234C125.874 7.1874 126.613 7.73934 127.17 8.47815C127.727 9.21696 128.059 10.0209 128.165 10.8901C128.271 11.7593 128.324 13.2804 128.324 15.4534V19.0648ZM122.738 12.1287C122.738 11.1465 122.681 10.5207 122.566 10.2513C122.46 9.97315 122.234 9.83408 121.889 9.83408C121.597 9.83408 121.372 9.94707 121.213 10.173C121.062 10.3903 120.987 11.0422 120.987 12.1287V21.9853C120.987 23.2109 121.036 23.9671 121.133 24.2539C121.239 24.5407 121.478 24.6841 121.85 24.6841C122.23 24.6841 122.473 24.519 122.579 24.1887C122.685 23.8584 122.738 23.0718 122.738 21.8289V12.1287Z" fill="#696E73"/>
<path d="M141.738 6.70703L139.788 16.0422L142.734 27.8153H137.559C136.94 25.7119 136.374 23.1521 135.861 20.136C135.719 21.4659 135.525 22.8783 135.277 24.3733L134.747 27.8153H129.307L131.324 16.0422L129.307 6.70703H134.707C134.804 7.28939 134.999 8.25853 135.29 9.61447C135.52 10.6488 135.711 11.5963 135.861 12.4568L137.055 6.70703H141.738Z" fill="#696E73"/>
<path d="M156 6.70703V27.8153H151.104L148.199 18.2194V27.8153H143.529V6.70703H148.199L151.33 16.2117V6.70703H156Z" fill="#696E73"/>
</g>
<defs>
<clipPath id="clip0_281_2101">
<rect width="156" height="33" fill="white"/>
</clipPath>
</defs>
</svg>
