<svg width="159" height="44" viewBox="0 0 159 44" fill="none" xmlns="http://www.w3.org/2000/svg">
<g clip-path="url(#clip0_281_2113)">
<rect width="159" height="44" fill="#696E73"/>
<path fill-rule="evenodd" clip-rule="evenodd" d="M9.41366 3.95765C7.83899 5.05805 6.41506 6.35908 5.17897 7.82364C10.2302 7.35496 16.6477 8.12025 24.0983 11.8434C32.0545 15.819 38.4613 15.9534 42.92 15.0939C42.5154 13.8697 42.0061 12.6931 41.4028 11.5746C36.2987 12.1126 29.7552 11.4005 22.1294 7.58998C17.2869 5.1702 13.0184 4.17341 9.41366 3.95765ZM38.4212 7.33331C34.3905 2.8325 28.5329 0 22.0132 0C20.0986 0 18.2409 0.244318 16.4699 0.703428C18.8685 1.35749 21.4165 2.31439 24.0983 3.65449C29.6815 6.44438 34.5017 7.34268 38.4212 7.33331ZM43.8733 19.3909C38.4867 20.4539 31.0483 20.2356 22.1294 15.7788C13.7912 11.6122 7.15478 11.6647 2.6789 12.6588C2.44787 12.71 2.22228 12.7639 2.00214 12.82C1.41613 14.0937 0.948368 15.4331 0.612741 16.8239C0.971209 16.7282 1.34163 16.6373 1.72381 16.5523C7.15383 15.3464 14.826 15.3988 24.0983 20.0322C32.4366 24.1988 39.073 24.1463 43.549 23.1522C43.7023 23.1182 43.8534 23.083 44.002 23.0467C44.0183 22.6999 44.0264 22.3509 44.0264 22C44.0264 21.1172 43.9745 20.2466 43.8733 19.3909ZM43.2833 27.6895C37.9489 28.6216 30.7271 28.2638 22.1294 23.9677C13.7912 19.8011 7.15478 19.8536 2.6789 20.8476C1.68539 21.0682 0.791639 21.3369 0.00322494 21.6206C0.00107535 21.7468 0 21.8733 0 22C0 34.1503 9.85565 44 22.0132 44C32.2021 44 40.7743 37.082 43.2833 27.6895Z" fill="#696E73"/>
<path d="M67.1503 32.993C65.9 32.993 64.7377 32.7642 63.6634 32.3066C62.6068 31.849 61.691 31.2154 60.9162 30.4058C60.1589 29.5786 59.6042 28.6194 59.252 27.5282L62.2369 26.2346C62.7124 27.361 63.3992 28.2498 64.2974 28.901C65.1955 29.5346 66.2081 29.8514 67.3352 29.8514C67.9692 29.8514 68.5151 29.7546 68.973 29.561C69.4485 29.3498 69.8095 29.0682 70.0561 28.7162C70.3202 28.3642 70.4523 27.9418 70.4523 27.449C70.4523 26.8682 70.2762 26.393 69.924 26.0234C69.5894 25.6362 69.0787 25.337 68.3918 25.1258L64.6144 23.9114C63.0823 23.4362 61.9288 22.7234 61.1539 21.773C60.379 20.8226 59.9916 19.705 59.9916 18.4202C59.9916 17.2938 60.2646 16.2994 60.8105 15.437C61.374 14.5746 62.1489 13.9058 63.1351 13.4306C64.1389 12.9378 65.2836 12.6914 66.5692 12.6914C67.7491 12.6914 68.8321 12.9026 69.8183 13.325C70.8045 13.7298 71.6498 14.3018 72.3542 15.041C73.0763 15.7626 73.6134 16.6162 73.9656 17.6018L71.007 18.9218C70.6196 17.9362 70.0384 17.1794 69.2636 16.6514C68.4887 16.1058 67.5906 15.833 66.5692 15.833C65.9704 15.833 65.4421 15.9386 64.9842 16.1498C64.5263 16.3434 64.1653 16.625 63.9011 16.9946C63.6546 17.3466 63.5313 17.769 63.5313 18.2618C63.5313 18.8074 63.7074 19.2914 64.0596 19.7138C64.4119 20.1186 64.949 20.4354 65.671 20.6642L69.29 21.7994C70.8573 22.3098 72.0284 23.0138 72.8033 23.9114C73.5958 24.809 73.992 25.9178 73.992 27.2378C73.992 28.3642 73.7014 29.3586 73.1203 30.221C72.5391 31.0834 71.7379 31.761 70.7164 32.2538C69.695 32.7466 68.5063 32.993 67.1503 32.993Z" fill="#696E73"/>
<path d="M76.9355 32.6762V12.6914H80.3959V21.1394L79.9204 20.6378C80.2551 19.7754 80.801 19.1242 81.5582 18.6842C82.3331 18.2266 83.2312 17.9978 84.2527 17.9978C85.3093 17.9978 86.2427 18.2266 87.0527 18.6842C87.8804 19.1418 88.5232 19.7842 88.9811 20.6114C89.439 21.421 89.6679 22.3626 89.6679 23.4362V32.6762H86.2074V24.2546C86.2074 23.621 86.0842 23.0754 85.8376 22.6178C85.5911 22.1602 85.2477 21.8082 84.8074 21.5618C84.3847 21.2978 83.8828 21.1658 83.3017 21.1658C82.7381 21.1658 82.2362 21.2978 81.796 21.5618C81.3557 21.8082 81.0123 22.1602 80.7658 22.6178C80.5192 23.0754 80.3959 23.621 80.3959 24.2546V32.6762H76.9355Z" fill="#696E73"/>
<path d="M96.9535 32.9952C95.9497 32.9952 95.078 32.828 94.3383 32.4936C93.5987 32.1592 93.0263 31.684 92.6213 31.068C92.2163 30.4344 92.0137 29.704 92.0137 28.8768C92.0137 28.0848 92.1898 27.3808 92.5421 26.7648C92.8943 26.1312 93.4402 25.6032 94.1798 25.1808C94.9195 24.7584 95.8528 24.4592 96.9799 24.2832L101.682 23.5176V26.1576L97.6403 26.844C96.9535 26.9672 96.4428 27.1872 96.1082 27.504C95.7736 27.8208 95.6063 28.2344 95.6063 28.7448C95.6063 29.2376 95.7912 29.6336 96.161 29.9328C96.5485 30.2144 97.0239 30.3552 97.5875 30.3552C98.3095 30.3552 98.9435 30.2056 99.4894 29.9064C100.053 29.5896 100.485 29.1584 100.784 28.6128C101.101 28.0672 101.259 27.4688 101.259 26.8176V23.1216C101.259 22.5056 101.013 21.9952 100.52 21.5904C100.044 21.168 99.4102 20.9568 98.6177 20.9568C97.8781 20.9568 97.2177 21.1592 96.6365 21.564C96.073 21.9512 95.6591 22.4704 95.395 23.1216L92.5685 21.7488C92.8502 20.992 93.2905 20.3408 93.8893 19.7952C94.5056 19.232 95.2277 18.792 96.0554 18.4752C96.8831 18.1584 97.7812 18 98.7498 18C99.9297 18 100.969 18.22 101.867 18.66C102.765 19.0824 103.461 19.6808 103.954 20.4552C104.465 21.212 104.72 22.1008 104.72 23.1216V32.6784H101.444V30.2232L102.184 30.1704C101.814 30.7864 101.374 31.3056 100.863 31.728C100.352 32.1328 99.7712 32.4496 99.1196 32.6784C98.468 32.8896 97.746 32.9952 96.9535 32.9952Z" fill="#696E73"/>
<path d="M107.918 32.6784V18.3168H111.167V21.1416L110.903 20.64C111.238 19.7776 111.784 19.1264 112.541 18.6864C113.316 18.2288 114.214 18 115.235 18C116.292 18 117.225 18.2288 118.036 18.6864C118.863 19.144 119.506 19.7864 119.964 20.6136C120.422 21.4232 120.651 22.3648 120.651 23.4384V32.6784H117.19V24.2568C117.19 23.6232 117.067 23.0776 116.82 22.62C116.574 22.1624 116.23 21.8104 115.79 21.564C115.368 21.3 114.866 21.168 114.284 21.168C113.721 21.168 113.219 21.3 112.779 21.564C112.339 21.8104 111.995 22.1624 111.749 22.62C111.502 23.0776 111.379 23.6232 111.379 24.2568V32.6784H107.918Z" fill="#696E73"/>
<path d="M130.551 38.4864C129.476 38.4864 128.481 38.3104 127.566 37.9584C126.65 37.6064 125.857 37.1136 125.188 36.48C124.537 35.864 124.061 35.1336 123.762 34.2888L126.985 33.0744C127.196 33.7432 127.61 34.28 128.226 34.6848C128.86 35.1072 129.635 35.3184 130.551 35.3184C131.255 35.3184 131.871 35.1864 132.4 34.9224C132.946 34.6584 133.368 34.2712 133.668 33.7608C133.967 33.268 134.117 32.6696 134.117 31.9656V28.692L134.777 29.484C134.284 30.3464 133.624 30.9976 132.796 31.4376C131.968 31.8776 131.026 32.0976 129.97 32.0976C128.631 32.0976 127.434 31.7896 126.377 31.1736C125.32 30.5576 124.493 29.7128 123.894 28.6392C123.295 27.5656 122.996 26.36 122.996 25.0224C122.996 23.6672 123.295 22.4616 123.894 21.4056C124.493 20.3496 125.312 19.5224 126.351 18.924C127.39 18.308 128.569 18 129.89 18C130.965 18 131.907 18.2288 132.717 18.6864C133.544 19.1264 134.231 19.7688 134.777 20.6136L134.302 21.4848V18.3168H137.577V31.9656C137.577 33.2152 137.269 34.3328 136.653 35.3184C136.054 36.304 135.226 37.0784 134.17 37.6416C133.131 38.2048 131.924 38.4864 130.551 38.4864ZM130.392 28.9032C131.132 28.9032 131.775 28.7448 132.321 28.428C132.884 28.0936 133.324 27.636 133.641 27.0552C133.958 26.4744 134.117 25.8056 134.117 25.0488C134.117 24.3096 133.95 23.6496 133.615 23.0688C133.298 22.4704 132.858 22.004 132.294 21.6696C131.748 21.3352 131.114 21.168 130.392 21.168C129.67 21.168 129.019 21.3352 128.437 21.6696C127.856 22.004 127.398 22.4704 127.064 23.0688C126.747 23.6496 126.588 24.3096 126.588 25.0488C126.588 25.788 126.747 26.448 127.064 27.0288C127.398 27.6096 127.847 28.0672 128.411 28.4016C128.992 28.736 129.653 28.9032 130.392 28.9032Z" fill="#696E73"/>
<path d="M139.515 32.678L144.534 25.4708L139.488 18.3164H143.556L147.492 24.1244H145.67L149.606 18.3164H153.647L148.628 25.4708L153.621 32.678H149.579L145.696 26.8964H147.466L143.583 32.678H139.515Z" fill="#696E73"/>
<path d="M155.539 32.6758V18.3142H159V32.6758H155.539ZM155.539 16.7038V13.0078H159V16.7038H155.539Z" fill="#696E73"/>
</g>
<defs>
<clipPath id="clip0_281_2113">
<rect width="159" height="44" fill="white"/>
</clipPath>
</defs>
</svg>
