<svg width="81" height="32" viewBox="0 0 81 32" fill="none" xmlns="http://www.w3.org/2000/svg">
<g clip-path="url(#clip0_265_159)">
<rect width="81" height="32" fill="#696E73"/>
<path d="M11.37 7.76757C11.9716 6.86785 12.2724 6.02812 12.2724 5.24836C12.2724 4.4686 12.0518 3.8488 11.6106 3.38894C11.1695 2.92908 10.5879 2.69916 9.86604 2.69916C9.14413 2.69916 8.5626 2.8791 8.12143 3.23899C7.68027 3.57888 7.45969 4.12871 7.45969 4.88847C7.45969 5.62824 7.98106 6.96782 9.02381 8.90722C10.0666 10.8466 10.7283 12.0962 11.0091 12.656C11.7711 14.1756 12.1521 15.6451 12.1521 17.0647C12.1521 18.8441 11.5003 20.2937 10.1969 21.4133C8.91352 22.513 7.3895 23.0628 5.62484 23.0628C3.88024 23.0628 2.50661 22.523 1.50397 21.4433C0.501323 20.3436 0 19.064 0 17.6045C0 14.9053 1.67442 12.676 5.02326 10.9166C3.65966 8.23742 2.97786 6.36801 2.97786 5.30834C2.97786 3.8288 3.56942 2.57919 4.75254 1.55951C5.95572 0.519837 7.41958 0 9.14413 0C10.8887 0 12.2223 0.439862 13.1447 1.31959C14.0671 2.19931 14.5283 3.31896 14.5283 4.67854C14.5283 5.57826 14.2275 6.60793 13.626 7.76757H11.37ZM3.48921 19.4639C4.03064 20.0437 4.68236 20.3336 5.44437 20.3336C6.22643 20.3336 6.82802 20.1137 7.24913 19.6739C7.69029 19.214 7.91088 18.5442 7.91088 17.6645C7.91088 16.8647 7.60006 15.885 6.97842 14.7254C6.8982 14.5654 6.74781 14.2755 6.52722 13.8557C6.30664 13.4158 6.14622 13.1059 6.04595 12.926C3.80003 14.0856 2.67706 15.5451 2.67706 17.3046C2.67706 18.2043 2.94778 18.9241 3.48921 19.4639Z" fill="#696E73"/>
<path d="M22.3577 8.45703C24.2026 8.45703 25.7367 9.04684 26.9599 10.2265C28.2032 11.4061 28.8248 12.8457 28.8248 14.5452C28.8248 17.1243 28.0628 19.1937 26.5388 20.7532C25.0348 22.2927 23.21 23.0625 21.0643 23.0625C18.9187 23.0625 17.2142 22.4527 15.9508 21.2331C14.7075 20.0134 14.0859 18.5039 14.0859 16.7045C14.0859 14.1853 14.8579 12.1859 16.402 10.7064C17.9661 9.20679 19.9514 8.45703 22.3577 8.45703ZM21.7561 10.8863C20.8137 10.8863 20.0216 11.4261 19.3799 12.5058C18.7382 13.5855 18.3873 14.945 18.3271 16.5845C18.3271 17.7442 18.5577 18.7039 19.0189 19.4636C19.5002 20.2234 20.2221 20.6033 21.1846 20.6033C22.1472 20.6033 22.9493 20.0734 23.591 19.0138C24.2527 17.9541 24.5836 16.7445 24.5836 15.3849C24.5836 14.0253 24.353 12.9457 23.8918 12.1459C23.4306 11.3062 22.7187 10.8863 21.7561 10.8863Z" fill="#696E73"/>
<path d="M33.4126 8.42773C34.7161 8.42773 35.4781 8.75762 35.6987 9.41742C36.6412 8.75762 37.8343 8.42773 39.2781 8.42773C40.7219 8.42773 41.9652 9.01754 43.008 10.1972C44.0507 11.3768 44.5721 12.7564 44.5721 14.3359C44.5721 14.5559 44.5621 14.7858 44.542 15.0257C44.3214 17.6449 43.4391 19.6443 41.895 21.0238C40.351 22.3834 38.3356 23.0632 35.8491 23.0632C35.2876 23.0632 34.676 22.9932 34.0142 22.8533L33.0517 31.1007H29.1113C30.3947 20.0841 31.257 12.6065 31.6981 8.66765C32.1192 8.5077 32.6907 8.42773 33.4126 8.42773ZM40.3309 14.5459C40.3309 13.6661 40.1304 12.8864 39.7293 12.2066C39.3283 11.5268 38.7066 11.1869 37.8644 11.1869C36.7214 11.1869 35.8491 11.9267 35.2475 13.4062C34.8464 16.3653 34.6158 18.0847 34.5557 18.5646C34.5356 19.1644 34.7261 19.6143 35.1272 19.9142C35.5282 20.2141 36.0195 20.364 36.6011 20.364C37.6238 20.364 38.466 19.9042 39.1277 18.9845C39.9298 17.8448 40.3309 16.3653 40.3309 14.5459Z" fill="#696E73"/>
<path d="M48.311 0.809618C48.7722 0.329769 49.3337 0.0898438 49.9954 0.0898438C50.6572 0.0898438 51.2186 0.329769 51.6799 0.809618C52.1611 1.26947 52.4018 1.8293 52.4018 2.48909C52.4018 3.14889 52.1611 3.70871 51.6799 4.16857C51.2186 4.62842 50.6572 4.85835 49.9954 4.85835C49.3337 4.85835 48.7722 4.62842 48.311 4.16857C47.8497 3.70871 47.6191 3.14889 47.6191 2.48909C47.6191 1.8293 47.8497 1.26947 48.311 0.809618ZM47.0777 9.59687C47.2782 9.23698 47.6592 8.96707 48.2207 8.78712C48.7822 8.58719 49.3337 8.48722 49.8751 8.48722C50.4366 8.48722 50.9279 8.5572 51.349 8.69715C50.5669 14.7153 50.1759 17.7544 50.1759 17.8143C50.0756 18.2142 50.0255 18.5541 50.0255 18.834C50.0255 19.0939 50.0455 19.3239 50.0856 19.5238C50.1659 20.0436 50.5268 20.3036 51.1685 20.3036C51.8303 20.3036 52.4318 19.8837 52.9733 19.0439C53.5347 18.1842 53.9559 17.2145 54.2366 16.1349C54.377 16.2148 54.5976 16.4548 54.8983 16.8546C55.1991 17.2545 55.3796 17.5544 55.4398 17.7544C55.0387 19.3539 54.3569 20.6434 53.3944 21.6231C52.4318 22.6028 51.2788 23.0927 49.9353 23.0927C48.5917 23.0927 47.5891 22.7628 46.9273 22.103C46.2856 21.4432 45.9648 20.5935 45.9648 19.5538C45.9648 19.3339 45.9748 19.1039 45.9949 18.864L47.0777 9.59687Z" fill="#696E73"/>
<path d="M61.1084 22.9124C62.2113 24.8518 62.7628 26.4513 62.7628 27.7109C62.7628 28.9905 62.3717 30.0202 61.5897 30.8C60.8277 31.5997 59.825 31.9996 58.5817 31.9996C57.3384 31.9996 56.3157 31.6497 55.5136 30.9499C54.7316 30.2701 54.3405 29.3204 54.3405 28.1008C54.3405 27.8609 54.3806 27.381 54.4609 26.6613L55.3933 18.5638C54.2102 16.9843 53.2376 15.7247 52.4756 14.785C53.1574 13.8453 53.7289 13.3754 54.1901 13.3754C54.4107 13.3754 54.6112 13.4854 54.7917 13.7053C54.9923 13.9252 55.3231 14.3351 55.7843 14.9349L56.9274 4.85807C57.0878 3.53848 57.4086 2.46882 57.8899 1.64907C58.5316 0.589405 59.7147 0.0595703 61.4393 0.0595703C62.6625 0.0595703 63.595 0.399464 64.2367 1.07925C64.8783 1.73905 65.1992 2.65876 65.1992 3.83839C65.1992 5.4179 64.6778 6.97741 63.6351 8.51693C62.6124 10.0565 61.4192 11.406 60.0556 12.5657L59.3036 19.7934C59.6445 20.1733 60.1258 20.3632 60.7474 20.3632C61.9907 20.3632 63.0234 19.8434 63.8456 18.8037C64.6878 17.7441 65.4198 16.2545 66.0414 14.3351C66.3222 14.4951 66.6129 14.705 66.9137 14.9649C67.2346 15.2048 67.415 15.3748 67.4551 15.4748C66.9939 17.6941 66.1918 19.4135 65.0488 20.6332C63.9058 21.8528 62.5923 22.6125 61.1084 22.9124ZM62.5221 2.66876C62.4219 2.64876 62.3216 2.63877 62.2213 2.63877C61.6799 2.63877 61.3189 2.98866 61.1385 3.68844C60.958 4.38822 60.7374 5.99772 60.4767 8.51693L60.3564 9.65657C61.2187 8.77685 61.9105 7.84714 62.4319 6.86744C62.9733 5.86775 63.244 4.96804 63.244 4.16829C63.244 3.34854 63.0034 2.8487 62.5221 2.66876ZM58.4915 27.441C58.4714 27.541 58.4614 27.7509 58.4614 28.0708C58.4614 28.4107 58.5617 28.6906 58.7622 28.9106C58.9627 29.1305 59.2234 29.2405 59.5443 29.2405C59.8852 29.2405 60.186 29.1005 60.4466 28.8206C60.7073 28.5607 60.8377 28.1508 60.8377 27.591C60.8377 26.5313 60.206 25.0818 58.9427 23.2423L58.4915 27.441Z" fill="#696E73"/>
<path d="M70.2921 31.7898C69.1491 31.7898 68.1665 31.4399 67.3444 30.7401C66.5222 30.0603 66.1111 29.0606 66.1111 27.741C66.1111 26.1215 66.9333 24.542 68.5776 23.0025C67.4145 22.9025 66.4821 22.5227 65.7802 21.8629C65.0784 21.2031 64.7275 20.2734 64.7275 19.0737C64.7275 18.5139 64.7976 17.6742 64.938 16.5545C65.0784 15.4349 65.2288 14.2253 65.3892 12.9257C65.5496 11.6261 65.7201 10.2465 65.9006 8.78692C66.5222 8.56699 67.0937 8.45703 67.6151 8.45703C68.1364 8.45703 68.5275 8.47702 68.7882 8.51701C69.0489 8.557 69.2995 8.70695 69.5402 8.96687C69.7808 9.22679 69.9011 9.59667 69.9011 10.0766L68.9085 17.7242C68.8684 18.0441 68.8483 18.264 68.8483 18.384C68.8483 19.5636 69.3898 20.1534 70.4726 20.1534C71.4552 20.1534 72.2573 19.6935 72.879 18.7738C72.9391 18.314 73.0895 16.9944 73.3302 14.8151C73.5708 12.6158 73.7713 10.9063 73.9317 9.68664C74.1122 9.30676 74.4832 9.00685 75.0447 8.78692C75.6262 8.56699 76.0975 8.45703 76.4584 8.45703C77.1001 8.45703 77.6816 8.537 78.203 8.69695L76.7893 19.7635C79.1355 20.1834 80.5392 21.7929 81.0004 24.592C80.9202 24.9719 80.5392 25.5717 79.8574 26.3915C79.4563 23.8922 78.3534 22.3727 76.5486 21.8329L76.0674 25.5817C75.8468 27.3811 75.2753 28.8607 74.3529 30.0203C73.4304 31.2 72.0768 31.7898 70.2921 31.7898ZM68.4573 27.1712C68.4573 27.831 68.6177 28.3209 68.9386 28.6408C69.2594 28.9607 69.6805 29.1206 70.2019 29.1206C70.7433 29.1206 71.1544 28.9007 71.4352 28.4608C71.7159 28.0209 71.9365 27.1412 72.0969 25.8216L72.4879 22.5227C69.861 23.8822 68.5175 25.4318 68.4573 27.1712Z" fill="#696E73"/>
</g>
<defs>
<clipPath id="clip0_265_159">
<rect width="81" height="32" fill="white"/>
</clipPath>
</defs>
</svg>
