<svg width="126" height="40" viewBox="0 0 126 40" fill="none" xmlns="http://www.w3.org/2000/svg">
<g clip-path="url(#clip0_281_2122)">
<rect width="126" height="40" fill="#696E73"/>
<path d="M0.11169 31.5959C0.11169 30.9044 0.0722698 30.0417 0 29.0078C0.926368 29.0407 2.49002 29.0539 4.69097 29.0539C6.89191 29.0539 8.45557 29.0407 9.3688 29.0078C9.29653 30.0351 9.25711 30.8978 9.25711 31.5959C9.25711 32.0305 9.27682 32.4191 9.30967 32.7549H8.96146C8.79064 31.9054 8.58697 31.2403 8.34388 30.7464C8.10079 30.2525 7.81171 29.8968 7.47664 29.6861C7.135 29.4688 6.72766 29.3634 6.24148 29.3634H5.89328V38.0562C5.89328 38.4777 5.93927 38.7872 6.02468 38.9782C6.11009 39.1691 6.26119 39.3009 6.48457 39.3733C6.70138 39.4457 7.04959 39.4787 7.51606 39.4852V39.7882C6.24148 39.7553 5.28227 39.7421 4.63184 39.7421C3.99455 39.7421 3.06818 39.7553 1.85274 39.7882V39.4852C2.32577 39.4787 2.67398 39.4457 2.89736 39.3733C3.11417 39.3009 3.27185 39.1757 3.35069 38.9782C3.4361 38.7872 3.47552 38.4777 3.47552 38.0562V29.3634H3.14045C2.65427 29.3634 2.24036 29.4688 1.89873 29.6861C1.55709 29.8968 1.26801 30.2525 1.02492 30.7464C0.781828 31.2403 0.578159 31.912 0.400769 32.7615H0.0591299C0.0919798 32.4125 0.11169 32.0305 0.11169 31.5959Z" fill="#696E73"/>
<path d="M26.188 37.4713C26.188 38.3999 26.2208 39.1704 26.2931 39.7828C25.6033 39.7499 24.4469 39.7367 22.8176 39.7367C20.6166 39.7367 18.9676 39.7499 17.877 39.7828V39.4799C18.212 39.4667 18.4551 39.4272 18.6128 39.3614C18.7705 39.2955 18.869 39.177 18.9282 39.0057C18.9873 38.8345 19.0136 38.5579 19.0136 38.176V30.6225C19.0136 30.2405 18.9873 29.9639 18.9282 29.7927C18.869 29.6215 18.7639 29.5029 18.6128 29.4371C18.4617 29.3712 18.212 29.3317 17.877 29.3185V29.0156C18.9676 29.0485 20.6166 29.0617 22.8176 29.0617C24.3024 29.0617 25.3602 29.0485 25.9909 29.0156C25.9252 29.852 25.8858 30.6027 25.8858 31.2678C25.8858 31.7156 25.8989 32.0647 25.9318 32.3018H25.5835C25.4784 31.5642 25.3207 30.9847 25.1105 30.5566C24.9003 30.1286 24.6309 29.8256 24.3024 29.6412C23.9739 29.4568 23.5731 29.3646 23.0935 29.3646H22.4694C22.154 29.3646 21.9241 29.391 21.7861 29.4437C21.6416 29.4963 21.5496 29.5951 21.497 29.74C21.4445 29.8849 21.4247 30.122 21.4247 30.4512V34.2181H21.9044C22.4497 34.2181 22.857 34.0206 23.1329 33.6254C23.4089 33.2303 23.5994 32.7561 23.7111 32.2161H24.0593C24.0265 32.7166 24.0068 33.1974 24.0068 33.6518L24.0133 34.3828C24.0133 34.8964 24.0462 35.6208 24.1053 36.5428H23.7571C23.5534 35.1993 22.9358 34.5276 21.9044 34.5276H21.4182V38.3604C21.4182 38.6896 21.4445 38.9267 21.4904 39.0716C21.543 39.2165 21.635 39.3153 21.7795 39.3679C21.9175 39.4206 22.1474 39.447 22.4628 39.447H23.2118C23.9213 39.447 24.4995 39.1967 24.9397 38.7028C25.3799 38.2089 25.6952 37.3725 25.8792 36.2069H26.2274C26.2011 36.523 26.188 36.9511 26.188 37.4713Z" fill="#696E73"/>
<path d="M44.6167 39.1641C44.7087 39.2628 44.8007 39.3419 44.8926 39.3814C44.9846 39.4275 45.1029 39.4538 45.2408 39.4604V39.7831C44.1765 39.7436 43.4801 39.7238 43.1582 39.7238C42.7902 39.7238 41.9756 39.7436 40.7141 39.7831V39.4604C41.0689 39.4604 41.3251 39.4406 41.4828 39.4077C41.6405 39.3682 41.7193 39.3023 41.7193 39.2102C41.7193 39.1377 41.6799 39.0521 41.6076 38.9401L39.0519 35.1799L37.843 36.846C37.3766 37.4716 37.1466 38.005 37.1466 38.4462C37.1466 38.7558 37.2583 38.9994 37.4883 39.1772C37.7182 39.355 38.0336 39.4538 38.4343 39.4802V39.7831C37.8562 39.7502 37.0547 39.737 36.0429 39.737C35.4319 39.737 34.9654 39.7502 34.6435 39.7831V39.4802C35.353 39.2497 36.0823 38.6306 36.8444 37.6231L38.8614 34.8967L35.583 30.0761C35.4384 29.8654 35.3267 29.7139 35.2413 29.6152C35.1559 29.5164 35.0639 29.4439 34.972 29.3978C34.88 29.3517 34.7617 29.3254 34.6172 29.3188V28.9961C35.7407 29.0356 36.4699 29.0554 36.7919 29.0554C37.6788 29.0554 38.4475 29.0356 39.1111 28.9961V29.3188C38.776 29.3188 38.5329 29.3386 38.3752 29.3847C38.2175 29.4308 38.1453 29.5032 38.1453 29.6086C38.1453 29.6876 38.1847 29.7864 38.2635 29.8983L40.5236 33.2042L41.6405 31.6896C42.1201 31.0705 42.3566 30.5635 42.3566 30.1617C42.3566 29.9115 42.2581 29.7139 42.0741 29.5691C41.8836 29.4308 41.6076 29.3451 41.2463 29.3188V29.0159C41.8245 29.0488 42.4617 29.062 43.1582 29.062C43.7692 29.062 44.2356 29.0488 44.5576 29.0159V29.3188C44.2356 29.411 43.9137 29.602 43.5852 29.8852C43.2567 30.1683 42.9414 30.5108 42.6457 30.9125L40.7141 33.4874L44.2751 38.7031C44.4065 38.9072 44.5247 39.0587 44.6167 39.1641Z" fill="#696E73"/>
<path d="M53.1254 31.5959C53.1254 30.9044 53.0859 30.0417 53.0137 29.0078C53.94 29.0407 55.5037 29.0539 57.7046 29.0539C59.9056 29.0539 61.4692 29.0407 62.3825 29.0078C62.3102 30.0351 62.2708 30.8978 62.2708 31.5959C62.2708 32.0305 62.2905 32.4191 62.3233 32.7549H61.9751C61.8043 31.9054 61.6006 31.2403 61.3576 30.7464C61.1145 30.2525 60.8254 29.8968 60.4903 29.6861C60.1487 29.4688 59.7413 29.3634 59.2552 29.3634H58.9069V38.0562C58.9069 38.4777 58.9529 38.7872 59.0383 38.9782C59.1238 39.1691 59.2749 39.3009 59.4982 39.3733C59.7151 39.4457 60.0633 39.4787 60.5297 39.4852V39.7882C59.2552 39.7553 58.2959 39.7421 57.6455 39.7421C57.0082 39.7421 56.0819 39.7553 54.8664 39.7882V39.4852C55.3394 39.4787 55.6877 39.4457 55.911 39.3733C56.1278 39.3009 56.2855 39.1757 56.3644 38.9782C56.4498 38.7872 56.4892 38.4777 56.4892 38.0562V29.3634H56.1541C55.6679 29.3634 55.254 29.4688 54.9124 29.6861C54.5708 29.8968 54.2817 30.2525 54.0386 30.7464C53.7955 31.2403 53.5918 31.912 53.4144 32.7615H53.0662C53.1122 32.4125 53.1254 32.0305 53.1254 31.5959Z" fill="#696E73"/>
<path d="M74.8326 29.4305C74.6815 29.4963 74.5764 29.6149 74.5238 29.7861C74.4712 29.9573 74.445 30.2339 74.445 30.6159V38.1628C74.445 38.5448 74.4712 38.8213 74.5238 38.9926C74.5764 39.1638 74.6815 39.2823 74.8326 39.3482C74.9837 39.414 75.2334 39.4535 75.575 39.4667V39.7696C75.0363 39.7367 74.2742 39.7236 73.2821 39.7236C72.198 39.7236 71.4031 39.7367 70.8906 39.7696V39.4667C71.2257 39.4535 71.4688 39.414 71.6265 39.3482C71.7776 39.2823 71.8827 39.1638 71.9418 38.9926C72.0009 38.8213 72.0272 38.5448 72.0272 38.1628V30.6225C72.0272 30.2405 72.0009 29.9639 71.9418 29.7927C71.8827 29.6215 71.7776 29.5029 71.6265 29.4371C71.4753 29.3712 71.2257 29.3317 70.8906 29.3185V29.0156C71.4031 29.0485 72.198 29.0617 73.2821 29.0617C74.2676 29.0617 75.0363 29.0485 75.575 29.0156V29.3185C75.2334 29.3251 74.9837 29.3712 74.8326 29.4305Z" fill="#696E73"/>
<path d="M88.1682 29.4305C88.0039 29.4963 87.8857 29.6149 87.8266 29.7861C87.7609 29.9573 87.7346 30.2339 87.7346 30.6159V38.3406C87.7346 38.6699 87.7609 38.907 87.8068 39.0518C87.8528 39.1967 87.9448 39.2955 88.0762 39.3482C88.2076 39.4009 88.4113 39.4272 88.6938 39.4272H89.4362C89.8961 39.4272 90.3166 39.2889 90.6976 39.0057C91.0787 38.7226 91.4006 38.3274 91.6634 37.8138C91.9262 37.3001 92.1036 36.7074 92.2022 36.0357H92.5504C92.5175 36.3847 92.5044 36.826 92.5044 37.3725C92.5044 38.3472 92.5372 39.1506 92.6095 39.7828C91.9197 39.7499 90.7633 39.7367 89.134 39.7367C86.933 39.7367 85.284 39.7499 84.1934 39.7828V39.4799C84.5284 39.4667 84.7715 39.4272 84.9292 39.3614C85.0869 39.2955 85.1854 39.177 85.2446 39.0057C85.3037 38.8345 85.33 38.5579 85.33 38.176V30.6225C85.33 30.2405 85.3037 29.9639 85.2446 29.7927C85.1854 29.6215 85.0803 29.5029 84.9292 29.4371C84.7781 29.3712 84.5284 29.3317 84.1934 29.3185V29.0156C84.7058 29.0485 85.5008 29.0617 86.5848 29.0617C87.6097 29.0617 88.4113 29.0485 88.9697 29.0156V29.3185C88.5952 29.3251 88.3324 29.3712 88.1682 29.4305Z" fill="#696E73"/>
<path d="M109.364 37.4713C109.364 38.3999 109.397 39.1704 109.469 39.7828C108.779 39.7499 107.623 39.7367 105.993 39.7367C103.792 39.7367 102.143 39.7499 101.053 39.7828V39.4799C101.388 39.4667 101.631 39.4272 101.789 39.3614C101.94 39.2955 102.045 39.177 102.104 39.0057C102.163 38.8345 102.189 38.5579 102.189 38.176V30.6225C102.189 30.2405 102.163 29.9639 102.104 29.7927C102.045 29.6215 101.94 29.5029 101.789 29.4371C101.637 29.3712 101.388 29.3317 101.053 29.3185V29.0156C102.143 29.0485 103.792 29.0617 105.993 29.0617C107.478 29.0617 108.536 29.0485 109.167 29.0156C109.101 29.852 109.062 30.6027 109.062 31.2678C109.062 31.7156 109.075 32.0647 109.108 32.3018H108.759C108.654 31.5642 108.497 30.9847 108.286 30.5566C108.076 30.1286 107.807 29.8256 107.478 29.6412C107.15 29.4568 106.749 29.3646 106.269 29.3646H105.645C105.33 29.3646 105.1 29.391 104.962 29.4437C104.817 29.4963 104.725 29.5951 104.673 29.74C104.62 29.8849 104.601 30.122 104.601 30.4512V34.2181H105.08C105.625 34.2181 106.033 34.0206 106.309 33.6254C106.585 33.2303 106.775 32.7561 106.887 32.2161H107.235C107.202 32.7166 107.183 33.1974 107.183 33.6518L107.189 34.3828C107.189 34.8964 107.222 35.6208 107.281 36.5428H106.933C106.729 35.1993 106.112 34.5276 105.08 34.5276H104.601V38.3604C104.601 38.6896 104.627 38.9267 104.673 39.0716C104.725 39.2165 104.817 39.3153 104.962 39.3679C105.1 39.4206 105.33 39.447 105.645 39.447H106.394C107.104 39.447 107.682 39.1967 108.122 38.7028C108.562 38.2089 108.878 37.3725 109.062 36.2069H109.41C109.377 36.523 109.364 36.9511 109.364 37.4713Z" fill="#696E73"/>
<path d="M119.739 38.5392C120.173 39.2439 120.849 39.5995 121.749 39.5995C122.104 39.5995 122.426 39.5336 122.709 39.4085C122.991 39.2834 123.221 39.0924 123.385 38.8356C123.549 38.5787 123.635 38.2692 123.635 37.9004C123.635 37.5053 123.543 37.1497 123.359 36.8336C123.175 36.5175 122.925 36.2343 122.61 35.9709C122.295 35.7141 121.881 35.4111 121.355 35.0687C120.744 34.6736 120.258 34.3311 119.897 34.0348C119.542 33.745 119.24 33.396 119.01 32.9943C118.773 32.5926 118.661 32.125 118.661 31.5982C118.661 30.9857 118.819 30.4655 119.128 30.0506C119.437 29.6357 119.851 29.3196 120.363 29.1155C120.875 28.9113 121.441 28.8125 122.058 28.8125C122.426 28.8125 122.741 28.8389 123.011 28.8915C123.28 28.9442 123.503 29.0167 123.687 29.0957C123.865 29.1747 124.062 29.2801 124.279 29.4052C124.522 29.5501 124.693 29.6225 124.791 29.6225C124.883 29.6225 124.955 29.5699 125.008 29.4645C125.061 29.3591 125.1 29.1879 125.126 28.9574H125.474C125.422 29.6357 125.402 30.7947 125.402 32.4279H125.054C125.021 31.8813 124.896 31.3545 124.686 30.8606C124.476 30.3667 124.18 29.965 123.806 29.6555C123.431 29.3459 122.984 29.1879 122.479 29.1879C122.157 29.1879 121.868 29.2472 121.611 29.3723C121.355 29.4974 121.158 29.6752 121.02 29.9123C120.882 30.1494 120.81 30.4194 120.81 30.7355C120.81 31.2426 120.961 31.6509 121.263 31.9735C121.565 32.2962 121.96 32.6189 122.439 32.9482C122.925 33.2775 123.247 33.5014 123.418 33.6133C124.009 34.0084 124.482 34.3509 124.824 34.6472C125.172 34.937 125.455 35.2794 125.672 35.6746C125.888 36.0697 126 36.5175 126 37.0312C126 37.6831 125.829 38.2297 125.494 38.6709C125.159 39.1188 124.706 39.448 124.141 39.6719C123.569 39.8893 122.938 40.0012 122.235 40.0012C121.664 40.0012 121.197 39.9485 120.823 39.8497C120.448 39.751 120.107 39.6127 119.791 39.4349C119.575 39.29 119.404 39.2175 119.279 39.2175C119.187 39.2175 119.115 39.2702 119.062 39.3756C119.01 39.481 118.97 39.6522 118.944 39.8827H118.596C118.635 39.2505 118.655 37.8807 118.655 35.7733H119.003C119.049 36.9126 119.299 37.8346 119.739 38.5392Z" fill="#696E73"/>
<path d="M7.31091 16.0721C7.31091 16.79 7.38318 17.3168 7.53429 17.6461C7.6854 17.9753 7.95477 18.1992 8.3424 18.3112C8.73003 18.4231 9.34761 18.489 10.182 18.4956V19.0883C7.98105 19.0356 6.33855 19.0093 5.26108 19.0093C4.74862 19.0093 3.33607 19.0356 1.02344 19.0883V18.5483C1.61474 18.5219 2.04835 18.4495 2.32429 18.3375C2.59366 18.2256 2.78419 18.0148 2.88274 17.7053C2.98129 17.3958 3.03385 16.9085 3.03385 16.2302V2.87494C3.03385 2.20323 2.98129 1.70932 2.88274 1.3998C2.78419 1.09687 2.60023 0.886131 2.33086 0.774179C2.05492 0.65564 1.62788 0.589786 1.03001 0.563444V0.0234375C1.9301 0.0761211 3.29008 0.102463 5.10997 0.102463C5.8261 0.102463 6.62106 0.0958775 7.49487 0.0761211C8.36868 0.0563648 8.97969 0.0497793 9.31476 0.0497793C10.9375 0.0497793 12.3107 0.273684 13.4276 0.71491C14.5445 1.15614 15.3789 1.77517 15.9307 2.57201C16.4826 3.36885 16.7651 4.29739 16.7651 5.35766C16.7651 6.33889 16.5155 7.28719 16.0161 8.19598C15.5168 9.10478 14.6693 9.8621 13.4736 10.4679C12.2778 11.0738 10.6945 11.3767 8.72346 11.3767H7.30434V16.0721H7.31091ZM11.4829 9.44063C12.0347 8.5055 12.3107 7.24109 12.3107 5.64742C12.3107 3.90227 12.0544 2.61811 11.5354 1.79493C11.023 0.971742 10.1689 0.556859 8.97969 0.556859C8.50008 0.556859 8.1453 0.622713 7.90878 0.747837C7.67883 0.87296 7.52115 1.09687 7.43574 1.41956C7.35033 1.74224 7.31091 2.22298 7.31091 2.87494V10.8433H8.46723C9.92576 10.8433 10.931 10.3757 11.4829 9.44063Z" fill="#696E73"/>
<path d="M32.8359 15.0027C32.8359 16.649 32.895 18.0122 33.0199 19.0922C31.8044 19.0395 29.7546 19.0132 26.8704 19.0132C22.9678 19.0132 20.0573 19.0395 18.1257 19.0922V18.5522C18.717 18.5259 19.1506 18.4534 19.4266 18.3415C19.6959 18.2295 19.8865 18.0188 19.985 17.7093C20.0836 17.3998 20.1361 16.9124 20.1361 16.2341V2.87884C20.1361 2.20713 20.0836 1.71322 19.985 1.4037C19.8865 1.09419 19.6959 0.883452 19.4266 0.771499C19.1441 0.659547 18.7104 0.593692 18.1191 0.56735V0.0273438C20.0507 0.0800273 22.9678 0.106369 26.8638 0.106369C29.4983 0.106369 31.3642 0.0800273 32.4745 0.0273438C32.3497 1.50907 32.2906 2.83275 32.2906 4.01154C32.2906 4.80838 32.3169 5.42083 32.3694 5.83571H31.7519C31.5679 4.53179 31.2854 3.49788 30.9109 2.74714C30.5364 1.99639 30.0568 1.45639 29.4786 1.1337C28.9005 0.811012 28.1909 0.646376 27.3434 0.646376H26.2396C25.6812 0.646376 25.2738 0.692474 25.0242 0.78467C24.7745 0.876866 24.6037 1.05468 24.5183 1.31151C24.4329 1.56834 24.3869 1.98981 24.3869 2.56933V9.2338H25.241C26.2002 9.2338 26.9295 8.88477 27.4157 8.18013C27.9084 7.48207 28.2435 6.64572 28.4406 5.68425H29.0582C28.999 6.5667 28.9662 7.41622 28.9662 8.21964L28.9793 9.51039C28.9793 10.4192 29.0319 11.6968 29.137 13.3365H28.5194C28.1581 10.9592 27.0675 9.77381 25.241 9.77381H24.3869V16.5568C24.3869 17.1364 24.4329 17.5512 24.5183 17.8147C24.6037 18.0715 24.7745 18.2493 25.0242 18.3415C25.2738 18.4337 25.6746 18.4798 26.2396 18.4798H27.5668C28.8282 18.4798 29.8466 18.0386 30.6284 17.1627C31.4102 16.2868 31.9621 14.8117 32.2906 12.7439H32.9082C32.8622 13.3234 32.8359 14.0807 32.8359 15.0027Z" fill="#696E73"/>
<path d="M51.5404 1.02175C51.2644 1.24565 51.0739 1.5881 50.9753 2.04908C50.8768 2.51006 50.8242 3.20153 50.8242 4.11691V19.1449C50.6928 19.1383 50.476 19.1317 50.1672 19.1317C49.8519 19.1317 49.6088 19.1383 49.4445 19.1449L37.7894 4.34081V14.6734C37.7894 15.7337 37.8485 16.5107 37.9602 17.0046C38.0719 17.4986 38.3084 17.8608 38.6632 18.0912C39.018 18.3217 39.5961 18.4732 40.3977 18.5522V19.0922C39.7078 19.0395 38.742 19.0132 37.5003 19.0132C36.5148 19.0132 35.733 19.0395 35.168 19.0922V18.5522C35.7527 18.4732 36.1863 18.3217 36.4623 18.0978C36.7382 17.8739 36.9287 17.5315 37.0273 17.0705C37.1258 16.6095 37.1784 15.918 37.1784 15.0027V2.87884C37.1784 2.20713 37.1258 1.71322 37.0273 1.4037C36.9287 1.09419 36.7382 0.883452 36.4688 0.771499C36.1929 0.659547 35.7593 0.593692 35.168 0.56735V0.0273438C35.7396 0.0800273 36.5148 0.106369 37.5003 0.106369C38.4004 0.106369 39.1691 0.0800273 39.8064 0.0273438L50.2067 12.869V4.44618C50.2067 3.38592 50.1475 2.60884 50.0358 2.11493C49.9242 1.62102 49.6876 1.25882 49.3329 1.02833C48.9781 0.797841 48.3999 0.646376 47.5984 0.56735V0.0273438C48.2882 0.0800273 49.254 0.106369 50.4957 0.106369C51.4944 0.106369 52.2696 0.0800273 52.8281 0.0273438V0.56735C52.2434 0.646376 51.8163 0.797841 51.5404 1.02175Z" fill="#696E73"/>
<path d="M70.9349 1.02175C70.659 1.24565 70.4684 1.5881 70.3699 2.04908C70.2713 2.51006 70.2188 3.20153 70.2188 4.11691V19.1449C70.0874 19.1383 69.8706 19.1317 69.5618 19.1317C69.2464 19.1317 69.0033 19.1383 68.8391 19.1449L57.1839 4.34081V14.6734C57.1839 15.7337 57.2431 16.5107 57.3547 17.0046C57.4664 17.4986 57.703 17.8608 58.0577 18.0912C58.4125 18.3217 58.9907 18.4732 59.7922 18.5522V19.0922C59.1024 19.0395 58.1366 19.0132 56.8948 19.0132C55.9093 19.0132 55.1275 19.0395 54.5625 19.0922V18.5522C55.1472 18.4732 55.5808 18.3217 55.8568 18.0978C56.1327 17.8739 56.3233 17.5315 56.4218 17.0705C56.5204 16.6095 56.5729 15.918 56.5729 15.0027V2.87884C56.5729 2.20713 56.5204 1.71322 56.4218 1.4037C56.3233 1.09419 56.1327 0.883452 55.8634 0.771499C55.5874 0.659547 55.1538 0.593692 54.5625 0.56735V0.0273438C55.1275 0.0800273 55.9093 0.106369 56.8948 0.106369C57.7949 0.106369 58.5636 0.0800273 59.2009 0.0273438L69.6012 12.869V4.44618C69.6012 3.38592 69.5421 2.60884 69.4304 2.11493C69.3187 1.62102 69.0822 1.25882 68.7274 1.02833C68.3726 0.797841 67.7944 0.646376 66.9929 0.56735V0.0273438C67.6828 0.0800273 68.6485 0.106369 69.8903 0.106369C70.8889 0.106369 71.6642 0.0800273 72.2226 0.0273438V0.56735C71.6445 0.646376 71.2108 0.797841 70.9349 1.02175Z" fill="#696E73"/>
<path d="M87.5566 0.0790254C88.3779 0.0790254 89.0611 0.0526836 89.5999 0V0.540007C89.186 0.717814 88.7786 1.04709 88.3581 1.53441C87.9442 2.02173 87.4975 2.72638 87.0113 3.65492L83.838 9.95061V16.2331C83.838 16.9114 83.8906 17.3988 83.9891 17.7083C84.0877 18.0178 84.2782 18.2219 84.5476 18.3405C84.8169 18.4524 85.2571 18.5249 85.8616 18.5512V19.0912C84.8892 19.0385 83.5161 19.0122 81.729 19.0122C79.8172 19.0122 78.4243 19.0385 77.5571 19.0912V18.5512C78.1484 18.5249 78.5886 18.4524 78.8645 18.3405C79.1405 18.2285 79.331 18.0178 79.4295 17.7083C79.5281 17.3988 79.5806 16.9114 79.5806 16.2331V11.6826L74.3904 2.07442C73.8385 1.06684 73.326 0.559763 72.8398 0.559763V0C73.6151 0.0856108 74.6729 0.131709 76 0.131709C77.6819 0.131709 79.3638 0.0856108 81.0458 0V0.566349C80.415 0.566349 79.9223 0.619032 79.5544 0.730985C79.193 0.842937 79.0091 1.04709 79.0091 1.3566C79.0091 1.54099 79.0682 1.74514 79.193 1.96246L83.2861 9.85183L85.3688 5.6569C86.0784 4.23444 86.4331 3.12809 86.4331 2.33125C86.4331 1.72539 86.2426 1.28416 85.855 1.00099C85.4673 0.717814 84.9155 0.566349 84.1928 0.540007V0C85.4082 0.0526836 86.5251 0.0790254 87.5566 0.0790254Z" fill="#696E73"/>
<path d="M118.758 0.106369C119.606 0.106369 120.295 0.0800273 120.828 0.0273438V0.56735C119.776 0.969063 118.995 2.04249 118.469 3.77447L113.732 19.1383C113.541 19.1186 113.226 19.112 112.786 19.112C112.359 19.112 112.05 19.1186 111.853 19.1383L107.891 7.13963L103.93 19.1383C103.726 19.1186 103.411 19.112 102.983 19.112C102.556 19.112 102.241 19.1186 102.037 19.1383L96.0193 2.28615C95.8156 1.70005 95.5594 1.272 95.2506 0.995405C94.9418 0.725401 94.633 0.580521 94.3242 0.560765V0.0273438C95.4017 0.0800273 96.7354 0.106369 98.3385 0.106369C99.843 0.106369 100.94 0.0800273 101.63 0.0273438V0.56735C101.006 0.646376 100.697 0.995405 100.697 1.62102C100.697 1.95688 100.776 2.35859 100.934 2.83275L104.856 14.1927L107.582 6.19791L106.203 2.02932C106.025 1.50249 105.815 1.1337 105.572 0.922965C105.329 0.71223 105.04 0.593692 104.718 0.56735V0.0273438C105.717 0.0800273 106.998 0.106369 108.561 0.106369C110.302 0.106369 111.59 0.0800273 112.431 0.0273438V0.56735C111.774 0.587107 111.308 0.659547 111.025 0.791256C110.743 0.922965 110.605 1.1798 110.605 1.56834C110.605 1.8581 110.69 2.27957 110.867 2.83275L114.54 14.1005L117.096 5.96084C117.497 4.64375 117.7 3.59666 117.7 2.81958C117.7 2.04249 117.51 1.47614 117.129 1.1337C116.748 0.78467 116.176 0.600278 115.407 0.573936V0.0273438C116.629 0.0800273 117.74 0.106369 118.758 0.106369Z" fill="#696E73"/>
<path d="M124.329 15.8684C124.743 16.2438 124.946 16.7443 124.946 17.3896C124.946 18.0284 124.743 18.5355 124.329 18.9109C123.915 19.2863 123.357 19.4707 122.654 19.4707C121.957 19.4707 121.399 19.2863 120.985 18.9109C120.571 18.5355 120.367 18.035 120.367 17.3896C120.367 16.7509 120.571 16.2438 120.985 15.8684C121.392 15.493 121.951 15.3086 122.654 15.3086C123.357 15.3086 123.922 15.4996 124.329 15.8684Z" fill="#696E73"/>
</g>
<defs>
<clipPath id="clip0_281_2122">
<rect width="126" height="40" fill="white"/>
</clipPath>
</defs>
</svg>
