<svg width="168" height="32" viewBox="0 0 168 32" fill="none" xmlns="http://www.w3.org/2000/svg">
<g clip-path="url(#clip0_265_150)">
<rect width="168" height="32" fill="#696E73"/>
<path d="M164.163 10.3649C166.282 10.3649 168 8.65936 168 6.55552C168 4.45168 166.282 2.74609 164.163 2.74609C162.043 2.74609 160.325 4.45168 160.325 6.55552C160.325 8.65936 162.043 10.3649 164.163 10.3649Z" fill="#696E73"/>
<path d="M13.2452 25.4258L20.2562 2.0498H27.0832L16.7201 31.5945H12.2232L13.2452 25.4258ZM6.78614 2.0498L13.7767 25.4258L14.8396 31.5945H10.3018L0 2.0498H6.78614Z" fill="#696E73"/>
<path d="M40.4916 26.6427V16.8621C40.4916 16.1587 40.3757 15.5567 40.1441 15.0561C39.9124 14.5421 39.5513 14.143 39.0608 13.8589C38.5838 13.5748 37.9638 13.4328 37.2007 13.4328C36.5466 13.4328 35.9811 13.5478 35.5042 13.7778C35.0272 13.9942 34.6593 14.3121 34.4004 14.7315C34.1415 15.1373 34.012 15.6175 34.012 16.1722H28.1253C28.1253 15.2388 28.3433 14.3527 28.7794 13.514C29.2154 12.6752 29.8491 11.938 30.6803 11.3022C31.5115 10.6528 32.4995 10.1455 33.6441 9.7803C34.8024 9.41504 36.0969 9.23242 37.5278 9.23242C39.2447 9.23242 40.7709 9.5165 42.1064 10.0847C43.4418 10.6528 44.491 11.5051 45.2541 12.6414C46.0309 13.7778 46.4192 15.1982 46.4192 16.9027V26.2977C46.4192 27.5017 46.4942 28.4892 46.6441 29.2603C46.794 30.0179 47.012 30.6807 47.2982 31.2489V31.5939H41.3501C41.0639 30.9986 40.8459 30.2546 40.696 29.3618C40.5597 28.4554 40.4916 27.5491 40.4916 26.6427ZM41.2683 18.2216L41.3092 21.5292H38.0183C37.2416 21.5292 36.5671 21.6171 35.9947 21.793C35.4224 21.9688 34.9523 22.2191 34.5844 22.5438C34.2165 22.8549 33.9439 23.2202 33.7668 23.6395C33.6032 24.0589 33.5215 24.5188 33.5215 25.0194C33.5215 25.5199 33.6373 25.9731 33.869 26.3789C34.1006 26.7712 34.4345 27.0823 34.8705 27.3123C35.3066 27.5288 35.8176 27.637 36.4035 27.637C37.2893 27.637 38.0592 27.4611 38.7133 27.1094C39.3674 26.7577 39.8716 26.3248 40.2259 25.8107C40.5938 25.2967 40.7846 24.8097 40.7982 24.3497L42.3516 26.8253C42.1336 27.38 41.8338 27.9549 41.4523 28.5501C41.0843 29.1453 40.6142 29.7067 40.0419 30.2343C39.4696 30.7484 38.7814 31.1745 37.9774 31.5127C37.1735 31.8374 36.2196 31.9997 35.1158 31.9997C33.7123 31.9997 32.4382 31.7224 31.2935 31.1677C30.1625 30.5996 29.2631 29.8217 28.5954 28.8342C27.9413 27.8331 27.6143 26.6968 27.6143 25.4252C27.6143 24.2753 27.8323 23.254 28.2684 22.3611C28.7044 21.4683 29.3449 20.7175 30.1897 20.1088C31.0482 19.4865 32.1179 19.0198 33.3988 18.7086C34.6798 18.384 36.1651 18.2216 37.8548 18.2216H41.2683Z" fill="#696E73"/>
<path d="M56.7218 14.3256V31.5939H50.835V9.63825H56.3539L56.7218 14.3256ZM55.8633 19.845H54.269C54.269 18.2216 54.4802 16.7606 54.9026 15.462C55.325 14.1498 55.9178 13.0337 56.6809 12.1138C57.444 11.1804 58.3502 10.4702 59.3995 9.98321C60.4623 9.48268 61.6479 9.23242 62.956 9.23242C63.9917 9.23242 64.9387 9.38123 65.7972 9.67884C66.6557 9.97645 67.3916 10.4499 68.0048 11.0993C68.6316 11.7486 69.1085 12.6076 69.4356 13.6763C69.7762 14.745 69.9466 16.0504 69.9466 17.5926V31.5939H64.0189V17.5723C64.0189 16.5983 63.8826 15.8407 63.6101 15.2996C63.3376 14.7585 62.9356 14.3797 62.4041 14.1633C61.8863 13.9333 61.2459 13.8183 60.4828 13.8183C59.6924 13.8183 59.0043 13.9739 58.4183 14.2851C57.846 14.5962 57.3691 15.0291 56.9875 15.5837C56.6196 16.1248 56.3402 16.7606 56.1495 17.4911C55.9587 18.2216 55.8633 19.0062 55.8633 19.845Z" fill="#696E73"/>
<path d="M81.9246 31.5942H75.9969V7.69055C75.9969 6.02663 76.324 4.62651 76.9781 3.49017C77.6458 2.34031 78.5792 1.47453 79.7784 0.892834C80.9912 0.297611 82.4287 0 84.0912 0C84.6362 0 85.161 0.0405827 85.6652 0.121749C86.1694 0.189388 86.6598 0.27732 87.1368 0.385542L87.0755 4.78884C86.8166 4.7212 86.5441 4.67385 86.2579 4.6468C85.9718 4.61974 85.6378 4.60621 85.2563 4.60621C84.5477 4.60621 83.9413 4.72796 83.4371 4.97146C82.9465 5.20144 82.5719 5.5464 82.313 6.00634C82.0541 6.46629 81.9246 7.02769 81.9246 7.69055V31.5942ZM86.3397 9.63855V13.7781H72.7061V9.63855H86.3397Z" fill="#696E73"/>
<path d="M101.363 26.6427V16.8621C101.363 16.1587 101.247 15.5567 101.015 15.0561C100.784 14.5421 100.423 14.143 99.9319 13.8589C99.455 13.5748 98.8349 13.4328 98.0718 13.4328C97.4178 13.4328 96.8523 13.5478 96.3753 13.7778C95.8984 13.9942 95.5305 14.3121 95.2715 14.7315C95.0126 15.1373 94.8832 15.6175 94.8832 16.1722H88.9964C88.9964 15.2388 89.2144 14.3527 89.6505 13.514C90.0866 12.6752 90.7202 11.938 91.5514 11.3022C92.3827 10.6528 93.3706 10.1455 94.5153 9.7803C95.6735 9.41504 96.9681 9.23242 98.3989 9.23242C100.116 9.23242 101.642 9.5165 102.978 10.0847C104.313 10.6528 105.362 11.5051 106.125 12.6414C106.902 13.7778 107.29 15.1982 107.29 16.9027V26.2977C107.29 27.5017 107.365 28.4892 107.515 29.2603C107.665 30.0179 107.883 30.6807 108.169 31.2489V31.5939H102.221C101.935 30.9986 101.717 30.2546 101.567 29.3618C101.431 28.4554 101.363 27.5491 101.363 26.6427ZM102.14 18.2216L102.18 21.5292H98.8895C98.1127 21.5292 97.4382 21.6171 96.8659 21.793C96.2935 21.9688 95.8234 22.2191 95.4555 22.5438C95.0876 22.8549 94.8151 23.2202 94.6379 23.6395C94.4744 24.0589 94.3926 24.5188 94.3926 25.0194C94.3926 25.5199 94.5084 25.9731 94.7401 26.3789C94.9718 26.7712 95.3056 27.0823 95.7417 27.3123C96.1777 27.5288 96.6887 27.637 97.2747 27.637C98.1604 27.637 98.9303 27.4611 99.5844 27.1094C100.239 26.7577 100.743 26.3248 101.097 25.8107C101.465 25.2967 101.656 24.8097 101.669 24.3497L103.223 26.8253C103.005 27.38 102.705 27.9549 102.324 28.5501C101.956 29.1453 101.485 29.7067 100.913 30.2343C100.341 30.7484 99.6526 31.1745 98.8486 31.5127C98.0446 31.8374 97.0907 31.9997 95.987 31.9997C94.5834 31.9997 93.3093 31.7224 92.1646 31.1677C91.0336 30.5996 90.1342 29.8217 89.4665 28.8342C88.8125 27.8331 88.4854 26.6968 88.4854 25.4252C88.4854 24.2753 88.7034 23.254 89.1395 22.3611C89.5756 21.4683 90.216 20.7175 91.0609 20.1088C91.9194 19.4865 92.9891 19.0198 94.27 18.7086C95.5509 18.384 97.0362 18.2216 98.7259 18.2216H102.14Z" fill="#696E73"/>
<path d="M111.828 0.425781H117.715V26.5615L117.122 31.5939H111.828V0.425781ZM131.716 20.3929V20.819C131.716 22.4558 131.539 23.9574 131.185 25.3237C130.844 26.69 130.313 27.8737 129.591 28.8748C128.868 29.8623 127.969 30.6334 126.893 31.188C125.83 31.7291 124.576 31.9997 123.132 31.9997C121.783 31.9997 120.611 31.7291 119.616 31.188C118.635 30.6469 117.81 29.8826 117.143 28.8951C116.475 27.9075 115.937 26.7509 115.528 25.4252C115.119 24.0995 114.812 22.652 114.608 21.0828V20.1494C114.812 18.5801 115.119 17.1327 115.528 15.8069C115.937 14.4812 116.475 13.3246 117.143 12.337C117.81 11.3495 118.635 10.5852 119.616 10.0441C120.597 9.50294 121.755 9.23238 123.091 9.23238C124.549 9.23238 125.816 9.5097 126.893 10.0644C127.983 10.6055 128.882 11.3766 129.591 12.3776C130.313 13.3652 130.844 14.5421 131.185 15.9084C131.539 17.2612 131.716 18.756 131.716 20.3929ZM125.83 20.819V20.3929C125.83 19.5 125.762 18.6613 125.625 17.8767C125.503 17.0785 125.285 16.3819 124.971 15.7866C124.658 15.1779 124.229 14.6976 123.683 14.3459C123.152 13.9942 122.464 13.8183 121.619 13.8183C120.815 13.8183 120.134 13.9536 119.575 14.2242C119.016 14.4947 118.553 14.8735 118.185 15.3605C117.831 15.8475 117.565 16.4292 117.388 17.1056C117.211 17.7685 117.102 18.499 117.061 19.2971V21.9553C117.102 23.024 117.279 23.971 117.592 24.7961C117.919 25.6078 118.41 26.2504 119.064 26.7239C119.732 27.1838 120.597 27.4138 121.66 27.4138C122.491 27.4138 123.179 27.2514 123.724 26.9268C124.269 26.6021 124.692 26.1422 124.992 25.5469C125.305 24.9517 125.523 24.255 125.646 23.4569C125.768 22.6452 125.83 21.7659 125.83 20.819Z" fill="#696E73"/>
<path d="M147.312 26.6427V16.8621C147.312 16.1587 147.197 15.5567 146.965 15.0561C146.733 14.5421 146.372 14.143 145.882 13.8589C145.405 13.5748 144.785 13.4328 144.021 13.4328C143.367 13.4328 142.802 13.5478 142.325 13.7778C141.848 13.9942 141.48 14.3121 141.221 14.7315C140.962 15.1373 140.833 15.6175 140.833 16.1722H134.946C134.946 15.2388 135.164 14.3527 135.6 13.514C136.036 12.6752 136.67 11.938 137.501 11.3022C138.332 10.6528 139.32 10.1455 140.465 9.7803C141.623 9.41504 142.918 9.23242 144.348 9.23242C146.065 9.23242 147.592 9.5165 148.927 10.0847C150.263 10.6528 151.312 11.5051 152.075 12.6414C152.852 13.7778 153.24 15.1982 153.24 16.9027V26.2977C153.24 27.5017 153.315 28.4892 153.465 29.2603C153.615 30.0179 153.833 30.6807 154.119 31.2489V31.5939H148.171C147.885 30.9986 147.667 30.2546 147.517 29.3618C147.38 28.4554 147.312 27.5491 147.312 26.6427ZM148.089 18.2216L148.13 21.5292H144.839C144.062 21.5292 143.388 21.6171 142.815 21.793C142.243 21.9688 141.773 22.2191 141.405 22.5438C141.037 22.8549 140.765 23.2202 140.587 23.6395C140.424 24.0589 140.342 24.5188 140.342 25.0194C140.342 25.5199 140.458 25.9731 140.69 26.3789C140.921 26.7712 141.255 27.0823 141.691 27.3123C142.127 27.5288 142.638 27.637 143.224 27.637C144.11 27.637 144.88 27.4611 145.534 27.1094C146.188 26.7577 146.692 26.3248 147.047 25.8107C147.415 25.2967 147.605 24.8097 147.619 24.3497L149.172 26.8253C148.954 27.38 148.655 27.9549 148.273 28.5501C147.905 29.1453 147.435 29.7067 146.863 30.2343C146.29 30.7484 145.602 31.1745 144.798 31.5127C143.994 31.8374 143.04 31.9997 141.937 31.9997C140.533 31.9997 139.259 31.7224 138.114 31.1677C136.983 30.5996 136.084 29.8217 135.416 28.8342C134.762 27.8331 134.435 26.6968 134.435 25.4252C134.435 24.2753 134.653 23.254 135.089 22.3611C135.525 21.4683 136.166 20.7175 137.01 20.1088C137.869 19.4865 138.939 19.0198 140.22 18.7086C141.501 18.384 142.986 18.2216 144.676 18.2216H148.089Z" fill="#696E73"/>
</g>
<defs>
<clipPath id="clip0_265_150">
<rect width="168" height="32" fill="white"/>
</clipPath>
</defs>
</svg>
