<svg width="139" height="32" viewBox="0 0 139 32" fill="none" xmlns="http://www.w3.org/2000/svg">
<g clip-path="url(#clip0_281_2138)">
<rect width="139" height="32" fill="#696E73"/>
<path d="M14.7417 4.65753V0H0V32H14.7417V27.3425C11.7219 27.3425 8.82567 26.1474 6.69036 24.0203C4.55501 21.8932 3.35539 19.0082 3.35539 16C3.35539 12.9918 4.55501 10.1067 6.69036 7.97967C8.82567 5.85255 11.7219 4.65753 14.7417 4.65753Z" fill="#696E73"/>
<path d="M14.7402 4.65625V27.3411C17.7601 27.3411 20.6563 26.1461 22.7916 24.019C24.927 21.8918 26.1266 19.0069 26.1266 15.9987C26.1266 12.9905 24.927 10.1054 22.7916 7.97839C20.6563 5.85127 17.7601 4.65625 14.7402 4.65625Z" fill="#696E73"/>
<path d="M136.58 11.3297C137.917 11.3297 139.001 10.2503 139.001 8.91877C139.001 7.58726 137.917 6.50781 136.58 6.50781C135.244 6.50781 134.16 7.58726 134.16 8.91877C134.16 10.2503 135.244 11.3297 136.58 11.3297Z" fill="#696E73"/>
<path d="M41.3912 20.8609L45.8132 6.06641H50.1192L43.5829 24.765H40.7466L41.3912 20.8609ZM37.3173 6.06641L41.7264 20.8609L42.3968 24.765H39.5347L33.0371 6.06641H37.3173Z" fill="#696E73"/>
<path d="M58.5771 21.6321V15.4421C58.5771 14.9969 58.5041 14.6159 58.358 14.2991C58.2118 13.9738 57.9841 13.7212 57.6747 13.5414C57.3739 13.3616 56.9828 13.2717 56.5015 13.2717C56.0889 13.2717 55.7323 13.3445 55.4314 13.49C55.1306 13.627 54.8986 13.8282 54.7353 14.0936C54.572 14.3505 54.4903 14.6544 54.4903 15.0054H50.7774C50.7774 14.4147 50.9149 13.8539 51.1899 13.3231C51.465 12.7923 51.8646 12.3256 52.3889 11.9232C52.9132 11.5123 53.5363 11.1912 54.2583 10.9601C54.9888 10.7289 55.8053 10.6133 56.7078 10.6133C57.7907 10.6133 58.7533 10.7931 59.5956 11.1527C60.4379 11.5123 61.0997 12.0517 61.581 12.7708C62.0709 13.49 62.3158 14.389 62.3158 15.4678V21.4138C62.3158 22.1758 62.3631 22.8008 62.4577 23.2888C62.5522 23.7683 62.6897 24.1878 62.8702 24.5474V24.7657H59.1186C58.9381 24.389 58.8006 23.9181 58.706 23.353C58.6201 22.7794 58.5771 22.2058 58.5771 21.6321ZM59.067 16.3025L59.0928 18.3958H57.0172C56.5273 18.3958 56.1018 18.4515 55.7409 18.5628C55.3799 18.6741 55.0834 18.8325 54.8513 19.038C54.6192 19.2349 54.4473 19.4661 54.3356 19.7315C54.2325 19.9969 54.1809 20.288 54.1809 20.6047C54.1809 20.9215 54.254 21.2083 54.4001 21.4652C54.5462 21.7135 54.7568 21.9104 55.0318 22.0559C55.3068 22.1929 55.6291 22.2614 55.9987 22.2614C56.5574 22.2614 57.043 22.1501 57.4555 21.9275C57.8681 21.7049 58.1861 21.4309 58.4095 21.1056C58.6416 20.7803 58.7619 20.472 58.7705 20.1809L59.7503 21.7477C59.6128 22.0988 59.4237 22.4626 59.1831 22.8393C58.951 23.216 58.6545 23.5714 58.2935 23.9053C57.9325 24.2306 57.4985 24.5003 56.9914 24.7143C56.4843 24.9198 55.8827 25.0226 55.1865 25.0226C54.3012 25.0226 53.4976 24.847 52.7757 24.496C52.0623 24.1364 51.495 23.6441 51.0739 23.0191C50.6614 22.3856 50.4551 21.6664 50.4551 20.8616C50.4551 20.1339 50.5926 19.4875 50.8676 18.9224C51.1427 18.3573 51.5466 17.8821 52.0795 17.4969C52.621 17.103 53.2956 16.8077 54.1036 16.6107C54.9115 16.4053 55.8483 16.3025 56.914 16.3025H59.067Z" fill="#696E73"/>
<path d="M68.8126 13.8368V24.7657H65.0996V10.8702H68.5805L68.8126 13.8368ZM68.2711 17.3299H67.2655C67.2655 16.3025 67.3987 15.3779 67.6652 14.556C67.9316 13.7255 68.3055 13.0191 68.7868 12.4369C69.2681 11.8462 69.8396 11.3967 70.5014 11.0885C71.1718 10.7717 71.9196 10.6133 72.7447 10.6133C73.3979 10.6133 73.9952 10.7075 74.5367 10.8958C75.0781 11.0842 75.5423 11.3839 75.929 11.7948C76.3244 12.2058 76.6252 12.7494 76.8315 13.4258C77.0463 14.1022 77.1538 14.9284 77.1538 15.9044V24.7657H73.4151V15.8916C73.4151 15.2751 73.3291 14.7957 73.1572 14.4532C72.9853 14.1107 72.7318 13.871 72.3966 13.734C72.07 13.5885 71.666 13.5157 71.1847 13.5157C70.6862 13.5157 70.2522 13.6142 69.8826 13.8111C69.5216 14.008 69.2208 14.282 68.9802 14.633C68.7481 14.9755 68.5719 15.3779 68.4516 15.8402C68.3313 16.3025 68.2711 16.7991 68.2711 17.3299Z" fill="#696E73"/>
<path d="M84.7089 24.7652H80.9702V9.63682C80.9702 8.58374 81.1764 7.69761 81.589 6.97843C82.0101 6.25069 82.5989 5.70274 83.3552 5.33459C84.1201 4.95788 85.0269 4.76953 86.0754 4.76953C86.4192 4.76953 86.7501 4.79521 87.0681 4.84658C87.3861 4.88939 87.6955 4.94504 87.9964 5.01353L87.9577 7.80035C87.7944 7.75754 87.6225 7.72757 87.442 7.71045C87.2615 7.69333 87.0509 7.68476 86.8103 7.68476C86.3634 7.68476 85.9809 7.76182 85.6629 7.91593C85.3535 8.06148 85.1171 8.2798 84.9538 8.57089C84.7905 8.86199 84.7089 9.2173 84.7089 9.63682V24.7652ZM87.4936 10.8697V13.4895H78.8945V10.8697H87.4936Z" fill="#696E73"/>
<path d="M96.9698 21.6321V15.4421C96.9698 14.9969 96.8967 14.6159 96.7506 14.2991C96.6045 13.9738 96.3768 13.7212 96.0673 13.5414C95.7665 13.3616 95.3755 13.2717 94.8942 13.2717C94.4816 13.2717 94.1249 13.3445 93.8241 13.49C93.5233 13.627 93.2912 13.8282 93.1279 14.0936C92.9646 14.3505 92.883 14.6544 92.883 15.0054H89.17C89.17 14.4147 89.3076 13.8539 89.5826 13.3231C89.8576 12.7923 90.2573 12.3256 90.7816 11.9232C91.3058 11.5123 91.929 11.1912 92.6509 10.9601C93.3815 10.7289 94.198 10.6133 95.1004 10.6133C96.1834 10.6133 97.146 10.7931 97.9883 11.1527C98.8306 11.5123 99.4923 12.0517 99.9737 12.7708C100.464 13.49 100.709 14.389 100.709 15.4678V21.4138C100.709 22.1758 100.756 22.8008 100.851 23.2888C100.945 23.7683 101.083 24.1878 101.263 24.5474V24.7657H97.5113C97.3308 24.389 97.1933 23.9181 97.0987 23.353C97.0128 22.7794 96.9698 22.2058 96.9698 21.6321ZM97.4597 16.3025L97.4855 18.3958H95.4098C94.9199 18.3958 94.4945 18.4515 94.1335 18.5628C93.7725 18.6741 93.476 18.8325 93.244 19.038C93.0119 19.2349 92.84 19.4661 92.7283 19.7315C92.6251 19.9969 92.5736 20.288 92.5736 20.6047C92.5736 20.9215 92.6466 21.2083 92.7927 21.4652C92.9388 21.7135 93.1494 21.9104 93.4245 22.0559C93.6995 22.1929 94.0218 22.2614 94.3914 22.2614C94.95 22.2614 95.4356 22.1501 95.8482 21.9275C96.2607 21.7049 96.5787 21.4309 96.8022 21.1056C97.0342 20.7803 97.1546 20.472 97.1632 20.1809L98.143 21.7477C98.0055 22.0988 97.8164 22.4626 97.5757 22.8393C97.3437 23.216 97.0471 23.5714 96.6862 23.9053C96.3252 24.2306 95.8911 24.5003 95.3841 24.7143C94.877 24.9198 94.2753 25.0226 93.5792 25.0226C92.6939 25.0226 91.8903 24.847 91.1683 24.496C90.455 24.1364 89.8877 23.6441 89.4666 23.0191C89.054 22.3856 88.8477 21.6664 88.8477 20.8616C88.8477 20.1339 88.9853 19.4875 89.2603 18.9224C89.5353 18.3573 89.9393 17.8821 90.4722 17.4969C91.0136 17.103 91.6883 16.8077 92.4962 16.6107C93.3041 16.4053 94.241 16.3025 95.3067 16.3025H97.4597Z" fill="#696E73"/>
<path d="M103.57 5.03906H107.283V21.5802L106.909 24.7651H103.57V5.03906ZM116.114 17.6761V17.9458C116.114 18.9817 116.002 19.9321 115.779 20.7968C115.564 21.6615 115.229 22.4107 114.773 23.0442C114.318 23.6692 113.75 24.1572 113.071 24.5083C112.401 24.8507 111.61 25.022 110.699 25.022C109.848 25.022 109.109 24.8507 108.482 24.5083C107.863 24.1658 107.343 23.6821 106.922 23.0571C106.501 22.4321 106.161 21.7 105.903 20.861C105.646 20.022 105.452 19.1059 105.323 18.1127V17.522C105.452 16.5288 105.646 15.6127 105.903 14.7737C106.161 13.9346 106.501 13.2026 106.922 12.5776C107.343 11.9526 107.863 11.4689 108.482 11.1264C109.101 10.7839 109.831 10.6127 110.674 10.6127C111.593 10.6127 112.392 10.7882 113.071 11.1393C113.759 11.4817 114.326 11.9697 114.773 12.6033C115.229 13.2283 115.564 13.9732 115.779 14.8379C116.002 15.694 116.114 16.6401 116.114 17.6761ZM112.401 17.9458V17.6761C112.401 17.111 112.358 16.5802 112.272 16.0836C112.195 15.5785 112.057 15.1375 111.86 14.7608C111.662 14.3756 111.391 14.0716 111.047 13.849C110.712 13.6264 110.278 13.5151 109.745 13.5151C109.238 13.5151 108.808 13.6007 108.456 13.772C108.104 13.9432 107.811 14.1829 107.579 14.4911C107.356 14.7994 107.188 15.1675 107.077 15.5956C106.965 16.0151 106.896 16.4774 106.87 16.9826V18.6649C106.896 19.3413 107.008 19.9406 107.206 20.4629C107.412 20.9766 107.721 21.3833 108.134 21.6829C108.555 21.974 109.101 22.1196 109.771 22.1196C110.295 22.1196 110.729 22.0168 111.073 21.8113C111.417 21.6059 111.683 21.3148 111.872 20.9381C112.07 20.5613 112.208 20.1204 112.285 19.6153C112.362 19.1016 112.401 18.5451 112.401 17.9458Z" fill="#696E73"/>
<path d="M125.95 21.6321V15.4421C125.95 14.9969 125.877 14.6159 125.731 14.2991C125.584 13.9738 125.357 13.7212 125.047 13.5414C124.746 13.3616 124.355 13.2717 123.874 13.2717C123.462 13.2717 123.105 13.3445 122.804 13.49C122.503 13.627 122.271 13.8282 122.108 14.0936C121.945 14.3505 121.863 14.6544 121.863 15.0054H118.15C118.15 14.4147 118.287 13.8539 118.563 13.3231C118.838 12.7923 119.237 12.3256 119.761 11.9232C120.286 11.5123 120.909 11.1912 121.631 10.9601C122.361 10.7289 123.178 10.6133 124.08 10.6133C125.163 10.6133 126.126 10.7931 126.968 11.1527C127.81 11.5123 128.472 12.0517 128.954 12.7708C129.443 13.49 129.688 14.389 129.688 15.4678V21.4138C129.688 22.1758 129.736 22.8008 129.83 23.2888C129.925 23.7683 130.062 24.1878 130.243 24.5474V24.7657H126.491C126.311 24.389 126.173 23.9181 126.079 23.353C125.993 22.7794 125.95 22.2058 125.95 21.6321ZM126.44 16.3025L126.465 18.3958H124.39C123.9 18.3958 123.474 18.4515 123.113 18.5628C122.752 18.6741 122.456 18.8325 122.224 19.038C121.992 19.2349 121.82 19.4661 121.708 19.7315C121.605 19.9969 121.553 20.288 121.553 20.6047C121.553 20.9215 121.627 21.2083 121.773 21.4652C121.919 21.7135 122.129 21.9104 122.404 22.0559C122.679 22.1929 123.002 22.2614 123.371 22.2614C123.93 22.2614 124.416 22.1501 124.828 21.9275C125.241 21.7049 125.559 21.4309 125.782 21.1056C126.014 20.7803 126.134 20.472 126.143 20.1809L127.123 21.7477C126.985 22.0988 126.796 22.4626 126.556 22.8393C126.324 23.216 126.027 23.5714 125.666 23.9053C125.305 24.2306 124.871 24.5003 124.364 24.7143C123.857 24.9198 123.255 25.0226 122.559 25.0226C121.674 25.0226 120.87 24.847 120.148 24.496C119.435 24.1364 118.868 23.6441 118.446 23.0191C118.034 22.3856 117.828 21.6664 117.828 20.8616C117.828 20.1339 117.965 19.4875 118.24 18.9224C118.515 18.3573 118.919 17.8821 119.452 17.4969C119.994 17.103 120.668 16.8077 121.476 16.6107C122.284 16.4053 123.221 16.3025 124.287 16.3025H126.44Z" fill="#696E73"/>
</g>
<defs>
<clipPath id="clip0_281_2138">
<rect width="139" height="32" fill="white"/>
</clipPath>
</defs>
</svg>
