<svg width="38" height="24" viewBox="0 0 38 24" fill="none" xmlns="http://www.w3.org/2000/svg">
<g clip-path="url(#clip0_208_1389)">
<mask id="mask0_208_1389" style="mask-type:luminance" maskUnits="userSpaceOnUse" x="0" y="0" width="38" height="24">
<path d="M38 0H0V24H38V0Z" fill="white"/>
</mask>
<g mask="url(#mask0_208_1389)">
<path opacity="0.07" d="M35 0H3C1.3 0 0 1.3 0 3V21C0 22.7 1.4 24 3 24H35C36.7 24 38 22.7 38 21V3C38 1.3 36.6 0 35 0Z" fill="#F48120"/>
<path d="M35 1C36.1 1 37 1.9 37 3V21C37 22.1 36.1 23 35 23H3C1.9 23 1 22.1 1 21V3C1 1.9 1.9 1 3 1H35Z" fill="#F48120"/>
<path d="M3.57 7.15906H2V12.6591H3.57C4.4 12.6591 5 12.4591 5.53 12.0291C6.16 11.5091 6.53 10.7291 6.53 9.91906C6.52 8.28906 5.31 7.15906 3.57 7.15906ZM4.83 11.2991C4.49 11.5991 4.06 11.7391 3.36 11.7391H3.07V8.09906H3.36C4.05 8.09906 4.47 8.21906 4.83 8.53906C5.2 8.86906 5.42 9.37906 5.42 9.90906C5.42 10.4391 5.2 10.9691 4.83 11.2991ZM7.02 7.15906H8.09V12.6591H7.02V7.15906ZM10.71 9.26906C10.07 9.02906 9.88 8.86906 9.88 8.57906C9.88 8.22906 10.22 7.96906 10.68 7.96906C11 7.96906 11.27 8.09906 11.54 8.41906L12.1 7.68906C11.64 7.28906 11.09 7.07906 10.48 7.07906C9.51 7.07906 8.76 7.75906 8.76 8.65906C8.76 9.41906 9.11 9.80906 10.11 10.1691C10.53 10.3191 10.74 10.4191 10.85 10.4791C11.06 10.6191 11.17 10.8191 11.17 11.0491C11.17 11.4991 10.82 11.8291 10.34 11.8291C9.83 11.8291 9.42 11.5691 9.17 11.0991L8.48 11.7691C8.97 12.4991 9.57 12.8191 10.38 12.8191C11.49 12.8191 12.28 12.0791 12.28 11.0091C12.3 10.1191 11.93 9.71906 10.71 9.26906ZM12.63 9.91906C12.63 11.5391 13.9 12.7891 15.53 12.7891C15.99 12.7891 16.39 12.6991 16.87 12.4691V11.2091C16.44 11.6391 16.06 11.8091 15.58 11.8091C14.5 11.8091 13.73 11.0291 13.73 9.90906C13.73 8.84906 14.52 8.01906 15.53 8.01906C16.04 8.01906 16.43 8.19906 16.87 8.63906V7.37906C16.4 7.13906 16.01 7.03906 15.55 7.03906C13.94 7.03906 12.63 8.31906 12.63 9.91906ZM25.39 10.8591L23.92 7.15906H22.75L25.08 12.7991H25.66L28.03 7.15906H26.87L25.39 10.8591ZM28.52 12.6591H31.56V11.7291H29.59V10.2491H31.49V9.31906H29.59V8.09906H31.56V7.15906H28.52V12.6591ZM35.81 8.78906C35.81 7.75906 35.1 7.16906 33.86 7.16906H32.27V12.6691H33.34V10.4591H33.48L34.96 12.6691H36.28L34.55 10.3491C35.36 10.1791 35.81 9.62906 35.81 8.78906ZM33.65 9.69906H33.34V8.02906H33.67C34.34 8.02906 34.7 8.30906 34.7 8.84906C34.7 9.39906 34.34 9.69906 33.65 9.69906Z" fill="#F48120"/>
<path d="M20.1595 12.86C20.9369 12.86 21.6824 12.5512 22.232 12.0016C22.7817 11.4519 23.0905 10.7064 23.0905 9.92905C23.0905 9.1517 22.7817 8.40619 22.232 7.85652C21.6824 7.30685 20.9369 6.99805 20.1595 6.99805C19.3822 6.99805 18.6367 7.30685 18.087 7.85652C17.5373 8.40619 17.2285 9.1517 17.2285 9.92905C17.2285 10.7064 17.5373 11.4519 18.087 12.0016C18.6367 12.5512 19.3822 12.86 20.1595 12.86Z" fill="url(#paint0_linear_208_1389)"/>
<path opacity="0.65" d="M20.1595 12.86C20.9369 12.86 21.6824 12.5512 22.232 12.0016C22.7817 11.4519 23.0905 10.7064 23.0905 9.92905C23.0905 9.1517 22.7817 8.40619 22.232 7.85652C21.6824 7.30685 20.9369 6.99805 20.1595 6.99805C19.3822 6.99805 18.6367 7.30685 18.087 7.85652C17.5373 8.40619 17.2285 9.1517 17.2285 9.92905C17.2285 10.7064 17.5373 11.4519 18.087 12.0016C18.6367 12.5512 19.3822 12.86 20.1595 12.86Z" fill="url(#paint1_linear_208_1389)"/>
<path d="M36.5705 7.50547C36.5705 7.40547 36.5005 7.35547 36.3905 7.35547H36.2305V7.83547H36.3505V7.64547L36.4905 7.83547H36.6305L36.4705 7.63547C36.5305 7.62547 36.5705 7.57547 36.5705 7.50547ZM36.3705 7.57547H36.3505V7.44547H36.3705C36.4305 7.44547 36.4605 7.46547 36.4605 7.50547C36.4605 7.55547 36.4305 7.57547 36.3705 7.57547Z" fill="#F48120"/>
<path d="M36.4102 7.17578C36.1802 7.17578 35.9902 7.36578 35.9902 7.59578C35.9902 7.82578 36.1802 8.01578 36.4102 8.01578C36.6402 8.01578 36.8302 7.82578 36.8302 7.59578C36.8302 7.36578 36.6402 7.17578 36.4102 7.17578ZM36.4102 7.94578C36.2302 7.94578 36.0702 7.79578 36.0702 7.59578C36.0702 7.40578 36.2202 7.24578 36.4102 7.24578C36.5902 7.24578 36.7402 7.40578 36.7402 7.59578C36.7402 7.78578 36.5902 7.94578 36.4102 7.94578Z" fill="#F48120"/>
<path d="M37.0006 12.9844C37.0006 12.9844 27.0906 19.8734 8.97656 23.0004H34.9996C35.5272 23.0004 36.0335 22.7919 36.4081 22.4203C36.7828 22.0486 36.9953 21.544 36.9996 21.0164L37.0236 17.9964L37.0006 12.9844Z" fill="#F48120"/>
</g>
</g>
<defs>
<linearGradient id="paint0_linear_208_1389" x1="21.6565" y1="12.275" x2="19.6315" y2="9.10405" gradientUnits="userSpaceOnUse">
<stop stop-color="#F89F20"/>
<stop offset="0.25" stop-color="#F79A20"/>
<stop offset="0.533" stop-color="#F68D20"/>
<stop offset="0.62" stop-color="#F58720"/>
<stop offset="0.723" stop-color="#F48120"/>
<stop offset="1" stop-color="#F37521"/>
</linearGradient>
<linearGradient id="paint1_linear_208_1389" x1="21.3375" y1="12.232" x2="18.3775" y2="6.44605" gradientUnits="userSpaceOnUse">
<stop stop-color="#F58720"/>
<stop offset="0.359" stop-color="#E16F27"/>
<stop offset="0.703" stop-color="#D4602C"/>
<stop offset="0.982" stop-color="#D05B2E"/>
</linearGradient>
<clipPath id="clip0_208_1389">
<rect width="38" height="24" fill="white"/>
</clipPath>
</defs>
</svg>
