<svg width="60" height="15" viewBox="0 0 60 15" fill="none" xmlns="http://www.w3.org/2000/svg">
<g clip-path="url(#clip0_208_1422)">
<rect width="60" height="15" fill="#003087"/>
<path d="M22.4351 3.35449H19.1148C18.8876 3.35449 18.6944 3.52349 18.6589 3.75313L17.316 12.4699C17.2893 12.6419 17.4195 12.797 17.5899 12.797H19.175C19.4022 12.797 19.5954 12.628 19.6309 12.3978L19.993 10.0468C20.028 9.81665 20.2217 9.64766 20.4484 9.64766H21.4995C23.6867 9.64766 24.9489 8.56409 25.2786 6.41683C25.4272 5.4774 25.2849 4.73928 24.8552 4.22234C24.3833 3.65471 23.5464 3.35449 22.4351 3.35449ZM22.8181 6.53811C22.6365 7.75787 21.7262 7.75787 20.8461 7.75787H20.345L20.6965 5.47988C20.7174 5.3422 20.8339 5.2408 20.9699 5.2408H21.1995C21.7991 5.2408 22.3647 5.2408 22.6569 5.59073C22.8312 5.79949 22.8846 6.10965 22.8181 6.53811Z" fill="#003087"/>
<path d="M32.3601 6.49879H30.7701C30.6346 6.49879 30.5176 6.60019 30.4968 6.73787L30.4264 7.19317L30.3152 7.02815C29.971 6.51668 29.2034 6.3457 28.4373 6.3457C26.6803 6.3457 25.1797 7.70811 24.8874 9.61927C24.7354 10.5726 24.9515 11.4842 25.4797 12.1199C25.9642 12.7044 26.6575 12.948 27.4823 12.948C28.898 12.948 29.6831 12.016 29.6831 12.016L29.6122 12.4683C29.5855 12.6413 29.7156 12.7964 29.885 12.7964H31.3172C31.5449 12.7964 31.7372 12.6274 31.7731 12.3973L32.6324 6.82585C32.6596 6.65436 32.53 6.49879 32.3601 6.49879ZM30.1438 9.66699C29.9904 10.5969 29.2694 11.2212 28.3499 11.2212C27.8882 11.2212 27.5192 11.0696 27.2823 10.7823C27.0473 10.497 26.958 10.0909 27.0328 9.63866C27.176 8.71663 27.9091 8.07195 28.8145 8.07195C29.266 8.07195 29.6331 8.22554 29.8748 8.51532C30.1171 8.80809 30.2132 9.21666 30.1438 9.66699Z" fill="#003087"/>
<path d="M40.8279 6.49902H39.2301C39.0777 6.49902 38.9344 6.57656 38.848 6.70629L36.6444 10.0296L35.7103 6.83602C35.6515 6.63621 35.4714 6.49902 35.2675 6.49902H33.6974C33.5066 6.49902 33.3741 6.68989 33.4348 6.8738L35.1947 12.1614L33.5401 14.5528C33.41 14.7411 33.5411 15.0001 33.7659 15.0001H35.3617C35.5132 15.0001 35.6549 14.9245 35.7409 14.7973L41.0551 6.94388C41.1823 6.756 41.0517 6.49902 40.8279 6.49902Z" fill="#003087"/>
<path d="M46.1176 3.35449H42.7969C42.5702 3.35449 42.3769 3.52349 42.3415 3.75313L40.9986 12.4699C40.9719 12.6419 41.102 12.797 41.2715 12.797H42.9755C43.1338 12.797 43.2693 12.6787 43.294 12.5176L43.6751 10.0468C43.7101 9.81665 43.9038 9.64766 44.1305 9.64766H45.1811C47.3688 9.64766 48.6305 8.56409 48.9607 6.41683C49.1097 5.4774 48.9665 4.73928 48.5368 4.22234C48.0654 3.65471 47.2289 3.35449 46.1176 3.35449ZM46.5007 6.53811C46.3196 7.75787 45.4093 7.75787 44.5286 7.75787H44.0281L44.3801 5.47988C44.401 5.3422 44.5165 5.2408 44.6529 5.2408H44.8826C45.4817 5.2408 46.0477 5.2408 46.34 5.59073C46.5143 5.79949 46.5672 6.10965 46.5007 6.53811Z" fill="#003087"/>
<path d="M56.0421 6.49879H54.4531C54.3167 6.49879 54.2006 6.60019 54.1803 6.73787L54.1099 7.19317L53.9982 7.02815C53.654 6.51668 52.8869 6.3457 52.1208 6.3457C50.3638 6.3457 48.8636 7.70811 48.5714 9.61927C48.4199 10.5726 48.635 11.4842 49.1632 12.1199C49.6487 12.7044 50.341 12.948 51.1658 12.948C52.5815 12.948 53.3666 12.016 53.3666 12.016L53.2957 12.4683C53.269 12.6413 53.3991 12.7964 53.5695 12.7964H55.0012C55.2279 12.7964 55.4212 12.6274 55.4566 12.3973L56.3164 6.82585C56.3426 6.65436 56.2125 6.49879 56.0421 6.49879ZM53.8259 9.66699C53.6734 10.5969 52.9515 11.2212 52.032 11.2212C51.5712 11.2212 51.2013 11.0696 50.9644 10.7823C50.7294 10.497 50.641 10.0909 50.7148 9.63866C50.859 8.71663 51.5911 8.07195 52.4966 8.07195C52.9481 8.07195 53.3151 8.22554 53.5569 8.51532C53.8001 8.80809 53.8962 9.21666 53.8259 9.66699Z" fill="#003087"/>
<path d="M57.9166 3.59406L56.5538 12.4704C56.5271 12.6424 56.6572 12.7975 56.8266 12.7975H58.1967C58.4244 12.7975 58.6176 12.6285 58.6526 12.3983L59.9964 3.68204C60.0231 3.51006 59.893 3.35449 59.7236 3.35449H58.1894C58.054 3.35498 57.9375 3.45638 57.9166 3.59406Z" fill="#003087"/>
<path d="M3.52761 14.4908L3.78152 12.8396L3.21592 12.8262H0.515137L2.39205 0.641998C2.39787 0.605217 2.41681 0.57092 2.44448 0.546565C2.47215 0.522209 2.50759 0.508789 2.54449 0.508789H7.0984C8.61022 0.508789 9.65354 0.830878 10.1983 1.46661C10.4537 1.76484 10.6163 2.07649 10.695 2.41946C10.7775 2.77932 10.7789 3.20927 10.6984 3.73366L10.6925 3.77193V4.10794L10.9479 4.25606C11.163 4.37287 11.3339 4.50657 11.4649 4.65967C11.6834 4.91465 11.8247 5.23873 11.8844 5.62295C11.9461 6.01811 11.9257 6.48832 11.8247 7.02066C11.7082 7.63303 11.5198 8.16636 11.2654 8.60277C11.0314 9.00489 10.7333 9.33841 10.3794 9.59687C10.0415 9.84242 9.63994 10.0288 9.18601 10.1481C8.74616 10.2654 8.24464 10.3246 7.69458 10.3246H7.34017C7.08675 10.3246 6.8406 10.418 6.64738 10.5855C6.45367 10.7565 6.3255 10.9901 6.28617 11.2456L6.25947 11.3942L5.81088 14.3045L5.79048 14.4113C5.78514 14.4451 5.77592 14.462 5.76233 14.4735C5.75019 14.4839 5.73271 14.4908 5.71572 14.4908H3.52761Z" fill="#003087"/>
<path d="M11.1896 3.81055C11.176 3.89953 11.1605 3.99049 11.143 4.08393C10.5425 7.2407 8.48786 8.33123 5.86378 8.33123H4.5277C4.20679 8.33123 3.93638 8.56982 3.88637 8.89389L3.20231 13.3355L3.0086 14.5945C2.97607 14.8073 3.13629 14.9991 3.34602 14.9991H5.7157C5.99632 14.9991 6.23469 14.7904 6.27887 14.5071L6.30218 14.3838L6.74834 11.485L6.77699 11.3259C6.82068 11.0416 7.05954 10.8329 7.34016 10.8329H7.69456C9.99045 10.8329 11.7877 9.87855 12.313 7.11694C12.5325 5.96328 12.4189 5 11.8382 4.32252C11.6625 4.11823 11.4445 3.94873 11.1896 3.81055Z" fill="#003087"/>
<path d="M10.5613 3.55467C10.4695 3.52733 10.3748 3.50248 10.2777 3.48011C10.1802 3.45824 10.0802 3.43886 9.97721 3.42196C9.61697 3.36231 9.22227 3.33398 8.79941 3.33398H5.23007C5.1422 3.33398 5.05869 3.35436 4.98393 3.39114C4.81935 3.47216 4.697 3.63171 4.66739 3.82705L3.90808 8.75084L3.88623 8.89449C3.93624 8.57041 4.20666 8.33183 4.52757 8.33183H5.86364C8.48772 8.33183 10.5423 7.2408 11.1429 4.08453C11.1609 3.99108 11.1759 3.90012 11.1895 3.81115C11.0375 3.72864 10.873 3.65806 10.6958 3.59791C10.6521 3.583 10.6069 3.56859 10.5613 3.55467Z" fill="#003087"/>
<path d="M4.66751 3.8268C4.69712 3.63145 4.81947 3.4719 4.98405 3.39138C5.0593 3.3546 5.14232 3.33422 5.23019 3.33422H8.79952C9.22239 3.33422 9.61709 3.36255 9.97733 3.4222C10.0803 3.4391 10.1803 3.45848 10.2778 3.48035C10.3749 3.50272 10.4696 3.52757 10.5614 3.55491C10.607 3.56883 10.6522 3.58324 10.6963 3.59766C10.8735 3.6578 11.0381 3.72888 11.1901 3.81089C11.3687 2.64431 11.1886 1.85002 10.5725 1.13079C9.89334 0.338989 8.66747 0 7.09885 0H2.54494C2.22452 0 1.95118 0.238585 1.90166 0.563159L0.00484949 12.8726C-0.0325333 13.1162 0.150982 13.3359 0.390815 13.3359H3.2023L3.9082 8.75058L4.66751 3.8268Z" fill="#003087"/>
</g>
<defs>
<clipPath id="clip0_208_1422">
<rect width="60" height="15" fill="white"/>
</clipPath>
</defs>
</svg>
