<svg width="38" height="24" viewBox="0 0 38 24" fill="none" xmlns="http://www.w3.org/2000/svg">
<g clip-path="url(#clip0_208_1412)">
<mask id="mask0_208_1412" style="mask-type:luminance" maskUnits="userSpaceOnUse" x="0" y="0" width="38" height="24">
<path d="M38 0H0V24H38V0Z" fill="white"/>
</mask>
<g mask="url(#mask0_208_1412)">
<path opacity="0.07" d="M35 0H3C1.3 0 0 1.3 0 3V21C0 22.7 1.4 24 3 24H35C36.7 24 38 22.7 38 21V3C38 1.3 36.6 0 35 0Z" fill="#003087"/>
<path d="M35 1C36.1 1 37 1.9 37 3V21C37 22.1 36.1 23 35 23H3C1.9 23 1 22.1 1 21V3C1 1.9 1.9 1 3 1H35Z" fill="#003087"/>
<path d="M23.9 8.3C24.1 7.3 23.9 6.6 23.3 6C22.7 5.3 21.6 5 20.2 5H16.1C15.8 5 15.6 5.2 15.5 5.5L14 15.6C14 15.8 14.1 16 14.3 16H17L17.4 12.6L19.2 10.4L23.9 8.3Z" fill="#003087"/>
<path d="M23.8996 8.30078L23.6996 8.50078C23.1996 11.3008 21.4996 12.3008 19.0996 12.3008H17.9996C17.6996 12.3008 17.4996 12.5008 17.3996 12.8008L16.7996 16.7008L16.5996 17.7008C16.5996 17.9008 16.6996 18.1008 16.8996 18.1008H18.9996C19.2996 18.1008 19.4996 17.9008 19.4996 17.7008V17.6008L19.8996 15.2008V15.1008C19.8996 14.9008 20.1996 14.7008 20.3996 14.7008H20.6996C22.7996 14.7008 24.3996 13.9008 24.7996 11.5008C24.9996 10.5008 24.8996 9.70078 24.3996 9.10078C24.2996 8.60078 24.0996 8.40078 23.8996 8.30078Z" fill="#003087"/>
<path d="M23.3004 8.10078C23.2004 8.00078 23.1004 8.00078 23.0004 8.00078C22.9004 8.00078 22.8004 8.00078 22.7004 7.90078C22.4004 7.80078 22.0004 7.80078 21.6004 7.80078H18.6004C18.5004 7.80078 18.4004 7.80078 18.4004 7.90078C18.2004 8.00078 18.1004 8.10078 18.1004 8.30078L17.4004 12.7008V12.8008C17.4004 12.5008 17.7004 12.3008 18.0004 12.3008H19.3004C21.8004 12.3008 23.4004 11.3008 23.9004 8.50078V8.30078C23.8004 8.20078 23.6004 8.10078 23.4004 8.10078H23.3004Z" fill="#003087"/>
</g>
</g>
<defs>
<clipPath id="clip0_208_1412">
<rect width="38" height="24" fill="white"/>
</clipPath>
</defs>
</svg>
