<svg width="38" height="24" viewBox="0 0 38 24" fill="none" xmlns="http://www.w3.org/2000/svg">
<g clip-path="url(#clip0_208_1441)">
<mask id="mask0_208_1441" style="mask-type:luminance" maskUnits="userSpaceOnUse" x="0" y="0" width="38" height="24">
<path d="M38 0H0V24H38V0Z" fill="white"/>
</mask>
<g mask="url(#mask0_208_1441)">
<path opacity="0.07" d="M35 0H3C1.3 0 0 1.3 0 3V21C0 22.7 1.4 24 3 24H35C36.7 24 38 22.7 38 21V3C38 1.3 36.6 0 35 0Z" fill="#3086C8"/>
<path d="M35 1C36.1 1 37 1.9 37 3V21C37 22.1 36.1 23 35 23H3C1.9 23 1 22.1 1 21V3C1 1.9 1.9 1 3 1H35Z" fill="#3086C8"/>
<path d="M12.0005 12V15.7C12.0005 16 11.8005 16 11.5005 15.9C9.60047 15.1 8.50047 12.6 9.20047 10.5C9.60047 9.4 10.4005 8.5 11.5005 8.1C11.9005 7.9 12.0005 8 12.0005 8.3V12ZM14.0005 12V8.3C14.0005 8 14.0005 8 14.3005 8.1C16.4005 8.9 17.5005 11.4 16.7005 13.5C16.3005 14.6 15.5005 15.5 14.4005 15.9C14.0005 16.1 14.0005 16 14.0005 15.7V12ZM21.2005 5H13.0005C16.8005 5 19.8005 8.1 19.8005 12C19.8005 15.9 16.8005 19 13.0005 19H21.2005C25.0005 19 28.0005 15.9 28.0005 12C28.0005 8.1 25.0005 5 21.2005 5Z" fill="#3086C8"/>
</g>
</g>
<defs>
<clipPath id="clip0_208_1441">
<rect width="38" height="24" fill="white"/>
</clipPath>
</defs>
</svg>
